<svg id="Layer_1" data-name="Layer 1" xmlns="http://www.w3.org/2000/svg" viewBox="0 0 317.65 194.84"><defs><style>.cls-1{fill:#0d3575;}.cls-2{fill:#ffc49c;}.cls-3{fill:#493626;}.cls-4{fill:#3369e8;}.cls-5{fill:#f29900;}.cls-6{fill:#f5f5f5;}.cls-7{fill:#68230e;opacity:0.6;}.cls-8{fill:#aaa;}.cls-9{fill:#e0e0e0;}</style></defs><title>BRE001-Support-Help-Center-Icon_5-0C_230519</title><path class="cls-1" d="M142.31,195s0-57,55.51-70.55c4.68-1.14,6.71-.17,11.14-.28,54-1.36,65.47,70.81,65.47,70.81Z" transform="translate(0 -0.18)"/><path class="cls-2" d="M225.7,125.2a15.08,15.08,0,0,0,11.6-4.35c5.13-5.12,7.06-14.88,7.06-14.88S243.3,93.5,234.6,87.31s-24.37-.58-26.78,8.89-10.25,33.64-10.25,33.64,12.37,5.13,17,5.22a14.71,14.71,0,0,0,7.16-1.35Z" transform="translate(0 -0.18)"/><path class="cls-3" d="M217.19,106.31l5.87-6.46s12.78,12.18,24.82,6.46,7.2-18.21-3.52-17.19c0,0-9-6.75-12.48-10.86s-11.31-5.73-17.77-1.91-11.58,12.92-12.19,19.24c-.45,4.54-.49,14-.49,18.85,0,3.27,4.39,3.71,6.18.16.95-1.88,2.62-4.56,1.87-6.18a6.75,6.75,0,0,1,.66-7c2.35-2.64,5.14-.29,5.73,1.62S215.57,105.72,217.19,106.31Z" transform="translate(0 -0.18)"/><polygon points="181.71 166.04 180.41 194.84 163.01 194.82 181.71 166.04"/><path d="M210.44,134.36l.22,44.81,11.08-45.46A28,28,0,0,1,210.44,134.36Z" transform="translate(0 -0.18)"/><path class="cls-4" d="M171.13,195s0-66.14-49.81-72.47c-43.07-5.47-72.62,21.56-74,72.49Z" transform="translate(0 -0.18)"/><path class="cls-2" d="M87.39,124.08s-11,.36-14.28-7.68C69.07,106.38,69,96,71,90.23s19-12.73,28.6-2.92,8.49,20.54,8.49,20.54l4.58,17.93a14.6,14.6,0,0,1-11.13,8.31c-6.59,1-11.87-1.47-12.51-3.28C88.83,130.34,87.39,124.08,87.39,124.08Z" transform="translate(0 -0.18)"/><path class="cls-5" d="M69.72,101.64a23.86,23.86,0,0,0,12.44,1.44,14.39,14.39,0,0,0,10-6.18s1.34,4.46,2.28,7.2c1.16,3.39,4.23,2.69,4.81.56,1.55-5.74,11.32-5.73,10.58-10.84s-4.74-16.92-18.7-17.13-19.42,9.11-20.84,15A33.54,33.54,0,0,0,69.72,101.64Z" transform="translate(0 -0.18)"/><circle class="cls-5" cx="91.13" cy="67.2" r="11.87"/><path class="cls-2" d="M30.86,133.89s-1.5-2.5-3.54-2.75S16.48,130,14.65,129.91c-2.86-.12-2.59-3-.49-3.28,4.67-.51,16-1.63,18.61-.35a8,8,0,0,1,3,3.16,15.27,15.27,0,0,0,1.14,1.7Z" transform="translate(0 -0.18)"/><polygon class="cls-4" points="36.88 130.96 87.67 191.49 41.17 191.49 30.86 133.71 36.88 130.96"/><path class="cls-6" d="M116.68,195H25.09a1.58,1.58,0,0,1-1.36-.91L.12,143a.93.93,0,0,1,.81-1.43h91.6a1.56,1.56,0,0,1,1.35.91l23.61,51.13A.94.94,0,0,1,116.68,195Z" transform="translate(0 -0.18)"/><path class="cls-6" d="M201,195h91.6a1.58,1.58,0,0,0,1.35-.91L317.53,143a.93.93,0,0,0-.81-1.43H225.13a1.54,1.54,0,0,0-1.35.91l-23.62,51.13A.94.94,0,0,0,201,195Z" transform="translate(0 -0.18)"/><path class="cls-1" d="M95.24,134s6.35.88,11.09-1.54v36.89l-5.55-12Z" transform="translate(0 -0.18)"/><polygon class="cls-1" points="136.77 167.61 136.77 194.82 151.13 194.82 136.77 167.61"/><path class="cls-4" d="M106.33,152.11V132.5c0-1.81,2.1-6.26,6-7.91,4.5-1.89,9.92,1.19,9.92,1.19Z" transform="translate(0 -0.18)"/><path class="cls-1" d="M210.44,152.11V132.5c0-1.81-2.15-6.13-6-7.91-4.52-2.08-9.92,1.19-9.92,1.19Z" transform="translate(0 -0.18)"/><path class="cls-7" d="M87.39,124.08a37.87,37.87,0,0,0,10.34-1.86L89,130.81Z" transform="translate(0 -0.18)"/><path class="cls-7" d="M225.7,125.2a29.66,29.66,0,0,1-6.89-1.42l4.27,7.05Z" transform="translate(0 -0.18)"/><rect class="cls-6" x="212.25" width="105.28" height="13.44" rx="6.72"/><rect class="cls-8" x="130.78" y="55.33" width="56.52" height="13.44" rx="6.72"/><rect class="cls-9" x="173.48" y="29.83" width="88.73" height="13.44" rx="6.72"/><path class="cls-2" d="M99.25,104.66s.82-4.74,4.52-4.47,5.21,4.81,1.79,9S99.25,104.66,99.25,104.66Z" transform="translate(0 -0.18)"/><path class="cls-5" d="M109.12,90.67s4.11,11.16,1.4,26.85c0,0-3.59-.2-5.24-2a7.68,7.68,0,0,1-1.92-3.66s3.57-2.07,3.91-5.94c.55-6.16-4.27-5.76-4.27-5.76Z" transform="translate(0 -0.18)"/></svg>
