<svg xmlns="http://www.w3.org/2000/svg" width="192" height="192"><path fill="none" d="M0 0h192v192H0z"/><path fill="#EA4335" d="M128.33 122l10.09 23.67 17.39 23.92c2.69-1.55 4.98-3.8 6.59-6.59l18.48-32c1.61-2.78 2.41-5.89 2.41-9l-28.38-3-26.58 3z"/><g fill="#00832D"><path d="M65.05 21.03c.03-.02.05-.05.08-.07-.03.02-.05.05-.08.07zM66.8 19.55c-.03.03-.07.05-.1.07.03-.02.07-.04.1-.07zM63.59 22.62l.03-.03-.03.03zM123.48 18.41a18.01 18.01 0 00-9-2.41H77.53c-3.2 0-6.32.88-9 2.41l10.46 24.31 16.94 23.14.07.14 17.08-23.39 10.4-24.2z"/></g><path fill="#0066DA" d="M63.67 122l-28.33-4-26.62 4c0 3.1.8 6.2 2.4 8.99L29.6 163c1.61 2.78 3.9 5.03 6.59 6.59l17.09-22.68L63.67 122z"/><path fill="#FFBA00" d="M155.47 69l-25.4-44c-1.61-2.79-3.9-5.04-6.59-6.59L96 66l32.33 56h54.95c0-3.11-.8-6.21-2.41-9l-25.4-44z"/><path fill="#2684FC" d="M128.33 122H63.67l-27.48 47.59a18.01 18.01 0 009 2.41H146.8c3.22 0 6.31-.86 9-2.41L128.33 122z"/><path fill="#2684FC" d="M128.33 122H63.67l-27.48 47.59a18.01 18.01 0 009 2.41H146.8c3.22 0 6.31-.86 9-2.41L128.33 122z"/><path fill="#00AC47" d="M96 66L68.53 18.41a17.948 17.948 0 00-6.58 6.57l-50.83 88.05c-1.6 2.78-2.4 5.88-2.4 8.97h54.95L96 66z"/></svg>