<svg xmlns="http://www.w3.org/2000/svg" width="192" height="192"><path fill="none" d="M0 0h192v192H0z"/><path fill="#C5221F" d="M8 46v16l18.35 17.76L48 92l4-26.93L48 40l-11.2-8.4C24.93 22.7 8 31.17 8 46"/><path fill="#FFBA00" d="M144 40l-4 25.4 4 26.6 19.65-9.73L184 62V46c0-14.83-16.93-23.3-28.8-14.4L144 40z"/><path fill="#2684FC" d="M20 160h28V92L8 62v86c0 6.63 5.37 12 12 12"/><path fill="#00AC47" d="M144 160h28c6.63 0 12-5.37 12-12V62l-40 30v68z"/><path fill="#E94235" d="M96 76L48 40v52l48 36 48-36V40z"/></svg>