<svg xmlns="http://www.w3.org/2000/svg" xmlns:xlink="http://www.w3.org/1999/xlink" viewBox="0 0 1920 1080"><defs><style>.cls-1{fill:none;}.cls-2{isolation:isolate;}.cls-3{fill:#f5f5f5;}.cls-4{fill:#ffc49c;}.cls-5{fill:#616161;}.cls-6{fill:#174417;}.cls-7{fill:#ffabab;}.cls-8{fill:#a46347;}.cls-9{fill:#493626;}.cls-10{fill:#fff;}.cls-11{fill:#e0e0e0;}.cls-12{fill:#68230e;}.cls-13{fill:#aaa;}.cls-14{clip-path:url(#clip-path);}.cls-15{clip-path:url(#clip-path-2);}.cls-16{fill:#009925;}.cls-17{fill:#353535;}.cls-18{fill:#b3e4ff;}.cls-19{fill:#e3f6ff;}.cls-20{clip-path:url(#clip-path-3);}.cls-21{mix-blend-mode:multiply;}.cls-22{fill:#c4c4c4;}.cls-23{clip-path:url(#clip-path-4);}.cls-24{fill:#f29900;}.cls-25{fill:#ffc105;}.cls-26{fill:#3369e8;}.cls-27{clip-path:url(#clip-path-5);}.cls-28{clip-path:url(#clip-path-6);}</style><clipPath id="clip-path"><path class="cls-1" d="M1344.15,426.67H1656a4.11,4.11,0,0,1,4.11,4.11V966.3a0,0,0,0,1,0,0h-316a0,0,0,0,1,0,0V426.67A0,0,0,0,1,1344.15,426.67Z"/></clipPath><clipPath id="clip-path-2"><path class="cls-1" d="M677.55,295.6H1340a4.11,4.11,0,0,1,4.11,4.11V966.3a0,0,0,0,1,0,0H673.44a0,0,0,0,1,0,0V299.71A4.11,4.11,0,0,1,677.55,295.6Z"/></clipPath><clipPath id="clip-path-3"><path class="cls-1" d="M1025.74,678c0,3.6-30.54,6.51-68.21,6.51s-68.22-2.91-68.22-6.51,30.54-6.5,68.22-6.5S1025.74,674.42,1025.74,678Z"/></clipPath><clipPath id="clip-path-4"><path class="cls-1" d="M1398.48,802.38h-747a4.11,4.11,0,0,1-4-5l60.84-263.52a4.11,4.11,0,0,1,4-3.19h747a4.12,4.12,0,0,1,4,5l-60.84,263.52A4.11,4.11,0,0,1,1398.48,802.38Z"/></clipPath><clipPath id="clip-path-5"><circle class="cls-1" cx="1622.06" cy="191.79" r="81.65"/></clipPath><clipPath id="clip-path-6"><circle class="cls-1" cx="1345.53" cy="191.24" r="58.29"/></clipPath></defs><g class="cls-2"><g id="Layer_1" data-name="Layer 1"><path class="cls-3" d="M255.83,1011.58H463.94a11,11,0,0,1,11,11h0a11,11,0,0,1-11,11H255.83a11,11,0,0,1-11-11h0A11,11,0,0,1,255.83,1011.58Z"/><path class="cls-4" d="M367.06,868.75s4.6,79.09,5.1,88-3.14,15.84-8.28,23.1-8,13-16.85,16.53-3.33,8.8,13,7.79,36.1-22.6,36.1-22.6l15.21-104.12s-11.81-11.41-24-12.11S367.06,868.75,367.06,868.75Z"/><path class="cls-5" d="M397.08,971.8s-4.25,1.9-13.25,8.93-13.92,14.08-20.05,13.85a35.82,35.82,0,0,1-10.37-1.84s-5.9,4.64-12.48,5.32-15.21,1.66-16.73,5-1.43,8,.46,8.25,34.88,0,38.66,0,7.57-.53,10.07-2.42,23-17.78,24.66-19.29,3.18-7.57,2.88-11.13S399.11,970.74,397.08,971.8Z"/><path class="cls-5" d="M401,980.13l-.87,30.62a.69.69,0,0,1-.69.69H385a.69.69,0,0,1-.69-.69V998.82Z"/><polygon points="384.28 1000.45 394.12 993.75 384.28 1005.48 384.28 1000.45"/><path class="cls-4" d="M524.53,868.75S512.22,953.09,511.71,962s-.4,10.59,4.74,17.85,8,13,16.85,16.53,3.33,8.8-13,7.79-37.73-21.29-37.73-21.29l-2.32-105.43s11.8-11.41,24-12.11S524.53,868.75,524.53,868.75Z"/><path class="cls-5" d="M483.25,971.8s4.25,1.9,13.25,8.93,13.93,14.08,20.06,13.85a35.79,35.79,0,0,0,10.36-1.84s5.9,4.64,12.49,5.32,15.21,1.66,16.72,5,1.44,8-.45,8.25-34.89,0-38.67,0-7.57-.53-10.06-2.42-23-17.78-24.67-19.29-3.18-7.57-2.88-11.13S481.22,970.74,483.25,971.8Z"/><path class="cls-5" d="M479.36,980.13l.88,30.62a.68.68,0,0,0,.68.69h14.45a.69.69,0,0,0,.68-.69V998.82Z"/><polygon points="496.05 1000.45 486.21 993.75 496.05 1005.48 496.05 1000.45"/><path class="cls-5" d="M337.56,628.11c2.72.62,192.49-27.73,192.49-27.73s-7.61-115.11-14.52-181.09c-6.71-64-3.33-115.09-23-116.72s-43.09-4.42-55.21,0S337.56,628.11,337.56,628.11Z"/><path class="cls-6" d="M420.94,509.79c-4.25,2-10.89,9.68-21,23.6-13.71,18.93-196.08,333.34-192,341.41s34.15-9.49,77.88-9.49c57.41,0,73.49,25.67,129.64,32,80.21,9,169-20.87,169-20.87s-41.62-253.14-67.79-335.15c-6.26-19.6-12.9-31.4-19.78-31.27S438.7,501.37,420.94,509.79Z"/><path d="M365.37,590.58l68.95-74.78-18.67-1.89s-9.63,8.91-24,31S365.37,590.58,365.37,590.58Z"/><path class="cls-7" d="M455,332.87s-48,7.42-55,12.27-10,68.8-5.8,83.94,19.07,79.87,23.4,83.06a264.79,264.79,0,0,0,39.1,3.4c18.58,0,43.73-4.69,43.73-4.69,3.75-7.65,20.48-51.51,21.09-81s3.39-89-12.16-93.82c-11.95-3.71-32.08-1.41-32.08-1.41Z"/><path class="cls-4" d="M453.9,321.26l.09,10.21s-14.53,2.17-24.42,5.8-2.29,19.32,15.54,26.13c23.5,9,49.89-1.09,59.41-15.31,4.93-7.38.05-12.49-9.25-14.26-7.14-1.37-15.26-2.11-15.26-2.11l.1-11.5Z"/><polygon class="cls-8" points="453.96 330.24 480.07 326.23 480.07 322.75 453.9 322.63 453.96 330.24"/><path class="cls-4" d="M442.89,284.91S442,304.28,445,311.54s8.47,14.83,19.67,14.83,19.37-4.24,22.7-12.41,2.72-23,3.63-33.59-6.18-31.78-24.13-32.09S445.31,271.29,442.89,284.91Z"/><path class="cls-9" d="M443.11,283.39a11.35,11.35,0,0,0,9.63-6.55c2.68-5.63,2.81-14.7,8.53-13.35s-.85,9.59,4.82,19.45c4.84,8.42,17.1,9.13,23.15,8l-1.09,20.81s15.51,15.53,38.57,5.57c19.17-8.27,21.09-34.5,5.25-46.81-12-9.3-20.68-7.51-20.68-7.51s-6.4-22.33-24.52-28.91c-16.95-6.15-31.43-.91-44,11.2s-14.61,12.1-24.09,14.83c-15.74,4.54-25.93,24.07-12.44,41.36,12.34,15.84,37.38,4.41,37.38,4.41Z"/><path class="cls-10" d="M443.48,300.21a2.84,2.84,0,0,1-.72.09,2.74,2.74,0,0,1,0-5.48,2.48,2.48,0,0,1,.61.07Z"/><path class="cls-4" d="M488.09,311.93a77.26,77.26,0,0,0,2-9.13c.36-2.29.61-4.47.61-4.47s5.32,3.39,8.19-2.44c2.77-5.61.87-12-2.74-11.69-5.3.41-5.94,6.64-7.71,6.84Z"/><path class="cls-10" d="M495.27,299.83a2.75,2.75,0,1,1-2.75-2.74A2.74,2.74,0,0,1,495.27,299.83Z"/><path class="cls-8" d="M454,331.21v3.86s-12.38-1.3-12.23-1.34Z"/><polygon class="cls-8" points="479.97 334.09 480.02 330.72 487.72 332.62 479.97 334.09"/><path class="cls-11" d="M437.31,335.07S435,391.71,407.8,461.71C371.15,556.18,357.37,606.93,348.46,697,337.56,807.1,262.1,838.64,236.77,838.64H151.42c-9.08-4.4-2.42-64.32,32.08-104.88L218,693.2s93.22-89.41,118-137S384.8,426.86,392.2,392.35s12.64-68.89,30.7-82.58c0,0,2.56.09,5.81-.15a49.22,49.22,0,0,0,6.72-1.07Z"/><path class="cls-11" d="M409.29,339.48c-.3-.09-12.41,3.24-25.12,11.41s-22.49,35.71-30.87,52.66c-3.11,6.29-23,40.46-33.6,55.19s-9.08,48.93,29.36,45.9,46.31-2.87,46.31-2.87l.77-32.54Z"/><path class="cls-11" d="M510.72,335.07s16.91,9.76,24.18,16.73,15.13,49.36,21.79,71,11.8,62.48-4.84,67.93-20.89,4.84-29.06,0-22.57-28.15-22.57-28.15l9.56-29.36Z"/><path class="cls-11" d="M490.85,313.93s-6.76,19.05,4.55,68.38c5.4,23.56,34.13,207.09,34.13,207.09s.32-80.62,2.09-106.65-18-139.63-20.84-151.54-4.31-11-4.31-11S496.71,318.4,490.85,313.93Z"/><ellipse class="cls-5" cx="508.37" cy="453.69" rx="10.03" ry="18.81"/><path class="cls-5" d="M390.71,489.92c0-6.54,2-11.84,4.36-11.84s4.35,5.3,4.35,11.84-1.95,11.85-4.35,11.85S390.71,496.46,390.71,489.92Z"/><path class="cls-12" d="M415.46,513.49,414.9,508a.7.7,0,0,1,.76-.77,351.36,351.36,0,0,0,43.67,1.38l42.35-1.44a.69.69,0,0,1,.72.7v4.77a.69.69,0,0,1-.59.69c-3.8.53-25.09,3.35-44.49,3.35a376,376,0,0,1-41.26-2.54A.68.68,0,0,1,415.46,513.49Z"/><path class="cls-4" d="M515.78,436.73s2.87,4.45,2.46,13.55c0,0-11,2.85-12.93,4.25s-11.08-.5-12.88-.74-5.44-4.45-6.59-5.34-.57-3.6-.57-3.6a7.88,7.88,0,0,0-2.71,1.72c-1.39,1.31-2.13,6.15-4,7.71s-2.42-.33-2.11-1.64,1.13-8.12,1.7-9.68a60.78,60.78,0,0,1,4.1-6.64,21.64,21.64,0,0,1-3.93-1.23c-1-.58-1.48-2.95-.25-3.86s9-.65,9-.65a53.82,53.82,0,0,1,4.59-3.28c1.48-.82,3-1.15,6.4,0S515.78,436.73,515.78,436.73Z"/><path class="cls-4" d="M395.07,483.05s0,9,2.72,11.4c1.63,1.45,22.5-.3,28.45-1.91s15.23-4.34,17.25-6.36,3.23-3.13,3.23-3.13Z"/><polygon class="cls-5" points="466.51 479.92 374 479.92 361.68 426.55 454.19 426.55 466.51 479.92"/><polygon class="cls-13" points="463.9 479.33 371.39 479.92 359.07 426.55 451.58 426.55 463.9 479.33"/><polygon points="371.39 479.92 370.22 474.86 463.76 479.33 371.39 479.92"/><polygon class="cls-5" points="466.51 483.05 343.46 483.05 343.46 480.83 466.51 479.33 466.51 483.05"/><rect class="cls-13" x="343.46" y="479.54" width="84.31" height="3.52"/><polygon class="cls-10" points="460.17 463.33 367.52 463.33 359.07 426.55 451.58 426.55 460.17 463.33"/><path class="cls-13" d="M404.27,341s-2.55,10.19-3.15,34.1l-5-30.76S401.8,341.83,404.27,341Z"/><path class="cls-13" d="M522.44,439l13.67,3.79-15.59-31.63S522.7,431.7,522.44,439Z"/><polygon class="cls-13" points="358.63 503.91 392.72 501.77 389.49 510.75 357.42 507.14 358.63 503.91"/><path class="cls-13" d="M512.07,479.7s10.07,13.45,19,14.55l-.35,10.58-17.54-18.47Z"/><path class="cls-9" d="M493,295.05a.73.73,0,0,1-.42-.14.69.69,0,0,1-.13-1l3.11-4.08a.67.67,0,0,1,1-.13.68.68,0,0,1,.13,1l-3.11,4.08A.67.67,0,0,1,493,295.05Z"/><path class="cls-13" d="M630,536.89h0A78.1,78.1,0,0,0,561.82,577L433.43,807.4h240V580.3A43.41,43.41,0,0,0,630,536.89Z"/><path class="cls-3" d="M1344.15,426.67H1656a4.11,4.11,0,0,1,4.11,4.11V966.3a0,0,0,0,1,0,0h-316a0,0,0,0,1,0,0V426.67A0,0,0,0,1,1344.15,426.67Z"/><g class="cls-14"><polyline class="cls-13" points="1523.18 967.53 1678.29 966.3 1678.29 415.45 1105.44 970.83 1523.18 967.53"/></g><path class="cls-3" d="M677.55,295.6H1340a4.11,4.11,0,0,1,4.11,4.11V966.3a0,0,0,0,1,0,0H673.44a0,0,0,0,1,0,0V299.71A4.11,4.11,0,0,1,677.55,295.6Z"/><g class="cls-15"><polygon class="cls-16" points="1353.83 289.55 673.44 966.3 1368.36 968.4 1353.83 289.55"/></g><polygon class="cls-13" points="1579.79 510.95 1105.44 970.83 1586.25 966.3 1579.79 510.95"/><path class="cls-6" d="M1627.6,659c-2.54-7.07-14.11-11.19-26.53-11.76a73.56,73.56,0,0,1,.34,8.73,40.26,40.26,0,0,0-3.71-8.81,73.87,73.87,0,0,0-23.57,3.7c-19.41,6.72-28.85,19.15-22.51,36.28,2.35,6.35,6.49,10,11.43,11.84a34,34,0,0,0,.53-8.3s.73,4.75,1.5,9c9.05,2.41,20.18-.39,28.05-3.54a81.21,81.21,0,0,0-4.5-23.67s5.49,5.82,10.7,20.83C1614.54,685.38,1632.15,671.64,1627.6,659Z"/><path class="cls-6" d="M1624.36,813.76c10.18-11.35,13.26-26,8.64-32.5l-54.72,39.54s4.66,11.36,23.28,6.73a45,45,0,0,0,20.63-11.5c-1.9-6.25-5-16.39-5-16.39Z"/><polygon class="cls-5" points="1433.74 652.63 1474.1 613.36 1463.33 535.67 1433.74 652.63"/><polygon class="cls-17" points="1523.02 966.3 1474.1 613.36 1434.18 651.75 1355.99 968.9 1523.02 966.3"/><polygon class="cls-5" points="1092.37 585.25 1122.6 766.54 1092.37 766.54 1092.37 585.25"/><path class="cls-5" d="M640.45,538.16V834.63h33V580.3C673.44,566.79,665.57,542.17,640.45,538.16Z"/><polygon points="673.64 601.49 663.15 766.54 672.68 766.54 673.64 601.49"/><path class="cls-13" d="M1398.32,802.38H649.44a4.11,4.11,0,0,1-4-5l61-263.52a4.12,4.12,0,0,1,4-3.19h748.87a4.12,4.12,0,0,1,4,5l-61,263.52A4.12,4.12,0,0,1,1398.32,802.38Z"/><polygon class="cls-17" points="1220.81 771.58 1250.52 970.83 1174.81 970.83 1220.81 771.58"/><path class="cls-16" d="M1551.57,670.1c5.36-8.39,7-19.09,7-27.52a81.14,81.14,0,0,0-5.31-28.69c-3.49-.54-13.42-1.84-21.9-.7,0,0,10.75-3.64,20.69-2.33-6.67-15.85-16-28.3-26.82-28.34-16.22-.06-32.91,33.48-33.34,59.22q0,2.46.06,4.8c3.85-.4,9.67-.9,16.5-1.06,12.41-.3,16.78.83,16.78.83s-21.7,1.69-32.91,5.21c2.2,20.05,12.8,32.4,32.64,32.3,11.47-.05,19.18-4.38,24.3-10.58l-13.18-2.54C1536.28,670.63,1546.38,670.27,1551.57,670.1Z"/><rect class="cls-11" x="814.18" y="473.97" width="278.19" height="294.97"/><rect class="cls-18" x="832.46" y="492.23" width="242.51" height="242.51"/><polygon class="cls-11" points="900.12 735.07 1013.94 735.07 1025.74 678.01 889.31 678.01 900.12 735.07"/><path class="cls-16" d="M957.34,330.4c-1.79-24.78-7.91-46.41-16.78-62.08l-18.33,5.12,14.64-11.07c-10.19-14.93-23.26-22.67-37.34-19.74-27.59,5.75-19.37,74.46-1.81,115.92s45.43,70.86,45.43,70.86S961.28,384.88,957.34,330.4Z"/><path class="cls-5" d="M324.06,840.24l-15.6,179.58a1.49,1.49,0,0,1-1.48,1.34h0a1.5,1.5,0,0,1-1.49-1.37L292.6,840.24Z"/><path class="cls-5" d="M1525.27,896.87a.69.69,0,0,1-.69-.68V822.34a.69.69,0,0,1,.69-.69.68.68,0,0,1,.68.69v73.85A.68.68,0,0,1,1525.27,896.87Z"/><path class="cls-13" d="M1025.74,678c0,3.6-30.54,6.51-68.21,6.51s-68.22-2.91-68.22-6.51,30.54-6.5,68.22-6.5S1025.74,674.42,1025.74,678Z"/><path class="cls-5" d="M878.78,699.71H619.14a4.81,4.81,0,0,1-4.8-4.8V606.28a4.81,4.81,0,0,1,4.8-4.8H878.78a4.81,4.81,0,0,1,4.79,4.8v88.63A4.8,4.8,0,0,1,878.78,699.71ZM619.14,602.86a3.43,3.43,0,0,0-3.43,3.42v88.63a3.44,3.44,0,0,0,3.43,3.43H878.78a3.43,3.43,0,0,0,3.42-3.43V606.28a3.42,3.42,0,0,0-3.42-3.42Z"/><path class="cls-6" d="M975.8,460.55s-2.11-22.4,5.15-42.37c6.12-16.82,17-29.36,25.73-24.22,10.29,6.06,4.23,24.82-5.15,39.05S975.8,460.55,975.8,460.55Z"/><polygon class="cls-19" points="1075.57 650.6 849.9 492.56 1074.97 492.23 1075.57 650.6"/><rect class="cls-6" x="1524.58" y="582.98" width="1.37" height="241.48"/><path class="cls-6" d="M1525.8,712.69l-1.06-.86c.37-.47,38.52-46.88,102.35-52.88l.13,1.36C1564,666.25,1526.18,712.23,1525.8,712.69Z"/><g class="cls-20"><polygon class="cls-5" points="928.89 671.51 954.05 693.1 1040.68 686.24 1029.78 660.81 928.89 671.51"/></g><g class="cls-21"><path class="cls-5" d="M1553.57,744.72a8.73,8.73,0,1,1-8.73-8.73A8.73,8.73,0,0,1,1553.57,744.72Z"/></g><path class="cls-6" d="M954.54,684.54c0-.95-2.74-96.31-2.74-153.44,0-105.55-51.2-287.07-51.72-288.9l1.32-.37c.52,1.82,51.77,183.53,51.77,289.27,0,57.11,2.71,152.45,2.74,153.4Z"/><path class="cls-6" d="M928.89,610.37s-1.81-36-19.07-55.69S865.94,525.93,855,534.1s-6.07,40.74,24.21,60.23C909.82,614,928.89,610.37,928.89,610.37Z"/><rect class="cls-3" x="402.43" y="727.94" width="199.76" height="87.17" rx="43.58"/><path class="cls-6" d="M954.09,667.47c-9.53-52.08-51.2-81.36-51.62-81.65l.78-1.13c.43.29,42.56,29.9,52.18,82.54Z"/><polygon class="cls-3" points="1772.26 975.96 1411.45 1011.58 1411.45 968.12 1772.26 965.74 1772.26 975.96"/><path class="cls-6" d="M953.69,585.27l-1.37,0c1.83-89.32,28.36-141.14,28.63-141.65l1.21.63C981.9,444.73,955.51,496.3,953.69,585.27Z"/><path d="M975.52,454.5l10.84-3.57-2,1.93-1.75,1.64Z"/><path d="M849.73,551.35l67.62,14.54s-7-14.44-17.11-21.3Z"/><rect class="cls-11" x="776.65" y="454.5" width="267.86" height="96.85" rx="4.11"/><rect class="cls-5" x="1405.34" y="855.51" width="112.35" height="1.37" transform="translate(-160.94 1342.76) rotate(-47.06)"/><path class="cls-11" d="M1554,815.1h-52L1490,727.94H1554a4.11,4.11,0,0,1,4.11,4.11V811A4.11,4.11,0,0,1,1554,815.1Z"/><rect class="cls-5" x="1535.91" y="799.4" width="1.37" height="112.49" transform="translate(-176.34 1254.53) rotate(-42.22)"/><rect class="cls-5" x="1364.88" y="893.44" width="116.67" height="87.17" rx="4.11" transform="translate(2846.43 1874.06) rotate(180)"/><rect class="cls-5" x="1481.53" y="939.59" width="34.52" height="1.37"/><path class="cls-11" d="M1628.62,980.61H1525.27l-9.21-64.67V897.56a4.11,4.11,0,0,1,4.11-4.12h108.45a4.11,4.11,0,0,1,4.11,4.12V976.5A4.11,4.11,0,0,1,1628.62,980.61Z"/><path class="cls-5" d="M1490,727.94l12.08,87.16h-56.47a4.11,4.11,0,0,1-4.11-4.11V732.05a4.11,4.11,0,0,1,4.11-4.11Z"/><path class="cls-5" d="M1516.06,916l9.21,64.61h-5.1a4.11,4.11,0,0,1-4.11-4.11Z"/><polygon class="cls-22" points="1007.99 454.5 1011.17 499.39 1025.74 454.5 1007.99 454.5"/><path class="cls-13" d="M566,807.4H298.74c-13.31,0-27.84,16.92-11.5,32.22s52.06,33.46,87.17,33.46H566Z"/><path class="cls-5" d="M433.43,807.4S395,830.09,355,830.09c-36.32,0-56.3-22.69-56.3-22.69Z"/><path class="cls-5" d="M372.92,873.08s5,1.63,52.19-17.7c38.59-15.83,52.81-20.75,66.13-20.75H566v38.45Z"/><path class="cls-10" d="M1011.8,512.58H879.18a10,10,0,0,1-10-10h0a10,10,0,0,1,10-10H1011.8a10,10,0,0,1,10,10h0A10,10,0,0,1,1011.8,512.58Z"/><rect class="cls-13" x="883.54" y="502.24" width="122.83" height="1.37"/><path class="cls-16" d="M1122.3,435.73c21.19-27.47,18.87-44.45,15.45-52.86-7-17.06-57.16-17.77-98.69,37.73a139.43,139.43,0,0,0-10.63,16.51l26,9-29.57-1.91c-17.15,36-13.26,67.79-13.26,67.79s35.38-4.54,82.52-46.65a246.33,246.33,0,0,0,22.51-22.62l-13.35-13.32Z"/><path class="cls-13" d="M423.82,812.41s3.2-1.6,7.95-4.15c4.1-2.21,8.88-4,13.46-4h70L506,814.57Z"/><path class="cls-6" d="M954.83,642.91l-1.34-.31c20-84.88,68.22-152.14,105.19-193.62,40-44.94,75.87-70.15,76.23-70.4l.78,1.13c-.36.24-36.06,25.38-76,70.21C1022.82,491.27,974.71,558.33,954.83,642.91Z"/><g class="cls-23"><polygon class="cls-11" points="1463.33 535.67 1523.02 966.3 1254.26 974.47 1054.83 843.85 1463.33 535.67"/></g><polygon class="cls-19" points="891.09 687.42 929.04 735.07 900.12 735.07 891.09 687.42"/><path class="cls-24" d="M1319,741.53h88.32a4.11,4.11,0,0,1,4.11,4.11v265.94a0,0,0,0,1,0,0h-96.54a0,0,0,0,1,0,0V745.64A4.11,4.11,0,0,1,1319,741.53Z"/><path class="cls-25" d="M1228.47,823.23h86.44a0,0,0,0,1,0,0v188.35a0,0,0,0,1,0,0h-90.55a0,0,0,0,1,0,0V827.35A4.11,4.11,0,0,1,1228.47,823.23Z"/><path class="cls-25" d="M1142.15,910.47h83.58a0,0,0,0,1,0,0v101.12a0,0,0,0,1,0,0H1138a0,0,0,0,1,0,0v-97A4.11,4.11,0,0,1,1142.15,910.47Z"/><path class="cls-26" d="M841.85,525.2h-35a4.8,4.8,0,0,1-4.79-4.8v-35a4.8,4.8,0,0,1,4.79-4.79h35a4.8,4.8,0,0,1,4.8,4.79v35A4.8,4.8,0,0,1,841.85,525.2Zm-35-43.18a3.42,3.42,0,0,0-3.42,3.42v35a3.43,3.43,0,0,0,3.42,3.43h35a3.44,3.44,0,0,0,3.43-3.43v-35a3.43,3.43,0,0,0-3.43-3.42Z"/><rect class="cls-11" x="594.65" y="585.25" width="267.86" height="96.85" rx="4.11"/><rect class="cls-10" x="687.16" y="623.31" width="152.64" height="20.03" rx="10.01"/><rect class="cls-13" x="701.54" y="632.99" width="122.83" height="1.37"/><rect class="cls-25" x="618.86" y="612.09" width="43.18" height="43.18" rx="4.11"/><path class="cls-11" d="M461.82,1033.49h695.25a4.11,4.11,0,0,0,4-3.18l59.73-258.73a4.11,4.11,0,0,0-4-5H521.55a4.14,4.14,0,0,0-4,3.19l-59.73,258.73A4.11,4.11,0,0,0,461.82,1033.49Z"/><path class="cls-26" d="M627,859.31h-71.1c-1.7,0-2.76-1.19-2.37-2.67l9.58-36a4,4,0,0,1,3.8-2.67H638c1.7,0,2.76,1.19,2.37,2.67l-9.58,36A4,4,0,0,1,627,859.31Z"/><path class="cls-10" d="M1017.58,849.15H692.22a9.53,9.53,0,0,1-9.54-9.53h0a9.54,9.54,0,0,1,9.54-9.53h325.36a9.53,9.53,0,0,1,9.53,9.53h0A9.52,9.52,0,0,1,1017.58,849.15Z"/><rect class="cls-10" x="535.95" y="893.44" width="600.72" height="19.07" rx="9.53"/><path class="cls-5" d="M1412.27,586H1151.86a4.81,4.81,0,0,1-4.8-4.8V521.49a4.8,4.8,0,0,1,4.8-4.8h260.41a4.8,4.8,0,0,1,4.8,4.8v59.72A4.81,4.81,0,0,1,1412.27,586Zm-260.41-68a3.44,3.44,0,0,0-3.43,3.43v59.72a3.44,3.44,0,0,0,3.43,3.43h260.41a3.44,3.44,0,0,0,3.43-3.43V521.49a3.44,3.44,0,0,0-3.43-3.43Z"/><path class="cls-10" d="M1143.67,849.15h-76.45a9.53,9.53,0,0,1-9.54-9.53h0a9.54,9.54,0,0,1,9.54-9.53h76.45a9.53,9.53,0,0,1,9.53,9.53h0A9.53,9.53,0,0,1,1143.67,849.15Z"/><path class="cls-13" d="M1102.72,996.25H941.67a4.12,4.12,0,0,1-4-5l9.84-42.62a4.11,4.11,0,0,1,4-3.19h161a4.12,4.12,0,0,1,4,5l-9.84,42.62A4.11,4.11,0,0,1,1102.72,996.25Z"/><ellipse class="cls-7" cx="882.98" cy="968.4" rx="25.81" ry="20.5" transform="translate(-420.52 832.93) rotate(-41.71)"/><polygon class="cls-13" points="1092.37 766.54 814.18 766.54 814.18 758.07 1092.37 766.54"/><rect class="cls-3" x="1132.41" y="502.92" width="268.63" height="67.94" rx="4.11"/><path class="cls-10" d="M1395.4,627.64H1141.69a6.19,6.19,0,0,1-6.18-6.19h0a6.18,6.18,0,0,1,6.18-6.18H1395.4a6.19,6.19,0,0,1,6.19,6.18h0A6.19,6.19,0,0,1,1395.4,627.64Z"/><path class="cls-26" d="M1140.78,665.67a7.85,7.85,0,1,1-7.84-7.84A7.84,7.84,0,0,1,1140.78,665.67Z"/><rect class="cls-13" x="1291.01" y="665.12" width="99.3" height="1.1"/><path class="cls-5" d="M1291,666.36H1154.57a.68.68,0,0,1-.68-.69.67.67,0,0,1,.68-.68H1291a.68.68,0,0,1,.69.68A.69.69,0,0,1,1291,666.36Z"/><path class="cls-26" d="M1133.44,711.56a7.85,7.85,0,1,1-7.84-7.84A7.84,7.84,0,0,1,1133.44,711.56Z"/><rect class="cls-13" x="1230.18" y="711.01" width="147.31" height="1.1"/><path class="cls-5" d="M1230.18,712.25h-83a.69.69,0,0,1-.69-.69.68.68,0,0,1,.69-.68h83a.68.68,0,0,1,.69.68A.69.69,0,0,1,1230.18,712.25Z"/><polygon class="cls-24" points="1188.75 910.47 1202.05 1011.58 1165.4 1011.58 1188.75 910.47"/><circle class="cls-22" cx="1345.53" cy="191.24" r="58.29"/><circle class="cls-16" cx="1622.06" cy="191.79" r="81.65"/><polygon class="cls-22" points="1541.85 192.47 1462.75 192.47 1462.75 46.51 1464.12 46.51 1464.12 191.1 1541.85 191.1 1541.85 192.47"/><rect class="cls-22" x="1402.97" y="191.1" width="60.46" height="1.37"/><g class="cls-27"><path class="cls-6" d="M1666.18,288.33c3.76-.72-19.37-44.79-69-66.58s-100.48-23-100.48-23S1528.17,315,1666.18,288.33Z"/></g><g class="cls-28"><path class="cls-11" d="M1378.86,264.12s-17.76-25.42-50.45-46-61.68-26.88-61.68-26.88-4.91,47.46,41.1,72.88S1378.86,264.12,1378.86,264.12Z"/></g><path class="cls-10" d="M1660.13,150.32a8.48,8.48,0,1,1-8.48-8.48A8.48,8.48,0,0,1,1660.13,150.32Z"/><path class="cls-10" d="M1677.83,175.21a3.41,3.41,0,1,1-3.4-3.4A3.41,3.41,0,0,1,1677.83,175.21Z"/><circle class="cls-10" cx="1364.5" cy="156.15" r="5.83"/><path class="cls-10" d="M1386.2,182.29a3.67,3.67,0,1,1-3.67-3.67A3.67,3.67,0,0,1,1386.2,182.29Z"/><path class="cls-5" d="M420.1,873.08l-15.59,146.74a1.5,1.5,0,0,1-1.49,1.34h0a1.49,1.49,0,0,1-1.48-1.37L388.65,873.08Z"/><polygon points="388.65 873.08 420.1 873.08 418.64 888 389.17 879.57 388.65 873.08"/><path d="M322.33,861.46s-27.24-12.84-29.45-17.05l.83,12.34,27.77,15.17Z"/><polygon class="cls-3" points="1157.08 1033.49 1411.45 1011.58 1165.4 1011.58 1157.08 1033.49"/><polygon class="cls-13" points="1329.95 554.14 1329.18 553.36 1349.4 533.33 1360.71 543.16 1377.91 526.12 1378.68 526.9 1360.76 544.66 1349.44 534.82 1329.95 554.14"/><polygon class="cls-13" points="1382.53 532.26 1382.53 522.57 1372.85 522.57 1382.53 532.26"/><path class="cls-26" d="M1163.69,548.65h0a10.49,10.49,0,0,1-10.49-10.49h0a10.48,10.48,0,0,1,10.49-10.48h0a10.48,10.48,0,0,1,10.48,10.48h0A10.49,10.49,0,0,1,1163.69,548.65Z"/><path class="cls-7" d="M1195.55,548.65h0a10.49,10.49,0,0,1-10.48-10.49h0a10.48,10.48,0,0,1,10.48-10.48h0A10.49,10.49,0,0,1,1206,538.16h0A10.49,10.49,0,0,1,1195.55,548.65Z"/><path class="cls-5" d="M1226.63,548.65h0a10.49,10.49,0,0,1-10.49-10.49h0a10.49,10.49,0,0,1,10.49-10.48h0a10.49,10.49,0,0,1,10.49,10.48h0A10.49,10.49,0,0,1,1226.63,548.65Z"/><circle class="cls-16" cx="1041.62" cy="147.46" r="14.51"/><path class="cls-7" d="M1382.53,334.08a6.1,6.1,0,1,1-6.1-6.1A6.11,6.11,0,0,1,1382.53,334.08Z"/><circle class="cls-13" cx="1424.14" cy="475.95" r="12.68"/><circle class="cls-13" cx="1521.66" cy="326.62" r="4.09"/><circle class="cls-13" cx="1638.03" cy="67.09" r="5.15"/><circle class="cls-13" cx="1581.85" cy="715.63" r="11.91"/><circle class="cls-13" cx="595.44" cy="354.71" r="6.75"/><circle class="cls-11" cx="600.14" cy="141.61" r="11.6" transform="translate(324.91 693.4) rotate(-76.77)"/><path class="cls-13" d="M376.61,227a5.26,5.26,0,1,1-5.26-5.26A5.27,5.27,0,0,1,376.61,227Z"/><path class="cls-16" d="M188,511.4a8.48,8.48,0,1,1-8.48-8.48A8.47,8.47,0,0,1,188,511.4Z"/><path class="cls-10" d="M1023,985.08l-.15,0a.7.7,0,0,1-.52-.82l6.27-27.13a.68.68,0,1,1,1.33.3l-6.26,27.13A.69.69,0,0,1,1023,985.08Z"/><path class="cls-10" d="M1038.69,971.51h-25.12a.69.69,0,0,1,0-1.37h25.12a.69.69,0,1,1,0,1.37Z"/><path class="cls-16" d="M1652.82,682.18c1.85-8.87,1.1-17-4.64-21.39l-48.38,64.28.53.4c8.16,6.15,16.42,4.92,23.6.73a48.65,48.65,0,0,0-11.12-10.57s4.53,0,14,8.7c7-5,12.69-12.44,15.88-17.7,1-1.72,2.07-3.53,3-5.42-2.24-2.16-7.61-7.12-12.56-9.83l14.71,5.41a75.79,75.79,0,0,0,4.3-11.89l-4.86-4.31A41.75,41.75,0,0,1,1652.82,682.18Z"/><path class="cls-16" d="M1719.47,750.66l-3.75,3.68,2.08-5.78a66,66,0,0,0-15.89-13l-6.07,12a81.61,81.61,0,0,0,2.74-13.85,69.33,69.33,0,0,0-13.84-5.71c-19.78-5.55-34.62-.72-39.18,17a19,19,0,0,0,1.72,14.8l12.65-11.5c-2.12,7.45-7.38,13.29-9.64,15.54,7.46,8,20.81,11.84,28.88,13.09l1.79.26c2.35-3.9,5.49-9.68,6.11-13.75l-2.8,14.13c16.46,1.61,36.09-.87,39.36-13.1C1724.73,760.2,1723,755.42,1719.47,750.66Z"/><path class="cls-16" d="M1633,837.1l-2,2.3.89-3.42a37.91,37.91,0,0,0-9.8-6.62l-2.84,7.16a47.58,47.58,0,0,0,.84-8.07,39.17,39.17,0,0,0-8.24-2.54c-11.62-2.14-19.87,1.41-21.55,11.79a10.89,10.89,0,0,0,1.77,8.38l6.64-7.25a22.16,22.16,0,0,1-4.7,9.41c4.69,4.17,12.54,5.69,17.24,6,.34,0,.69,0,1,.06,1.14-2.36,2.63-5.84,2.77-8.21l-.86,8.25c9.52.05,20.63-2.41,21.86-9.59C1636.51,842.29,1635.26,839.64,1633,837.1Z"/><rect class="cls-6" x="1484.38" y="741.94" width="204.68" height="1.37" transform="translate(40.27 1565.82) rotate(-53.11)"/><path class="cls-6" d="M1565.73,772.06l-.79-1.12a169.84,169.84,0,0,1,49.41-21.74c27.07-7.13,67.92-10.33,108.84,14.93l-.72,1.17c-40.49-25-80.93-21.84-107.72-14.79A168.3,168.3,0,0,0,1565.73,772.06Z"/><circle class="cls-6" cx="1481.12" cy="703.6" r="17.68"/><path class="cls-13" d="M1573.41,800.85a4,4,0,1,1-4-4A4,4,0,0,1,1573.41,800.85Z"/><path class="cls-6" d="M1525.84,863.36l-1.15-.74c.11-.17,11.66-17.75,43.08-26.92,33.78-9.86,66.09,11.65,66.41,11.87l-.77,1.14c-.32-.22-32.12-21.37-65.26-11.69C1537.27,846,1526,863.19,1525.84,863.36Z"/><rect class="cls-6" x="1533.18" y="813.59" width="110.52" height="1.37" transform="translate(-175.48 1087.74) rotate(-35.95)"/></g></g></svg>
