<svg width="18" height="20" viewBox="0 0 18 20" fill="none" xmlns="http://www.w3.org/2000/svg">
<path d="M11.7535 16.047C11.0648 16.047 10.4735 15.8105 9.97967 15.3375C9.48581 14.8645 9.23888 14.2924 9.23888 13.6212C9.23888 12.9509 9.48581 12.3747 9.97967 11.8926C10.4735 11.4113 11.0737 11.1706 11.7802 11.1706C12.468 11.1706 13.05 11.4113 13.526 11.8926C14.003 12.3747 14.2414 12.9596 14.2414 13.6472C14.2414 14.3176 13.9987 14.8851 13.5133 15.3499C13.028 15.8147 12.4413 16.047 11.7535 16.047ZM2.01144 19.7359C1.44642 19.7359 0.969928 19.5465 0.581957 19.1675C0.193986 18.7895 0 18.3251 0 17.7745V4.25725C0 3.70662 0.193986 3.24226 0.581957 2.86417C0.969928 2.48525 1.44642 2.2958 2.01144 2.2958H3.28208V0H5.00254V2.2958H13.0241V0H14.7179V2.2958H15.9886C16.5536 2.2958 17.0301 2.48525 17.418 2.86417C17.806 3.24226 18 3.70662 18 4.25725V17.7745C18 18.3251 17.806 18.7895 17.418 19.1675C17.0301 19.5465 16.5536 19.7359 15.9886 19.7359H2.01144ZM2.01144 18.084H15.9886C16.0589 18.084 16.1296 18.0498 16.2008 17.9813C16.2711 17.9127 16.3062 17.8438 16.3062 17.7745V8.2297H1.69377V17.7745C1.69377 17.8438 1.72893 17.9127 1.79924 17.9813C1.87039 18.0498 1.94113 18.084 2.01144 18.084ZM1.69377 6.57905H16.3062V4.25725C16.3062 4.18791 16.2711 4.11898 16.2008 4.05046C16.1296 3.98194 16.0589 3.94768 15.9886 3.94768H2.01144C1.94113 3.94768 1.87039 3.98194 1.79924 4.05046C1.72893 4.11898 1.69377 4.18791 1.69377 4.25725V6.57905Z" fill="#80868B"/>
</svg>
