<svg width="26" height="24" viewBox="0 0 26 24" fill="none" xmlns="http://www.w3.org/2000/svg">
<path fill-rule="evenodd" clip-rule="evenodd" d="M8.18262 18C7.07805 18 6.18262 18.8954 6.18262 20C6.18262 21.1046 7.07805 22 8.18262 22C9.28719 22 10.1826 21.1046 10.1826 20C10.1826 18.8954 9.28719 18 8.18262 18ZM18.1826 18C17.078 18 16.1826 18.8954 16.1826 20C16.1826 21.1046 17.078 22 18.1826 22C19.2872 22 20.1826 21.1046 20.1826 20C20.1826 18.8954 19.2872 18 18.1826 18ZM15.7726 13H16.6026C17.3226 13 17.9826 12.61 18.3426 11.99L21.6226 6.24C21.8826 5.78 21.8826 5.2 21.6226 4.74C21.3626 4.28 20.8526 4 20.3226 4H6.72262L5.83262 2H2.18262V4H4.53262L8.07262 11.98L7.00262 14.11C6.69262 14.73 6.72262 15.46 7.09262 16.06C7.46262 16.66 8.09262 17.01 8.79262 17.01H20.1826V15.01H8.80262L9.80262 13.01H15.7726V13ZM19.4626 6L16.6026 11H9.83262L7.61262 6H19.4626Z" fill="#5F6368"/>
<circle cx="21" cy="5" r="5" fill="#1A73E8"/>
<path d="M19.2623 4.82016L19.1566 4.71447L19.0506 4.81979L18.6956 5.17229L18.5888 5.27836L18.6952 5.3848L20.0927 6.7823L20.1988 6.88836L20.3048 6.7823L23.3048 3.7823L23.4109 3.67623L23.3048 3.57016L22.9523 3.21766L22.8463 3.11165L22.7403 3.21761L20.1988 5.75665L19.2623 4.82016Z" fill="white" stroke="white" stroke-width="0.3"/>
</svg>
