<svg height="48" viewBox="0 0 69 48" width="69" xmlns="http://www.w3.org/2000/svg"><g fill="none"><path d="m66.6967742 7.50967742c-.7741936-2.94193548-3.0967742-5.26451613-6.0387097-6.07741936-5.3032258-1.43225806-26.5935484-1.43225806-26.5935484-1.43225806s-21.2903226 0-26.63225804 1.43225806c-2.94193548.77419355-5.22580645 3.0967742-6.03870967 6.07741936-1.39354839 5.34193548-1.39354839 16.49032258-1.39354839 16.49032258s0 11.1483871 1.43225806 16.4903226c.77419355 2.9419355 3.0967742 5.2645161 6.03870968 6.0774193 5.30322576 1.4322581 26.59354836 1.4322581 26.59354836 1.4322581s21.2903226 0 26.6322581-1.4322581c2.9419355-.7741935 5.2258064-3.0967742 6.0387097-6.0774193 1.3935484-5.3419355 1.3935484-16.4903226 1.3935484-16.4903226s0-11.1483871-1.4322581-16.49032258z" fill="#f00"/><path d="m27.0967742 34.1419355 17.8064516-10.1419355-17.8064516-10.1419355z" fill="#fff"/></g></svg>