<svg height="56" viewBox="0 0 79 56" width="79" xmlns="http://www.w3.org/2000/svg"><path d="m76.5849587 8.76129032c-.8889722-3.43225806-3.5558889-6.14193548-6.9339835-7.09032258-6.0894598-1.67096774-30.5361965-1.67096774-30.5361965-1.67096774s-24.4467367 0-30.58064517 1.67096774c-3.37809452.90322581-6.00056264 3.61290323-6.93398349 7.09032258-1.60015004 6.23225808-1.60015004 19.23870968-1.60015004 19.23870968s0 13.0064516 1.64459865 19.2387097c.88897224 3.432258 3.55588897 6.1419355 6.9339835 7.0903226 6.08945985 1.6709677 30.53619655 1.6709677 30.53619655 1.6709677s24.4467367 0 30.5806452-1.6709677c3.3780945-.9032258 6.0005626-3.6129033 6.9339835-7.0903226 1.60015-6.2322581 1.60015-19.2387097 1.60015-19.2387097s0-13.0064516-1.6445987-19.23870968zm-45.4709302 31.07096778v-23.6645162l20.4463616 11.8322581z" fill="#fff"/></svg>