<svg xmlns="http://www.w3.org/2000/svg" xmlns:xlink="http://www.w3.org/1999/xlink" viewBox="0 0 1314.7 914"><defs><style>.cls-1{fill:none;}.cls-2{isolation:isolate;}.cls-3{fill:#e0e0e0;}.cls-4{fill:#f5f5f5;}.cls-5{fill:#b3e4ff;}.cls-6{fill:#c4c4c4;}.cls-7{fill:#616161;}.cls-8{fill:#aaa;}.cls-9{clip-path:url(#clip-path);}.cls-10{fill:#cc8a5e;}.cls-11{clip-path:url(#clip-path-2);}.cls-12{fill:#1a73e8;}.cls-13{fill:#a46347;}.cls-14{fill:#68230e;}.cls-15{clip-path:url(#clip-path-3);}.cls-16{fill:#ffabab;}.cls-17{fill:#ea4335;}.cls-18{fill:#f9ca62;}.cls-19{fill:#fff;}.cls-20{fill:#a50e0e;}.cls-21{fill:#1e8e3e;}.cls-22{fill:#0d652d;}.cls-23{clip-path:url(#clip-path-4);}.cls-24{clip-path:url(#clip-path-5);}.cls-25{fill:#fbbc04;}.cls-26{fill:#0d3575;}.cls-27{clip-path:url(#clip-path-6);}.cls-28{opacity:0.55;}.cls-29{clip-path:url(#clip-path-7);}.cls-30{fill:#8e583d;}.cls-31{clip-path:url(#clip-path-8);}.cls-32{clip-path:url(#clip-path-9);}.cls-33{clip-path:url(#clip-path-10);}.cls-34{fill:#b56a5b;}.cls-35{opacity:0.3;mix-blend-mode:multiply;}</style><clipPath id="clip-path"><path class="cls-1" d="M886.59,435.71H470.45c-3.48,0-5.55-2.82-4.61-6.31l78.22-291.92a8.81,8.81,0,0,1,8-6.31H968.19c3.49,0,5.55,2.82,4.62,6.31L894.59,429.4A8.82,8.82,0,0,1,886.59,435.71Z"/></clipPath><clipPath id="clip-path-2"><path class="cls-1" d="M777.32,221s21.36,6,35.39,2,20.08-24.75,20.74-54.15,4-59.47-19.37-70.16S709.17,80,701.15,138.1s-4.81,90.6-4.81,90.6l-4.2,37s-46.41,2.6-75.33,9.66c-10.92,2.66-26.56,13-36.7,22.69-17.53,16.7-108.82,108.68-108.82,108.68l-14.7,44.77,60.13-2.67,82.86-69.5,12,66.16H792.69l26.73-68.16L857.13,449l35.79-1.52,15.37-50.11S869.67,308.66,865,300s-21.39-24.05-43.44-26.72-49.75-5.63-49.75-5.63Z"/></clipPath><clipPath id="clip-path-3"><path class="cls-1" d="M1139.4,350.69H943.89c-4.08,0-6.5-3.31-5.4-7.39l54.78-204.45a10.32,10.32,0,0,1,9.36-7.38h195.51c4.07,0,6.49,3.3,5.4,7.38L1148.76,343.3A10.35,10.35,0,0,1,1139.4,350.69Z"/></clipPath><clipPath id="clip-path-4"><path class="cls-1" d="M1008.14,213.68s17.05-30.64,46.7-40.87c8.19-2.83,22-3.25,24,2.75,2.52,7.44-4.75,19.12-12.11,24.12C1041.65,216.71,1008.14,213.68,1008.14,213.68Z"/></clipPath><clipPath id="clip-path-5"><path class="cls-1" d="M969.18,195.44S942.43,144.86,930,122.85c-15-26.72-16.78-56.1-5.16-59.67S961.14,70.36,970,118C977.78,159.37,969.18,195.44,969.18,195.44Z"/></clipPath><clipPath id="clip-path-6"><path class="cls-1" d="M393.44,736s.12.26.32.76c1.19,3,5.32,14.09,5.11,26.12,0,0,42.41-4.93,45.62-5.67s16.52-6.82,26.63-12.5-26.63-20.79-26.63-20.79Z"/></clipPath><clipPath id="clip-path-7"><path class="cls-1" d="M428.21,366.69s-18.86-3.7-26.45,7,1.11,23.67,21.27,21.82,21.27-10.91,21.27-10.91a18.24,18.24,0,0,0,13.87,17.75c14.43,4.07,19.05-7.4,19.05-7.4s1.11,22.94,1.66,27.75,6.66,5,7.4-1.3,7.58-12.95,7.58-12.95-5.91,30.7-2,33.48,10.73-3.33,9.06-13.5a112.2,112.2,0,0,1-1.66-16.28s14.61-27.74,7.95-51-38.1-28.3-54.74-18.86A65.25,65.25,0,0,0,428.21,366.69Z"/></clipPath><clipPath id="clip-path-8"><path class="cls-1" d="M463.72,748.52s-19.85,5.68-30.58,7.93c-9.19,1.93-25.4,4.21-25.4,4.21s-4.93-8.91-9.37-10.4l-4.43-1.48s-5.18-2.48-16.77,4.45-16.77,12.87-31.07,15.1-15.29-.74-21,1.73-15.39,6.25-14.4,10.71,1.61,7.21,1.61,7.21L479,787.89s-10.48-4.6-14.67-17.91C460.21,756.88,463.72,748.52,463.72,748.52Z"/></clipPath><clipPath id="clip-path-9"><ellipse class="cls-1" cx="271.75" cy="694.91" rx="42.91" ry="31.99"/></clipPath><clipPath id="clip-path-10"><path class="cls-1" d="M438,475s-46,67.9-50.92,78.26-.25,26.38,11.1,32.55c0,0-34.28,27.12-38.72,67.32s23.44,67,50.8,81.12c32.43,16.77,129.7-58.44,129.7-58.44s.74-16.77-27.12-44.88L515,529.8l-16.77-53.26Z"/></clipPath></defs><g class="cls-2"><g id="Yoga_Screen" data-name="Yoga Screen"><path class="cls-3" d="M316.2,41.59V485.78H33.1V41.59H316.2m.8-.8H32.3V486.58H317V40.79Z"/><rect class="cls-3" x="174.14" y="41.6" width="0.8" height="445.32"/><rect class="cls-3" x="32.54" y="263.86" width="284" height="0.8"/><rect class="cls-3" x="32.54" y="379.63" width="284" height="0.8"/><rect class="cls-3" x="32.54" y="152.6" width="284" height="0.8"/><circle class="cls-4" cx="1132.67" cy="519.69" r="60.59"/><circle class="cls-5" cx="98.94" cy="325.92" r="22.16"/><circle class="cls-3" cx="882.9" cy="711.86" r="22.16"/><circle class="cls-3" cx="1270.85" cy="665.41" r="9.75"/><circle class="cls-5" cx="87.53" cy="590.39" r="5.55"/><circle class="cls-5" cx="1050.17" cy="688.91" r="5.55"/><path class="cls-6" d="M881.41,448.67,943.85,592c5.3,12.16-1.14,18.71-14.4,18.71L606.78,600.48a6.65,6.65,0,0,0,6.12-9.26L553.44,451.87Z"/><polygon class="cls-7" points="907.79 509.17 577.57 509.27 599.63 560.27 913.89 523.51 907.79 509.17"/><path class="cls-8" d="M452.12,600.48v14.17h602.67a14.17,14.17,0,0,0-14.17-14.17Z"/><path class="cls-6" d="M1139.57,510.06H311.31c-8.67,0-13.81-7-11.49-15.7L418.44,56.6c2.33-8.67,11.24-15.7,19.9-15.7H1266.6c8.67,0,13.81,7,11.49,15.7L1159.47,494.36C1157.14,503,1148.23,510.06,1139.57,510.06Z"/><path class="cls-4" d="M1133.72,486.74H318.88c-5.13,0-8.17-4.16-6.8-9.29L424.68,57.24c1.37-5.13,6.65-9.29,11.78-9.29H1251.3c5.13,0,8.17,4.16,6.8,9.29L1145.5,477.45C1144.13,482.58,1138.85,486.74,1133.72,486.74Z"/><path class="cls-5" d="M886.59,435.71H470.45c-3.48,0-5.55-2.82-4.61-6.31l78.22-291.92a8.81,8.81,0,0,1,8-6.31H968.19c3.49,0,5.55,2.82,4.62,6.31L894.59,429.4A8.82,8.82,0,0,1,886.59,435.71Z"/><rect class="cls-6" x="347.6" y="468.69" width="537.32" height="1.21"/><g class="cls-9"><path class="cls-10" d="M777.32,221s21.36,6,35.39,2,20.08-24.75,20.74-54.15,4-59.47-19.37-70.16S709.17,80,701.15,138.1s-4.81,90.6-4.81,90.6l-4.2,37s-46.41,2.6-75.33,9.66c-10.92,2.66-26.56,13-36.7,22.69-17.53,16.7-108.82,108.68-108.82,108.68l-14.7,44.77,60.13-2.67,82.86-69.5,12,66.16H792.69l26.73-68.16L857.13,449l35.79-1.52,15.37-50.11S869.67,308.66,865,300s-21.39-24.05-43.44-26.72-49.75-5.63-49.75-5.63Z"/><g class="cls-11"><path class="cls-12" d="M750.73,331.58c10.6-36.77,37.14-64.54,65.22-71.66L809.41,255l-33.24,1a16.42,16.42,0,0,1,0,2c-1.3,14.93-21.35,27-44.77,27-23.1,0-40.84-11.76-40.08-26.39l-21.49.65c16.5,18.53,20,51.83,10.52,84.79-13.63,47.3-52.39,78.28-88.12,71-4.2-.86-7.09-2.62-10.77-4.44l-14.72,44.81,163.08,15,76.3-19.32V430.88c-1.84-.17-13.48-.07-15.3-.44C755,423.14,737.1,378.88,750.73,331.58Z"/></g><path class="cls-10" d="M634.5,448.35s32.53-1.53,39.64-18.3,27.44-72.16,30-75.72,8.64-3.05,8.64,1-11.18,94-11.18,94Z"/><path class="cls-10" d="M769.68,448.35s-32.52-1.53-39.64-18.3-7.28-70-8.32-74.3-8.48-5-8.88.38c-.31,4.06-11,93.23-11,93.23Z"/><polygon class="cls-13" points="777.32 220.96 763.27 211.15 774.56 244.01 777.32 220.96"/><polygon class="cls-13" points="819.42 377.32 808.15 359.13 797.9 430.31 819.42 377.32"/><polygon class="cls-13" points="599.58 379.32 594.93 361.5 569.67 404.18 599.58 379.32"/><polygon class="cls-13" points="712.84 356.13 701.99 449.71 694.49 435.2 712.84 356.13"/><path d="M791.61,168.47S779.5,206.64,772,227.07c-6.16,16.77-31.13,21.74-47.92,13.35s-16.43-15.76-16.43-15.76-18.49,20.55-38.75,9.69c-17.57-9.42-10.2-32.61,9.05-35.52,0,0-17.44-60.71-19.38-84S790.32,98.08,790.32,98.08l4.25,30s-16.58-11.39-23.69,3.47S791.61,168.47,791.61,168.47Z"/><path class="cls-14" d="M794,151.6a1,1,0,0,1-.81-.4l-9.82-13.29a1,1,0,0,1,1.61-1.19L794.8,150a1,1,0,0,1-.8,1.59Z"/></g><path class="cls-3" d="M1139.4,350.69H943.89c-4.08,0-6.5-3.31-5.4-7.39l54.78-204.45a10.32,10.32,0,0,1,9.36-7.38h195.51c4.07,0,6.49,3.3,5.4,7.38L1148.76,343.3A10.35,10.35,0,0,1,1139.4,350.69Z"/><g class="cls-15"><polygon class="cls-8" points="955.26 278.6 988.33 278.6 1002.14 351.36 931.97 351.36 955.26 278.6"/><rect class="cls-16" x="1003.9" y="298.49" width="162.85" height="52.34"/><ellipse class="cls-17" cx="1003.9" cy="324.72" rx="21.88" ry="26.12"/><path class="cls-14" d="M1003.9,335.34c-4.95,0-9-4.77-9-10.62s4-10.63,9-10.63,9,4.77,9,10.63S1008.85,335.34,1003.9,335.34Zm0-20.25c-4.4,0-8,4.32-8,9.63s3.58,9.62,8,9.62,8-4.32,8-9.62S1008.3,315.09,1003.9,315.09Z"/><path class="cls-18" d="M1022.84,350.83s13.57-4.32,13-24.16h145.4v24.91Z"/><rect class="cls-8" x="1045.96" y="247.04" width="162.85" height="52.34"/><ellipse class="cls-7" cx="1045.96" cy="273.27" rx="21.88" ry="26.12"/><path class="cls-6" d="M1046,284c-5,0-9.09-4.81-9.09-10.72s4.08-10.73,9.09-10.73,9.08,4.81,9.08,10.73S1051,284,1046,284Zm0-20.24c-4.35,0-7.88,4.27-7.88,9.52s3.53,9.52,7.88,9.52,7.87-4.27,7.87-9.52S1050.3,263.75,1046,263.75Z"/><path class="cls-7" d="M1064.89,299.38s13.58-4.32,13-24.16h145.4v24.91Z"/></g><path class="cls-3" d="M1110,472.15H908.67a3.18,3.18,0,0,1-3.14-4.3l10.59-39.53a6,6,0,0,1,5.45-4.3h201.36a3.19,3.19,0,0,1,3.14,4.3l-10.59,39.53A6,6,0,0,1,1110,472.15Z"/><path class="cls-19" d="M1125.69,414.44H924.33a3.18,3.18,0,0,1-3.14-4.3l10.59-39.53a6,6,0,0,1,5.45-4.3h201.36a3.18,3.18,0,0,1,3.14,4.3l-10.59,39.53A6,6,0,0,1,1125.69,414.44Z"/><path class="cls-12" d="M967.62,397.35l-3.89-3.82c-.33-.3-1.4,0-1.89.35h0a6.71,6.71,0,0,0-2.37,2.92,1.75,1.75,0,0,1-2,1.07,6.8,6.8,0,0,1-3.91-3,7.88,7.88,0,0,1-.9-5.32,1.8,1.8,0,0,1,1.64-1.47,6,6,0,0,0,3.36-1.14v0l.67-.43a1.32,1.32,0,0,0,.6-1.39l-1.72-5.35a1.6,1.6,0,0,0-1.65-.68s-.45,0-.6.06a4,4,0,0,0-1.54.67,8.53,8.53,0,0,0-2.76,3.71,21.59,21.59,0,0,0-1.29,3.83c-.89,3.6-.58,6.93,1.23,9.73,1.94,3,4.84,4.28,8.46,4.82a17.73,17.73,0,0,0,2.53.19c1.83,0,3,0,4.48-1a6.28,6.28,0,0,0,1.21-1.3l.31-.65A1.82,1.82,0,0,0,967.62,397.35Z"/><rect class="cls-8" x="984.94" y="391" width="112.16" height="2"/><rect class="cls-8" x="972.02" y="448.07" width="112.16" height="2"/><path class="cls-17" d="M953.71,444.45c1.45-5.38-1.75-9.75-7.13-9.75s-10.91,4.37-12.35,9.75a8.47,8.47,0,0,0,.22,5.49h0l4.62,11c.16.37.7.36,1,0l10.51-11.09h0A12.74,12.74,0,0,0,953.71,444.45Z"/><ellipse class="cls-20" cx="943.97" cy="444.45" rx="3.59" ry="2.75" transform="translate(-59.12 731.55) rotate(-41.18)"/><polygon class="cls-19" points="1040.31 286.45 1061.94 205.73 1106.35 245.78 1040.31 286.45"/><path class="cls-7" d="M629.22,276.14H400.63a2.9,2.9,0,0,1-2.8-3.65l7.74-28.88a2.91,2.91,0,0,1,2.8-2.15H637a2.9,2.9,0,0,1,2.8,3.66L632,274A2.9,2.9,0,0,1,629.22,276.14Z"/><path class="cls-6" d="M598.12,307.57H392.21a2.9,2.9,0,0,1-2.8-3.65l3.44-12.85a2.9,2.9,0,0,1,2.8-2.15H601.56a2.91,2.91,0,0,1,2.81,3.65l-3.45,12.85A2.89,2.89,0,0,1,598.12,307.57Z"/><ellipse class="cls-21" cx="467.54" cy="91.81" rx="12.45" ry="9.53" transform="translate(55.22 330.59) rotate(-41.18)"/><path class="cls-19" d="M1203.52,102.56h-688c-6,0-9.58-4.87-8-10.89h0c1.61-6,7.79-10.89,13.81-10.89h688c6,0,9.58,4.88,8,10.89h0C1215.72,97.69,1209.54,102.56,1203.52,102.56Z"/><rect class="cls-19" x="990.18" y="270.38" width="446.48" height="1" transform="translate(632.25 1369.97) rotate(-74.72)"/><path class="cls-21" d="M1008.14,213.68s17.05-30.64,46.7-40.87c8.19-2.83,22-3.25,24,2.75,2.52,7.44-4.75,19.12-12.11,24.12C1041.65,216.71,1008.14,213.68,1008.14,213.68Z"/><path class="cls-21" d="M969.18,195.44S942.43,144.86,930,122.85c-15-26.72-16.78-56.1-5.16-59.67S961.14,70.36,970,118C977.78,159.37,969.18,195.44,969.18,195.44Z"/><path class="cls-22" d="M964.86,278.87l-1-.24a551.25,551.25,0,0,0,4.36-84.08c-.41-15.6-3.37-41.28-10.47-66.55-8.25-29.43-20.2-51.4-34.53-63.55l.64-.76c14.49,12.27,26.55,34.42,34.86,64,7.11,25.35,10.09,51.13,10.5,66.8a563.31,563.31,0,0,1-3.84,80.17,188.34,188.34,0,0,1,23.84-40.76c16.44-21.43,45.31-49,89.49-58.86l.22,1c-43.89,9.76-72.58,37.2-88.91,58.5C972.35,257.63,964.93,278.66,964.86,278.87Z"/><g class="cls-23"><polygon class="cls-22" points="1053.51 208.14 1024.22 200.04 1031.6 183.44 1032.51 183.84 1025.61 199.39 1053.78 207.17 1053.51 208.14"/><polygon class="cls-22" points="1076.17 192.05 1045.98 187.08 1052.68 171.78 1053.6 172.18 1047.41 186.3 1076.33 191.07 1076.17 192.05"/></g><g class="cls-24"><polygon class="cls-22" points="967.07 172 948.7 160.69 949.22 159.84 966.72 170.61 975.36 155.71 976.22 156.21 967.07 172"/><rect class="cls-22" x="951.6" y="120.58" width="26.4" height="1" transform="translate(471.84 959.23) rotate(-66.69)"/><rect class="cls-22" x="932.91" y="80.29" width="1" height="33.71" transform="translate(543.58 950.79) rotate(-71.4)"/></g><rect class="cls-3" x="922.44" y="800.42" width="249.31" height="0.8"/><rect class="cls-3" x="518.21" y="846.41" width="108.92" height="0.8"/><rect class="cls-3" x="709.43" y="662.45" width="104.08" height="0.8"/><rect class="cls-3" x="38.95" y="667.29" width="65.35" height="0.8"/></g><g id="Yoga_Teacher" data-name="Yoga Teacher"><polygon class="cls-18" points="892.94 818.83 32.07 818.83 156.07 743.28 766.8 743.28 892.94 818.83"/><path class="cls-25" d="M718.32,793.53H465.26a722.85,722.85,0,0,1-72.81-3.68l-85.56-8.65H718.32a6.16,6.16,0,0,1,6.16,6.16h0A6.16,6.16,0,0,1,718.32,793.53Z"/><path class="cls-10" d="M420.07,394.8s-2,40.2.74,50.49c4.26,16.09,20.16,13.87,20.16,13.87v15.72s.56,10.91,16.28,12.57S488,475.62,488,475.62l2.15-36.19a9.31,9.31,0,0,0,5.06-8.38c0-6.11,2.22-56.41-23.86-63.81S421.92,372.24,420.07,394.8Z"/><path d="M428.21,366.69s-23.36-3.58-30.95,7.15.68,26.51,20.84,24.66,26.2-13.87,26.2-13.87a18.24,18.24,0,0,0,13.87,17.75c14.43,4.07,19.05-7.4,19.05-7.4s1.11,22.94,1.66,27.75,6.66,5,7.4-1.3,7.58-12.95,7.58-12.95-11.49,39.7-4.62,41.92c8,2.59,13.32-11.77,11.65-21.94a112.2,112.2,0,0,1-1.66-16.28s14.61-27.74,7.95-51-38.1-28.3-54.74-18.86A65.25,65.25,0,0,0,428.21,366.69Z"/><path d="M486.84,347.46s-28.11-4.63-32.37-30.33,23.12-30.33,28.11-8.33c0,0,5.74-22.37,27.19-20.9s21.82,27.19,21.82,27.19,12.76-2.22,14.24,10.36S536.4,341,536.4,341s10.54,10,4.07,23.49-33.48,14.61-44,1.29S486.84,347.46,486.84,347.46Z"/><path class="cls-26" d="M373.72,680s-81.62,17.51-122.56,29.84-60.66,31.32-54.49,54S227.49,788,227.49,788H414.9V750l4.19-4.43V695Z"/><path class="cls-26" d="M533.75,673.32s26.14,6.41,43.89,15.53,74.22,20.47,95.92,37,29.84,52.28-6.9,63.12l-208.61-1.23-.5-38.47-52,19.24,7.4-51.54Z"/><path class="cls-7" d="M431.17,443.05H420.81a9.06,9.06,0,0,1-9-9V398.22c0-.83-3-.83-3,0V434a12.05,12.05,0,0,0,12,12h10.36a1.5,1.5,0,0,0,0-3Z"/><g class="cls-27"><path class="cls-10" d="M373,735.8s20.22,5,28.85,8.66,25.39,4.21,25.39,4.21,5.76-7.43,9.38-10.4c4.92-4,9.61-4,21.2,3s16.77,12.87,31.07,15.1,15.29-.74,21,1.73,19.23,6.69,18.25,11.14-5.46,6.78-5.46,6.78L356,775.9Z"/><path class="cls-13" d="M394.68,741.74s22.19,5.92,35.38,15.66l38.59-7.52s-21.21,21-21.45,21.33S386.78,775,386.78,775Z"/></g><path class="cls-10" d="M641.14,683.06s5-4.44,8.14-5.92,7.76.37,15.53,3.88,9.25,5.37,7.77,7-8.32,1.85-11.65.55-5.18-2-7.4.37-5,8.14,4.25,12.95S668,705.8,668,705.8l7.58-5-1.48-6.66a37.09,37.09,0,0,1-5.36-7.21c-2.41-4.25-.56-8.32,1.48-7.77s2,1.73,3.88,3.46a97.57,97.57,0,0,1,7.71,8.69c.8,1.23,2.24,7.34,3,11.09.56,2.9-1.72,4.38-2.83,5.68a49.3,49.3,0,0,1-5.18,4.25,12,12,0,0,1-2.65,1s-20.28,3.14-26.69,2.15"/><path class="cls-10" d="M451.14,475.25s-22.17-.66-30.33-.56c-14.05.19-27.55,8.51-35.87,38.84s-27.56,95.06-27.56,95.06-19.6,9.06-39,28.85-39.83,41.42-39.83,41.42,9,25.28,13.2,22.07,13.93-14.42,14.91-15.41,63.38-38.83,76.45-46.23S405,607,405,607l11.84-30.83,97.89-31.07s13.81,64.11,16.77,74.47,4.68,18,17.75,27.13,71.27,46.85,71.27,46.85,5.67,8.63,9.61,15.53,12.75,14.85,20.47,18.25c6.16,2.71,23.43-6.41,24.9-7.4s2.22-14.3,1-18-13-8.41-13.71-8.91-1.82-.71-2.81.77-4.93-11.09-18.74-10.11c0,0-57.21-67.56-66.58-71.26,0,0-17.26-72-20.22-89.76s-10.35-39.2-34-43.4C499.71,475.59,451.14,475.25,451.14,475.25Z"/><g class="cls-28"><path class="cls-13" d="M641.38,712.28l6.55,5.7a1.09,1.09,0,0,0,1.81-.77l.27-5.43s-3.94-3.82-3.94-6.16a3.42,3.42,0,0,1,2.83-3.33,39.77,39.77,0,0,1,3.53,1.93s-1.21-2.75-.58-4.57,2.17-2.44,3.4-1.94c.62.25,2.15.87,2.33,1,.34.27,6.43,2.55,5.41,1.64-1.53-1.36-4-4.3-3-6.58a.26.26,0,0,1-.23.12c-.22,0-.63-.53-.63-.53L657.29,691s-16.9,4.76-18,12.45A12.7,12.7,0,0,0,641.38,712.28Z"/></g><path class="cls-13" d="M653.05,704.64a53.88,53.88,0,0,1,5,3.26c.74.74,1.06,1.09,1.06,2.82s-.62,12.32-.62,12.32,1.8-12.11,2-13.78a3,3,0,0,0-1.82-3c-.88-.53-7-3.7-7-3.7l.81,1.64Z"/><path class="cls-13" d="M654.54,697.48s10.7,4.5,11.66,5a4.26,4.26,0,0,1,2.49,4.5c-.15,3-1.11,12.82-1.11,12.82s2.44-12.64,2.68-14.09a4.14,4.14,0,0,0-2.49-4.47c-2.19-1-6.48-2.06-7.4-4.16s-2.34-.31-2.34-.31Z"/><g class="cls-28"><path class="cls-14" d="M677.05,712.06s1-6.69.89-7.95-.89-2.41-2.5-3.85L675,698.5s5.64,2.37,4.44,6.6A60,60,0,0,1,677.05,712.06Z"/></g><path class="cls-13" d="M392.7,564.94a5,5,0,0,1-.28,1.39c-3.13,9.64-31,49.53-27.83,84.79,3.33,37.36,60.29-75.08,57.7-74.34"/><path class="cls-12" d="M288.18,718.6s24.47,3.84,54.85,26c18.31,13.35,37.14-7.09,37.14-7.09A364.9,364.9,0,0,0,332.23,723C306.07,717.25,288.18,718.6,288.18,718.6Z"/><path d="M395.11,743.13c-.53-.21-53.49-21.27-89.49-24.19s-64.1,8.48-64.38,8.59l-.38-.92c.28-.12,28.65-11.6,64.84-8.67S395,742,395.48,742.2Z"/><path d="M462.72,749.78l-.41-.91c.59-.27,59.4-26.8,97.74-33.39s70.43,2.88,70.75,3l-.29.95c-.32-.09-32.15-9.5-70.29-2.94S463.31,749.52,462.72,749.78Z"/><polygon class="cls-4" points="99.8 875.11 302.76 874.78 356.93 848.21 326.82 848.03 253.51 868.7 99.8 875.11"/><path class="cls-8" d="M326.69,850.07l-56.85,24.46a1.56,1.56,0,0,1-2-.74l-2-3.9,63.67-26.75.09,2.26A4.85,4.85,0,0,1,326.69,850.07Z"/><polygon class="cls-7" points="225.72 843.04 329.53 843.14 265.86 869.89 225.72 843.04"/><path class="cls-8" d="M267.25,875.11H99.8a3.49,3.49,0,0,1-3.1-1.88l-47-90.65a3.5,3.5,0,0,1,3.11-5.1H220.27a3.5,3.5,0,0,1,3.1,1.89l47,90.64A3.5,3.5,0,0,1,267.25,875.11Z"/><ellipse class="cls-7" cx="439.21" cy="444.73" rx="7.86" ry="5.55"/><g class="cls-29"><path class="cls-8" d="M500.15,418.72a4.51,4.51,0,0,1-4.49-4.22c0-.27-2.06-27.56-23.48-41.45-16.8-10.9-42.74-6.06-43-6a4.5,4.5,0,0,1-1.71-8.84c1.21-.23,29.78-5.55,49.6,7.3,25.28,16.4,27.48,47.14,27.56,48.44a4.5,4.5,0,0,1-4.21,4.77Z"/></g><ellipse class="cls-7" cx="499.04" cy="415.33" rx="10.36" ry="13.13"/><ellipse class="cls-8" cx="501.9" cy="415.51" rx="8.23" ry="12.21"/><path d="M363.48,683.67s6.66,24.42,54.74,56.22l9,9.25a91.78,91.78,0,0,1-31.9-6.47C378.83,736,361.82,701.61,363.48,683.67Z"/><path d="M398.13,585.78h54L391.3,592s2-2.07,3.54-3.45C397.14,586.49,398.13,585.78,398.13,585.78Z"/><path class="cls-30" d="M441,459.16s5.86-.22,23.74-2.78L441,472.57Z"/><polygon class="cls-13" points="574.68 612.41 555.45 614.14 572.46 602.67 574.68 612.41"/><path class="cls-10" d="M463.79,748.21s-19.92,6-30.65,8.24c-9.19,1.93-25.4,4.21-25.4,4.21s-4.93-8.91-9.37-10.4l-4.43-1.48s-5.18-2.48-16.77,4.45-16.77,12.87-31.07,15.1-15.29-.74-21,1.73-13.48,4.12-14.4,10.58a10,10,0,0,0,1.61,7.34L479,787.89s-10.48-4.6-14.67-17.91C460.21,756.88,463.79,748.21,463.79,748.21Z"/><g class="cls-31"><path class="cls-13" d="M319.84,787.86s22.31-6.54,35-7.16,85.07-2,85.07-2l28.61-11.59L479,787.89Z"/></g><g class="cls-32"><path class="cls-10" d="M470.75,469.28s22.17-.66,30.33-.55c14.05.18,27.55,8.51,35.87,38.84s27.56,95.05,27.56,95.05,19.6,9.07,39,28.85a481,481,0,0,0,36.07,33.29s5-4.44,8.13-5.91,7.77.37,15.54,3.88,9.24,5.36,7.76,7-8.32,1.85-11.65.55-5.17-2-7.39.37-5,8.14,4.25,13,10.17,3.88,10.17,3.88l7.58-5-1.48-6.66a37.56,37.56,0,0,1-5.36-7.21c-2.4-4.26-.55-8.33,1.48-7.77s2,1.73,3.88,3.45a98.79,98.79,0,0,1,7.71,8.69c.8,1.24,2.24,7.35,3,11.1.55,2.9-1.73,4.38-2.84,5.67a48.57,48.57,0,0,1-5.17,4.26,12.24,12.24,0,0,1-2.66,1s-20.28,3.15-26.69,2.16-11.59-.25-15.78-3.45-11.84-14.06-12.82-15-65.35-38-78.42-45.38S516.86,601,516.86,601L505,570.2l-97.89-31.07s-13.81,64.11-16.77,74.47-4.69,18-17.75,27.12-71.27,46.85-71.27,46.85-5.67,8.63-9.61,15.54S279,718,271.26,721.35c-6.17,2.72-23.43-6.41-24.91-7.39s-2.21-14.31-1-18,13-8.42,13.71-8.91,1.82-.71,2.81.77,4.93-11.1,18.74-10.11c0,0,57.21-67.57,66.58-71.26,0,0,17.26-72,20.22-89.76s10.35-39.21,34-43.4C422.17,469.62,470.75,469.28,470.75,469.28Z"/><path class="cls-10" d="M280.75,677.09s-5-4.44-8.14-5.92-7.77.37-15.53,3.89-9.25,5.36-7.77,7,8.32,1.85,11.65.55,5.18-2,7.4.37,5,8.14-4.26,13-10.17,3.88-10.17,3.88l-7.58-5,1.48-6.66a37.09,37.09,0,0,0,5.36-7.21c2.41-4.26.56-8.33-1.48-7.77s-2,1.72-3.88,3.45a100.45,100.45,0,0,0-7.71,8.69c-.8,1.24-2.24,7.35-3,11.1-.56,2.9,1.72,4.38,2.83,5.67a48,48,0,0,0,5.18,4.25,12,12,0,0,0,2.65,1s20.28,3.14,26.69,2.16"/><g class="cls-28"><path class="cls-13" d="M280.51,706.31,274,712a1.09,1.09,0,0,1-1.81-.77l-.27-5.43s3.94-3.82,3.94-6.17a3.4,3.4,0,0,0-2.83-3.32,39.77,39.77,0,0,0-3.53,1.93s1.21-2.76.58-4.58-2.17-2.44-3.4-1.94c-.62.26-2.15.87-2.33,1-.34.27-6.43,2.55-5.41,1.64,1.53-1.36,4-4.3,3-6.58a.23.23,0,0,0,.27.1,2.11,2.11,0,0,0,.58-.49L264.6,685s16.9,4.77,18,12.46A12.69,12.69,0,0,1,280.51,706.31Z"/></g><path class="cls-13" d="M268.84,698.68a53.88,53.88,0,0,0-5,3.26c-.74.74-1.06,1.08-1.06,2.82s.62,12.32.62,12.32-1.8-12.12-2-13.78a3,3,0,0,1,1.82-3c.88-.53,7-3.7,7-3.7l-.81,1.64Z"/><path class="cls-13" d="M267.35,691.52s-10.7,4.5-11.66,5a4.27,4.27,0,0,0-2.49,4.5c.15,3,1.11,12.82,1.11,12.82s-2.44-12.63-2.68-14.08a4.14,4.14,0,0,1,2.49-4.47c2.19-1,6.47-2.07,7.4-4.16s2.34-.31,2.34-.31Z"/><g class="cls-28"><path class="cls-14" d="M244.84,706.1s-1-6.69-.89-8,.89-2.4,2.5-3.85l.43-1.76s-5.64,2.38-4.44,6.6A60.73,60.73,0,0,0,244.84,706.1Z"/></g></g><path class="cls-10" d="M438.07,475.31S392,542.87,387,553.23s-.25,26.38,11.1,32.55c0,0-34.28,27.12-38.72,67.32s23.92,66.08,50.8,81.12,129.7-58.44,129.7-58.44.74-16.77-27.12-44.88L515,529.8l-16.77-53.26Z"/><g class="cls-33"><path class="cls-12" d="M506.44,547.53a18.75,18.75,0,0,1-4.38-.68c-9.86-2.71-11.34-20.47-5.67-73.73H492S473.21,536,441.4,535.75s-16.27-36-10.11-45.86a168.69,168.69,0,0,0,8.63-15l-9.61-4-55,84.58-7.89,58.19h130l-1.16,0C497.73,590.67,502.67,564.78,506.44,547.53Z"/><path class="cls-16" d="M513.29,613.67h4.55l-1.72-70a8.13,8.13,0,0,1-1.38,1.37l0,.08Z"/><path class="cls-34" d="M514.74,545l-3.68-17s-2,7.76-4.62,19.57A12.24,12.24,0,0,0,514.74,545Z"/><g class="cls-35"><path class="cls-7" d="M497.43,613.67c8.41.23,10.87.31,15.85.22v-.22Z"/></g><path class="cls-16" d="M514.76,545.09l0-.08a12.24,12.24,0,0,1-8.3,2.52c-3.77,17.25-8.71,43.14-10.17,66.11l1.16,0h15.86Z"/><path class="cls-26" d="M514.76,545.09l0-.08a12.24,12.24,0,0,1-8.3,2.52c-3.77,17.25-8.71,43.14-10.17,66.11l1.16,0h15.86Z"/><path class="cls-26" d="M516.49,630.66H357s-31.81,73.48,8.87,98.38,89.76,16.77,89.76,16.77l92-61.15-4.44-25.15Z"/></g><path class="cls-34" d="M513.22,613.7l-.43,17.2h-2.1a14.42,14.42,0,0,1-14.42-14.42v-2.84Z"/><path d="M539.93,674.93s-19,11.83-25.51,27c0,0,22.18-18.36,41.07-22.13,0,0-5.13-1.68-6.79-2.21C546.47,676.84,539.93,674.93,539.93,674.93Z"/><path class="cls-12" d="M565.07,683.31s6,15.61,18.59,19.6,43.72,2.71,43.72,2.71Z"/><path class="cls-26" d="M444.31,586.28H398.13a.5.5,0,0,1,0-1h46.18a.5.5,0,0,1,0,1Z"/></g></g></svg>