<svg xmlns="http://www.w3.org/2000/svg" xmlns:xlink="http://www.w3.org/1999/xlink" viewBox="0 0 1314.7 914"><defs><style>.cls-1,.cls-30,.cls-31,.cls-39,.cls-40,.cls-42,.cls-43,.cls-46,.cls-47,.cls-48,.cls-49{fill:none;}.cls-2{isolation:isolate;}.cls-3{fill:#f5f5f5;}.cls-4{fill:#c4c4c4;}.cls-44,.cls-5{fill:#616161;}.cls-6{fill:#aaa;}.cls-7{fill:#009925;}.cls-8{fill:#fff;}.cls-9{fill:#b3e4ff;}.cls-10{clip-path:url(#clip-path);}.cls-11{fill:#ea4335;}.cls-12{fill:#e0e0e0;}.cls-13{fill:#1a73e8;}.cls-14{fill:#a50e0e;}.cls-15{clip-path:url(#clip-path-2);}.cls-16{fill:#e3f6ff;}.cls-17{fill:#0d652d;}.cls-18{fill:#fbbc04;}.cls-19{clip-path:url(#clip-path-3);}.cls-20{fill:#bf795e;}.cls-21{fill:#7c4937;}.cls-22{fill:#332821;}.cls-23{clip-path:url(#clip-path-4);}.cls-24{fill:#1e8e3e;}.cls-25{fill:#b76c55;}.cls-26{clip-path:url(#clip-path-5);}.cls-27{clip-path:url(#clip-path-6);}.cls-28{fill:#602f26;}.cls-29{clip-path:url(#clip-path-7);}.cls-30,.cls-48{stroke:#e0e0e0;}.cls-30,.cls-39,.cls-40,.cls-43,.cls-46,.cls-47,.cls-48,.cls-49{stroke-miterlimit:10;}.cls-31{stroke:#1a73e8;}.cls-31,.cls-42{stroke-linejoin:round;}.cls-32{clip-path:url(#clip-path-8);}.cls-33{fill:#68230e;}.cls-34{clip-path:url(#clip-path-9);}.cls-35{fill:#0d3575;}.cls-36{fill:#ffabab;}.cls-37{clip-path:url(#clip-path-10);}.cls-38{fill:#f9ca62;}.cls-39,.cls-40{stroke:#c4c4c4;stroke-width:1.21px;}.cls-40,.cls-47,.cls-49{stroke-linecap:round;}.cls-41{clip-path:url(#clip-path-11);}.cls-42{stroke:#050505;}.cls-43{stroke:#332821;}.cls-44{opacity:0.3;mix-blend-mode:multiply;}.cls-45{clip-path:url(#clip-path-12);}.cls-46{stroke:#616161;stroke-width:3px;}.cls-47{stroke:#aaa;stroke-width:5px;}.cls-48{stroke-width:0.8px;}.cls-49{stroke:#68230e;}</style><clipPath id="clip-path"><path class="cls-1" d="M1112.54,471.44H958.47a2.44,2.44,0,0,1-2.41-3.29L981.5,369.3a4.61,4.61,0,0,1,4.17-3.29h154.08a2.44,2.44,0,0,1,2.41,3.29l-25.45,98.85A4.59,4.59,0,0,1,1112.54,471.44Z"/></clipPath><clipPath id="clip-path-2"><path class="cls-1" d="M1169,257.09H1016.51a3.06,3.06,0,0,1-3-4.13l31.63-118a5.77,5.77,0,0,1,5.23-4.13H1202.8a3.06,3.06,0,0,1,3,4.13l-31.63,118A5.77,5.77,0,0,1,1169,257.09Z"/></clipPath><clipPath id="clip-path-3"><path class="cls-1" d="M919.47,436.08H635.21c-4.25,0-6.77-3.44-5.64-7.69l59-220.12a10.75,10.75,0,0,1,9.75-7.7H982.57c4.25,0,6.78,3.45,5.64,7.7l-59,220.12A10.76,10.76,0,0,1,919.47,436.08Z"/></clipPath><clipPath id="clip-path-4"><path class="cls-1" d="M152.4,434.69H121.88a18,18,0,0,1-14.13-6.87h0a18,18,0,0,1-3.84-11.1V406.49h66.67v9.94a18,18,0,0,1-3.36,10.46l-.21.29A18,18,0,0,1,152.4,434.69Z"/></clipPath><clipPath id="clip-path-5"><path class="cls-1" d="M738.08,801.81l.25.47a41.67,41.67,0,0,1,2.66,6.33c1.16,3.69-6.59,36.27-9.7,40s-23.69,9.12-30.09,11.65-10.29,8.93-10.29,13.59h53.58c6.21,0,10.49.19,17.86-12s26.79-36.69,28.93-42.32,1.36-11.46-3.11-15-15.72-8.93-15.72-8.93l-7.19-16.11"/></clipPath><clipPath id="clip-path-6"><path class="cls-1" d="M649.05,808.41s4.33,15.6-1.3,24.34-15.72,15.92-30.86,19.8-40.39,6.21-45.82,10.29a17,17,0,0,0-5.3,6.89c-.73,1.71.61,4.49,2.47,4.51l111.31.21a5.08,5.08,0,0,0,4.9-3.57c1.81-5.89,5.08-17.71,4.66-25.32-.59-10.48-3.56-15.14-4.73-18.06s.39-14.56.39-14.56Z"/></clipPath><clipPath id="clip-path-7"><path class="cls-1" d="M364.91,318.32c-6,7.86-10.71,26.05-10.82,44.39-.11,19,3.09,29.82,11.37,33.57,6.63,3,19.66,1.44,19.66,1.44l.33,18.88L428,412l-.11-23.63s-5.27,0-2-17.67,3.24-60.37-19.43-65.37C399.66,303.8,382.14,295.79,364.91,318.32Z"/></clipPath><clipPath id="clip-path-8"><path class="cls-1" d="M652.8,228.54a82.48,82.48,0,0,0-14.91,19.1c-6.51,11.6-36.55,72.67-36.55,72.67s-4-2.43-22.31-3.65-42.62-3.86-45.82-4.52-10.16-4.86-21.32-4.53-29.92-2.1-33.46,2.32-5.41,9.27-6.73,12.25a9,9,0,0,0-.45,5.59.33.33,0,0,0,.44.23l5.64-2.06,3.42.55s-3.09,3.42-3.09,7a80.46,80.46,0,0,0,1.69,12.26c.44,2.09,4.79,2.8,7.07-1.7a13.25,13.25,0,0,0,1.62-7.87l9.17-.92s10.38,2.83,16.89,2.39,9.13-3,9.13-3l54.15,20.61s25.4,11.38,38.1,2.76,47.59-51.79,47.59-51.79Z"/></clipPath><clipPath id="clip-path-9"><path class="cls-1" d="M285.79,579.16c-2.45-.31-67.65,0-73.15,0s-15.31,4.9-18.06,25.1-28.16,164.66-34.89,183.33-8.57,31.22-24.8,40.1-62.13,21.12-68.86,22-6.12,9.18-4,10.1,94.57,0,107.74,0,23.56-5.21,23-14.69-8.57-32.45-1.22-48.36,58.46-101,68.86-130.7S285.79,579.16,285.79,579.16Z"/></clipPath><clipPath id="clip-path-10"><path class="cls-1" d="M656.78,643.64l79.35,159s23.63-2.43,30-19.66c0,0-3.74-78.15-6.47-102.24-4.42-38.87-26.06-70.23-31.14-74.65,0,0,12.81-50.8,18.11-77.08s9.93-52.57,9.93-52.57L687,501Z"/></clipPath><clipPath id="clip-path-11"><path class="cls-1" d="M593.68,153.78s16.3,46.29,25.18,56.1c9.87,10.89,27.68-.15,27.68-.15s6.33,10,5.45,15.76S638.74,256.11,638.3,263s51.09-50.5,51.09-50.5l-8.54-19.73s.88-47-6.18-60.81-21.06-21.79-39.32-15.9-26.27,8.74-36.37,18.84C592.21,141.71,593.68,153.78,593.68,153.78Z"/></clipPath><clipPath id="clip-path-12"><path class="cls-1" d="M258.85,588c-2.45-.31-67.64,0-73.15,0s-15.3,4.89-18.06,25.09S139.48,777.8,132.75,796.47s-8.57,31.22-24.79,40.1-62.13,21.11-68.87,22-6.12,9.18-4,10.1,94.58,0,107.74,0,23.57-5.2,23-14.69-8.57-32.44-1.23-48.36S223,704.65,233.45,675,258.85,588,258.85,588Z"/></clipPath></defs><g class="cls-2"><g id="Hair_Salon_Screen" data-name="Hair Salon Screen"><polygon class="cls-3" points="58.13 439.76 32.21 483.19 32.21 439.17 58.13 439.76"/><path class="cls-4" d="M881.41,448.67,943.85,592c5.3,12.16-1.14,18.71-14.4,18.71L606.78,600.48a6.65,6.65,0,0,0,6.12-9.26L553.44,451.87Z"/><polygon class="cls-5" points="907.79 509.17 577.57 509.27 599.63 560.27 913.89 523.51 907.79 509.17"/><path class="cls-6" d="M452.12,600.48v14.17h602.67a14.17,14.17,0,0,0-14.17-14.17Z"/><path class="cls-4" d="M1139.57,510.06H311.31c-8.67,0-13.81-7-11.49-15.7L418.44,56.6c2.33-8.67,11.24-15.7,19.9-15.7H1266.6c8.67,0,13.81,7,11.49,15.7L1159.47,494.36C1157.14,503,1148.23,510.06,1139.57,510.06Z"/><path class="cls-3" d="M1133.72,486.74H318.88c-5.13,0-8.17-4.16-6.8-9.29L424.68,57.24c1.37-5.13,6.65-9.29,11.78-9.29H1251.3c5.13,0,8.17,4.16,6.8,9.29L1145.5,477.45C1144.13,482.58,1138.85,486.74,1133.72,486.74Z"/><ellipse class="cls-7" cx="467.54" cy="91.81" rx="12.45" ry="9.53" transform="translate(55.22 330.59) rotate(-41.18)"/><path class="cls-8" d="M1203.52,102.56h-688c-6,0-9.58-4.87-8-10.89h0c1.61-6,7.79-10.89,13.81-10.89h688c6,0,9.58,4.88,8,10.89h0C1215.72,97.69,1209.54,102.56,1203.52,102.56Z"/><path class="cls-9" d="M1169,257.09H1016.59a3.06,3.06,0,0,1-3-4.13l31.63-118a5.77,5.77,0,0,1,5.23-4.13h152.45a3.06,3.06,0,0,1,3,4.13l-31.63,118A5.78,5.78,0,0,1,1169,257.09Z"/><path class="cls-4" d="M927.77,473.27H351.25a5.9,5.9,0,0,1-4.84-2.21,6.28,6.28,0,0,1-.89-5.58L433.19,138.3a10.48,10.48,0,0,1,9.49-7.48H1019.2A5.93,5.93,0,0,1,1024,133a6.28,6.28,0,0,1,.89,5.58L937.26,465.8A10.47,10.47,0,0,1,927.77,473.27ZM442.68,132a9.21,9.21,0,0,0-8.33,6.58L346.69,465.8a5.1,5.1,0,0,0,.68,4.53,4.73,4.73,0,0,0,3.88,1.73H927.77a9.21,9.21,0,0,0,8.33-6.58l87.66-327.18a5.09,5.09,0,0,0-.68-4.53,4.74,4.74,0,0,0-3.88-1.74Z"/><path class="cls-8" d="M1156.06,307.46H1002a2.44,2.44,0,0,1-2.41-3.29l8.11-30.25a4.6,4.6,0,0,1,4.16-3.29h154.08a2.44,2.44,0,0,1,2.41,3.29l-8.11,30.25A4.59,4.59,0,0,1,1156.06,307.46Z"/><path class="cls-8" d="M1112.54,471.44H958.47a2.44,2.44,0,0,1-2.41-3.29L981.5,369.3a4.61,4.61,0,0,1,4.17-3.29h154.08a2.44,2.44,0,0,1,2.41,3.29l-25.45,98.85A4.59,4.59,0,0,1,1112.54,471.44Z"/><g class="cls-10"><polygon class="cls-11" points="973.02 389.12 1142.02 389.12 1148.6 361.78 978.67 361.78 973.02 389.12"/></g><path class="cls-12" d="M1143.28,355.19H989.2a2.44,2.44,0,0,1-2.41-3.29l8.11-30.25a4.59,4.59,0,0,1,4.17-3.29h154.07a2.44,2.44,0,0,1,2.41,3.29l-8.1,30.25A4.61,4.61,0,0,1,1143.28,355.19Z"/><path class="cls-13" d="M1035,293.84l-3-2.92c-.25-.23-1.07,0-1.44.27h0a5.08,5.08,0,0,0-1.82,2.23,1.34,1.34,0,0,1-1.51.82,5.2,5.2,0,0,1-3-2.32,6.08,6.08,0,0,1-.69-4.07,1.38,1.38,0,0,1,1.26-1.12,4.57,4.57,0,0,0,2.57-.88v0l.52-.33a1,1,0,0,0,.45-1.06l-1.31-4.09a1.2,1.2,0,0,0-1.26-.52l-.47,0a3,3,0,0,0-1.17.51,6.57,6.57,0,0,0-2.11,2.84,16.6,16.6,0,0,0-1,2.93,9.26,9.26,0,0,0,.94,7.45c1.49,2.31,3.71,3.27,6.47,3.68a12.58,12.58,0,0,0,1.94.15,5.17,5.17,0,0,0,3.43-.77,4.82,4.82,0,0,0,.92-1l.24-.5A1.42,1.42,0,0,0,1035,293.84Z"/><rect class="cls-6" x="436.1" y="212.72" width="230.77" height="1"/><rect class="cls-6" x="428.4" y="241.48" width="230.77" height="1"/><rect class="cls-6" x="420.69" y="270.24" width="230.77" height="1"/><rect class="cls-6" x="412.98" y="298.99" width="230.77" height="1"/><rect class="cls-6" x="405.28" y="327.75" width="230.77" height="1"/><rect class="cls-6" x="397.57" y="356.5" width="230.77" height="1"/><rect class="cls-6" x="389.87" y="385.26" width="230.77" height="1"/><rect class="cls-6" x="382.16" y="414.02" width="230.77" height="1"/><rect class="cls-6" x="1048.24" y="288.75" width="85.82" height="2"/><rect class="cls-6" x="1037.67" y="336.53" width="85.82" height="2"/><path class="cls-8" d="M1074.35,379.85H988.53a1,1,0,0,1,0-2h85.82a1,1,0,0,1,0,2Z"/><path class="cls-11" d="M1023.66,334c1.11-4.12-1.34-7.46-5.45-7.46a10.44,10.44,0,0,0-9.46,7.46,6.6,6.6,0,0,0,.17,4.2h0l3.54,8.44c.12.27.53.27.8,0l8-8.48h0A9.89,9.89,0,0,0,1023.66,334Z"/><ellipse class="cls-14" cx="1016.21" cy="333.99" rx="2.75" ry="2.11" transform="translate(31.49 751.79) rotate(-41.18)"/><path class="cls-12" d="M755.12,181.91h-301c-7.85,0-12.5-4.86-10.4-10.86h0c2.1-6,10.17-10.87,18-10.87h301c7.85,0,12.51,4.87,10.4,10.87h0C771,177.05,763,181.91,755.12,181.91Z"/><g class="cls-15"><polygon class="cls-16" points="1087.25 231.55 1176.88 256.07 1183.49 231.41 1087.25 231.55"/><path class="cls-17" d="M1128.25,182.11h-7.42l3.36-12.54a2.42,2.42,0,0,1,2.2-1.74h3.95a1.29,1.29,0,0,1,1.27,1.74Z"/><path class="cls-8" d="M1125.17,180.3h0c-6.54,0-13.26,5.3-15,11.84l-7.8,29.12H1126l7.81-29.12C1135.59,185.6,1131.71,180.3,1125.17,180.3Z"/><polygon class="cls-17" points="1117.43 213.65 1104.47 213.65 1109.49 194.91 1122.45 194.91 1117.43 213.65"/><path class="cls-13" d="M1190.65,221.26h-36.5c-9.73,0-15.51-7.88-12.9-17.61H1213C1210.38,213.38,1200.38,221.26,1190.65,221.26Z"/><path class="cls-8" d="M1209.36,232.4H1072.59a1.66,1.66,0,0,1-1.61-2.1l2.09-7.8a1.66,1.66,0,0,1,1.61-1.24h136.77a1.67,1.67,0,0,1,1.61,2.1l-2.09,7.8A1.68,1.68,0,0,1,1209.36,232.4Z"/><circle class="cls-16" cx="1061.14" cy="149.6" r="54.33"/></g><rect class="cls-8" x="990.18" y="270.38" width="446.48" height="1" transform="translate(632.25 1369.97) rotate(-74.72)"/><path class="cls-12" d="M316.08,42.42V674.68H33V42.42h283.1m.8-.8H32.18V675.48h284.7V41.62Z"/><rect class="cls-12" x="106.47" y="152.9" width="237.61" height="0.8" transform="translate(-45.77 181.36) rotate(-40.15)"/><rect class="cls-12" x="9.63" y="409.83" width="197.32" height="0.8" transform="translate(-238.98 166.47) rotate(-40.15)"/><rect class="cls-12" x="886.09" y="776.46" width="290.36" height="0.8"/><rect class="cls-12" x="867.46" y="705.7" width="90.17" height="0.8"/><rect class="cls-12" x="1066.77" y="614.1" width="118.42" height="0.8"/><rect class="cls-12" x="363.23" y="762.23" width="132.39" height="0.8"/><path class="cls-18" d="M919.47,436.08H635.21c-4.25,0-6.77-3.44-5.64-7.69l59-220.12a10.75,10.75,0,0,1,9.75-7.7H982.57c4.25,0,6.78,3.45,5.64,7.7l-59,220.12A10.76,10.76,0,0,1,919.47,436.08Z"/><g class="cls-19"><path class="cls-8" d="M778.48,390.45a24.36,24.36,0,1,1,24.36-24.36A24.38,24.38,0,0,1,778.48,390.45Zm0-46.72a22.36,22.36,0,1,0,22.36,22.36A22.38,22.38,0,0,0,778.48,343.73Z"/><path class="cls-20" d="M858.85,347s-9.18,11.79-1.2,13.21c9.58,1.7,20.45-16.61,16.82-21.09s-4.26-4.9-4.26-4.9Z"/><ellipse class="cls-20" cx="794.1" cy="247.16" rx="38.91" ry="37.35"/><path class="cls-21" d="M833.29,232.68s-33.51-4.55-48.56,21.58-28.89,57.4-29.82,69.87c-.86,11.36,12.78,20.73,28.4,22.15l-13.07,38.35s-.67,14.28,29.82,16.18c31.81,2,45.16-10.5,45.16-10.5l14.49-42.89s16.47-13.92,23.57-25.28,14.77-57.08-2.84-72.7C863.57,234.47,843.8,235.52,833.29,232.68Z"/><path class="cls-13" d="M796.2,436.86l137.74-.35s5.72-65-130.08-65h-6c-125,0-130.08,65-130.08,65l120.71.35v0h7.66Z"/><path class="cls-20" d="M818.81,238.07s-15.48,13.51-3.34,33.09c9.37,15.13,31.46,14.63,31.46,14.63s-36.64,5.11-40.9,36.35,22.72,37.21,42.32,28.12,24.14-39.19,24.14-39.19l13.63,2.27s9.09-15.62,17.89-34.94,4-48.28-19.88-55.66S829.6,229,829.6,229s-18.74-1.42-35.5,13.91C794.1,242.9,802.62,238.64,818.81,238.07Z"/><path class="cls-21" d="M872.49,311.07s7.38-13.92,18.46-7.39,1.42,32.09-17,28.69Z"/><circle class="cls-8" cx="877.88" cy="335.77" r="9.66"/><path class="cls-8" d="M878.17,390.45a24.36,24.36,0,1,1,24.36-24.36A24.38,24.38,0,0,1,878.17,390.45Zm0-46.72a22.36,22.36,0,1,0,22.36,22.36A22.38,22.38,0,0,0,878.17,343.73Z"/></g><polygon class="cls-22" points="783.31 346.28 802.54 347.05 778.52 360.23 783.31 346.28"/><path class="cls-8" d="M896.65,263.09l.28-.14a24.21,24.21,0,0,0,10.94-11.08h0l.08.17a24.22,24.22,0,0,0,10.57,10.76l.56.29-1.24.69a24.17,24.17,0,0,0-9.6,9.83l-.37.69-.59-1.07a24.23,24.23,0,0,0-10.22-9.93Z"/><path class="cls-8" d="M915.1,236.85l.13-.07a11.63,11.63,0,0,0,5.26-5.32h0l0,.08a11.65,11.65,0,0,0,5.08,5.17l.27.14-.6.33a11.7,11.7,0,0,0-4.61,4.72l-.18.34-.28-.52A11.7,11.7,0,0,0,915.3,237Z"/><path class="cls-4" d="M137,131.28l.35-.18a30.3,30.3,0,0,0,13.68-13.86h0l.1.2a30.26,30.26,0,0,0,13.24,13.47l.69.37-1.55.86a30.32,30.32,0,0,0-12,12.29l-.46.88-.74-1.35a30.31,30.31,0,0,0-12.78-12.42Z"/><path class="cls-4" d="M228.66,237.5l.48-.25a42.36,42.36,0,0,0,19.16-19.4h0l.14.28A42.42,42.42,0,0,0,267,237l1,.51-2.17,1.21A42.44,42.44,0,0,0,249,255.92l-.65,1.23-1-1.89a42.44,42.44,0,0,0-17.89-17.39Z"/><path class="cls-3" d="M1049.07,724l.34-.18a30.37,30.37,0,0,0,13.69-13.86h0l.1.2a30.24,30.24,0,0,0,13.23,13.47l.7.37-1.55.86a30.32,30.32,0,0,0-12,12.29l-.46.88-.74-1.35a30.31,30.31,0,0,0-12.78-12.42Z"/><path class="cls-12" d="M88.55,323.75l.16-.08A13.93,13.93,0,0,0,95,317.3h0l0,.09a14,14,0,0,0,6.1,6.2l.32.16-.72.4a14,14,0,0,0-5.53,5.66l-.21.4-.34-.62a13.9,13.9,0,0,0-5.88-5.71Z"/><path class="cls-8" d="M1138.45,170.5l.44-.23a38.82,38.82,0,0,0,17.56-17.78h0l.13.25a38.86,38.86,0,0,0,17,17.29l.89.47-2,1.11a39,39,0,0,0-15.42,15.77l-.6,1.12-.94-1.73a39,39,0,0,0-16.4-15.94Z"/><path class="cls-8" d="M1125.37,149.55l.2-.1a17.46,17.46,0,0,0,7.86-8h0l.06.11a17.45,17.45,0,0,0,7.6,7.74l.4.21-.89.49a17.37,17.37,0,0,0-6.9,7.06l-.27.5-.42-.77a17.46,17.46,0,0,0-7.34-7.13Z"/><rect class="cls-4" x="94.45" y="293.86" width="1.21" height="20.41"/><rect class="cls-4" x="64.61" y="323.07" width="20.41" height="1.21"/><rect class="cls-4" x="93.82" y="333.71" width="1.21" height="20.41"/><rect class="cls-4" x="104.46" y="323.7" width="20.41" height="1.21"/><rect class="cls-4" x="1208.27" y="501.18" width="1.21" height="17.13" transform="translate(-6.37 1004.1) rotate(-45)"/><rect class="cls-4" x="1199.93" y="532.79" width="17.13" height="1.21" transform="translate(-23.21 1010.76) rotate(-45)"/><rect class="cls-4" x="1231.54" y="525.21" width="1.21" height="17.13" transform="translate(-16.55 1027.6) rotate(-45)"/><rect class="cls-4" x="1223.96" y="509.52" width="17.13" height="1.21" transform="translate(0.28 1020.94) rotate(-45)"/><path class="cls-12" d="M1108.66,461.56H967.24l.13-.5,16.15-65.27h141.42l-.12.5Zm-140.4-.81H1108l15.88-64.16H984.15Z"/><path class="cls-12" d="M1085.66,461.56H989.21l.12-.5,16.16-65.27h96.45l-.13.5Zm-95.43-.81H1085l15.88-64.16h-94.8Z"/><rect class="cls-12" x="980.13" y="411.77" width="140.28" height="0.8"/><rect class="cls-12" x="976.16" y="427.98" width="140.28" height="0.8"/><rect class="cls-12" x="972.31" y="444.32" width="140.28" height="0.8"/><path class="cls-12" d="M1062.14,461.56h-50.38l.13-.5L1028,395.79h50.38l-.13.5Zm-49.35-.81h48.72l15.88-64.16h-48.72Z"/><rect class="cls-12" x="1011.69" y="428.27" width="66.92" height="0.8" transform="translate(379.03 1341.02) rotate(-76.17)"/><path class="cls-6" d="M63.08,354h8.46a2,2,0,0,1,2,2v20a0,0,0,0,1,0,0H61.07a0,0,0,0,1,0,0V356A2,2,0,0,1,63.08,354Z"/><path class="cls-12" d="M67.62,373.11h0a21.76,21.76,0,0,1,21.76,21.76v40.72a0,0,0,0,1,0,0H45.86a0,0,0,0,1,0,0V394.87A21.76,21.76,0,0,1,67.62,373.11Z"/><path class="cls-12" d="M152.4,434.69H121.88a18,18,0,0,1-14.13-6.87h0a18,18,0,0,1-3.84-11.1V406.49h66.67v9.94a18,18,0,0,1-3.36,10.46l-.21.29A18,18,0,0,1,152.4,434.69Z"/><rect class="cls-8" x="59.75" y="397.47" width="29.63" height="15.63"/><rect class="cls-8" x="59.77" y="420.91" width="29.61" height="5.86"/><g class="cls-23"><rect class="cls-6" x="99.41" y="401.68" width="75.55" height="13.03"/></g><rect class="cls-4" x="32.17" y="434.96" width="168.36" height="9.76"/><polygon class="cls-24" points="1069.55 427.97 1093.91 427.97 1089.72 445.17 1065.35 445.17 1069.55 427.97"/></g><g id="Hair_Salon" data-name="Hair Salon"><path class="cls-25" d="M738.08,801.81l.25.47a41.67,41.67,0,0,1,2.66,6.33c1.16,3.69-6.59,36.27-9.7,40s-23.69,9.12-30.09,11.65-10.29,8.93-10.29,13.59h53.58c6.21,0,10.49.19,17.86-12s26.79-36.69,28.93-42.32,1.36-11.46-3.11-15-15.72-8.93-15.72-8.93l-7.19-16.11"/><g class="cls-26"><path class="cls-5" d="M722.75,849.35s1.73,7,14.17,6.4c8.35-.39,12.62-3.3,17.28-11.45s27.66-54,27.66-54l22.62,23-54.94,75.13s-74.87-6.11-74.87-7.08,16.07-40.64,16.65-40.64S722.75,849.35,722.75,849.35Z"/></g><path class="cls-25" d="M649.05,808.41s4.33,15.6-1.3,24.34-15.72,15.92-30.86,19.8-40.39,6.21-45.82,10.29a17,17,0,0,0-5.3,6.89,2.62,2.62,0,0,0,2.39,3.63l111.39,1.09a5.08,5.08,0,0,0,4.9-3.57c1.81-5.89,5.08-17.71,4.66-25.32-.59-10.48-3.56-15.14-4.73-18.06s.39-14.56.39-14.56Z"/><g class="cls-27"><path class="cls-5" d="M615.53,850s-12.82,5.83,4.27,7,71.25-9.12,71.25-9.12l-3.5,32.61L560,876.43l-3.88-15.53Z"/></g><path d="M426.32,307.59s3.2-7.82-2.31-12a15.87,15.87,0,0,0-11.18-3.22s4.7-12.09-4.67-17.15-18.07,2.09-18.07,2.09-8.77-17.54-27.28-14.46c-24.73,4.13-19.73,26.8-19.73,26.8s-15-.23-16.4,13.64c-1.13,11.24,9.34,17,9.34,17s-8.19,12.83,2.2,22.16a19.32,19.32,0,0,0,23.89,2.33l40.34-24.32Z"/><path class="cls-28" d="M364.91,318.32c-6,7.86-10.71,26.05-10.82,44.39-.11,19,3.09,29.82,11.37,33.57,6.63,3,19.66,1.44,19.66,1.44l.33,18.88L428,412l-.11-23.63s-5.27,0-2-17.67,3.24-60.37-19.43-65.37C399.66,303.8,382.14,295.79,364.91,318.32Z"/><path d="M364.8,315s10.63.71,14.47,14.68c2.7,9.84,3.47,21.81,3.68,26.43a1.93,1.93,0,0,0,2,1.84h0a2,2,0,0,0,1.82-1.85c.2-4.38,1.5-15.49,9.57-15,10.05.55,12.7,22.86-3,26.72,0,0-1.21,13.36,5.08,15s8.84-2.76,8.84-2.76,4.35,11.82,13.8,11.48c9.28-.33,9.72-7.17,9.72-7.17s2.65,6.4,12.7,5.3,13.14-1.84,13.14-1.84l8.17-5.89,19.33-4.53s11.48-4,9.27-20.76-17.12-18.33-20.1-16.9c0,0-1-10.46-9.83-13-7.61-2.21-11.7,2.43-11.7,2.43s3.86-16.34-5.74-23.08c-5.55-3.89-12.37-2.65-12.37-2.65s-.22-11.81-13.92-13.36-27.49,11.82-27.49,11.82S368.11,301.31,364.8,315Z"/><g class="cls-29"><line class="cls-30" x1="349.27" y1="360.36" x2="387.84" y2="350.05"/><path class="cls-30" d="M393.4,367.79s-5.56,23-36.77,26.14"/><polygon class="cls-12" points="370.47 355.06 374 389.51 352.21 395.99 340.73 362.12 370.47 355.06"/></g><path class="cls-13" d="M477.72,325l-35.07,16.79s-3.64,1.71-2.76,4.91,1.22,4.25,1.22,4.25L484,331.13l-2.43-5.91Z"/><polygon class="cls-22" points="385.12 397.72 394.62 395.84 385.27 411.6 385.12 397.72"/><path class="cls-25" d="M652.8,228.54a82.48,82.48,0,0,0-14.91,19.1c-6.51,11.6-36.55,72.67-36.55,72.67s-4-2.43-22.31-3.65-42.62-3.86-45.82-4.52-10.16-4.86-21.32-4.53-29.92-2.1-33.46,2.32-5.41,9.27-6.73,12.25a9,9,0,0,0-.45,5.59.33.33,0,0,0,.44.23l5.64-2.06,3.42.55s-3.09,3.42-3.09,7a80.46,80.46,0,0,0,1.69,12.26c.44,2.09,4.79,2.8,7.07-1.7a13.25,13.25,0,0,0,1.62-7.87l9.17-.92s10.38,2.83,16.89,2.39,9.13-3,9.13-3l54.15,20.61s25.4,11.38,38.1,2.76,47.59-51.79,47.59-51.79Z"/><line class="cls-31" x1="463.14" y1="339.02" x2="467.17" y2="351.61"/><line class="cls-31" x1="470.76" y1="334.99" x2="472.8" y2="341.68"/><g class="cls-32"><path class="cls-33" d="M548.63,348.28s27.51-8.34,40.93-16.34c25.18-15,33.87-44.76,33.87-44.76l2.21-1.33-29.31,68.62-35.77,5.15Z"/></g><path class="cls-33" d="M479.5,327.67s1.16-1.08,1.25-1.18c.67-.69,3-3.4,5.52-5.67l-1.51-.35a4.9,4.9,0,0,0-5.15,2L477,326.34"/><path class="cls-28" d="M285.79,579.16c-2.45-.31-67.65,0-73.15,0s-15.31,4.9-18.06,25.1-28.16,164.66-34.89,183.33-8.57,31.22-24.8,40.1-62.13,21.12-68.86,22-6.12,9.18-4,10.1,94.57,0,107.74,0,23.56-5.21,23-14.69-8.57-32.45-1.22-48.36,58.46-101,68.86-130.7S285.79,579.16,285.79,579.16Z"/><g class="cls-34"><path class="cls-22" d="M173.46,786.22C175.37,782.54,228.4,713,228.4,713l33-6.89,15.15-39.94-74.37-5.51Z"/><path class="cls-22" d="M152,809.25s33.06,41.32,21.35,62-45.45,1.37-45.45,1.37Z"/></g><rect class="cls-5" x="57.44" y="859.66" width="125.74" height="5.89" rx="2.94"/><path class="cls-28" d="M258.85,588c-2.45-.31-67.64,0-73.15,0s-15.3,4.89-18.06,25.09S139.48,777.8,132.75,796.47s-8.57,31.22-24.79,40.1-62.13,21.11-68.87,22-6.12,9.18-4,10.1,94.58,0,107.74,0,23.57-5.2,23-14.69-8.57-32.44-1.23-48.36S223,704.65,233.45,675,258.85,588,258.85,588Z"/><rect class="cls-5" x="32.17" y="868.2" width="125.74" height="5.89" rx="2.94"/><polyline class="cls-4" points="331.6 871.06 331.6 684.28 357.51 684.28 357.51 871.06"/><path class="cls-28" d="M323.06,500.82l-13.25,28.57s-40.94,2.94-63.61,10-44.47,14.13-44.47,14.13-24.44-.33-30.62.59c-6.41,1-7.4,3.28-9.94,12.44-1.36,4.9-3.65,11.71,4.05,17.31,5.89,4.28,8.24,7.36,17.08,7.65s9.72-6.77,9.72-6.77v-10.6H334.84l32.68-78Z"/><polygon class="cls-22" points="321.88 512.01 346.03 538.52 357.81 509.66 321.88 512.01"/><path class="cls-35" d="M618.37,284.39l13.17,7.22,26.82-62.06-1.74-4.6s-9.38,6.49-20.55,26S618.37,284.39,618.37,284.39Z"/><path class="cls-36" d="M656.78,643.64l79.35,159s23.63-2.43,30-19.66c0,0-3.74-78.15-6.47-102.24-4.42-38.87-26.06-70.23-31.14-74.65,0,0,12.81-50.8,18.11-77.08s9.93-52.57,9.93-52.57L687,501Z"/><g class="cls-37"><path class="cls-11" d="M762.13,439.57s-23,152.84-23,158.14-13.25,182.87-13.25,182.87L679.08,709.9,686.15,535Z"/><rect class="cls-22" x="718.4" y="545.42" width="34.4" height="13.25"/></g><path class="cls-25" d="M593.68,153.78s16.3,46.29,25.18,56.1c9.87,10.89,27.68-.15,27.68-.15s6.33,10,5.45,15.76S638.74,256.11,638.3,263s51.09-50.5,51.09-50.5l-8.54-19.73s.88-47-6.18-60.81-21.06-21.79-39.32-15.9-26.27,8.74-36.37,18.84C592.21,141.71,593.68,153.78,593.68,153.78Z"/><path class="cls-38" d="M580.73,135.23s5.56,27.51,16.64,26.5c1.61-.15,14.57-15.31,20.9-19.14s14.87-3,18.56,5.59,9.12,22.38,10.89,24.89,6.33-3.54,6.33-3.54-5.15-17.81,7.36-22.08,18.26,24.15,5,28.27c0,0-1.32,18.4,14.43,17.08,0,0,2.84-32.64,3.39-46.53.88-22.53-11.19-38.43-23.27-44.47Z"/><path class="cls-13" d="M680.41,215.47s-12.37-.14-25,19S617.24,296.6,621.66,314s13.84,17.08,16.49,30.62,3.83,53.74,25.18,65.82l91.14-42a82.29,82.29,0,0,0-8.39-15.31c-5.89-8.69-17.38-13.69-17.38-23.56s3.54-45.94-6.62-74.65-30.88-48-34.33-48.31C686,206.45,683.61,209.93,680.41,215.47Z"/><path class="cls-36" d="M663.33,410.42s-23.78,121-26.21,155.92,10.82,253.11,10.82,253.11,16.35,11,37.55,2c0,0,12.86-59.74,21-94.31,11.93-50.8,3.09-96.74,3.09-96.74s22.31-75.31,30.7-105.57,42.19-61.62,40.86-94.08-26.65-62.29-26.65-62.29Z"/><path class="cls-3" d="M663.33,410.42l-42,136.34h154s15.9-96.29-41.82-169Z"/><line class="cls-39" x1="673.78" y1="448.7" x2="744.16" y2="448.7"/><path class="cls-39" d="M716.4,448.47s6.25-23.75,7.24-26.35c1.6-4.19,7.52-8.06,11.54-3.36,2.65,3.09.94,14.24-7.73,16.67-5.53,1.55-8.12.39-8.12.39"/><path class="cls-39" d="M716.29,448.41s.2-23.33.05-26.11c-.25-4.48-4.7-10-10-6.72-3.47,2.13-5.24,13.28,2.27,18.23,4.79,3.17,7.61,2.85,7.61,2.85"/><path class="cls-40" d="M690.9,424.06l-9,4.28a2.48,2.48,0,0,0-1.21,3.2l7.25,17.14"/><line class="cls-40" x1="692.17" y1="427.37" x2="681.02" y2="432.67"/><line class="cls-40" x1="693.72" y1="430.57" x2="682.56" y2="435.87"/><line class="cls-40" x1="695.26" y1="433.77" x2="684.11" y2="439.07"/><line class="cls-40" x1="696.81" y1="436.98" x2="685.65" y2="442.28"/><line class="cls-40" x1="698.08" y1="440.34" x2="686.92" y2="445.64"/><line class="cls-40" x1="699.62" y1="443.93" x2="689.79" y2="448.63"/><path class="cls-9" d="M356.92,514.34H314.48a2.81,2.81,0,0,1-2.63-3.82c4.54-11.81,18.87-48.12,30.35-67.43,9.12-15.33,29.74-30.44,62.13-32.59s53.31,1.79,64.2,32.59-4.12,78.05-4.12,78.05Z"/><path class="cls-5" d="M238.25,575.91c-.88-.29-13.55,10.31-18.55,51.24H347.21l2.94-47.7Z"/><path class="cls-4" d="M187.45,623.33H349.56a0,0,0,0,1,0,0v32.1a0,0,0,0,1,0,0H187.45a16,16,0,0,1-16-16v0A16,16,0,0,1,187.45,623.33Z"/><path class="cls-6" d="M187.45,655.42H488.26a0,0,0,0,1,0,0v28.71a5.15,5.15,0,0,1-5.15,5.15H191.79a4.34,4.34,0,0,1-4.34-4.34V655.42A0,0,0,0,1,187.45,655.42Z"/><path class="cls-4" d="M349.56,655.42h138.7a0,0,0,0,1,0,0v29.52a4.34,4.34,0,0,1-4.34,4.34H349.56a0,0,0,0,1,0,0V655.42A0,0,0,0,1,349.56,655.42Z"/><path class="cls-6" d="M550.15,434.9h0a23.3,23.3,0,0,0-2.26-.67l.15-.55h-3.28a23.59,23.59,0,0,0-5,0H407.87L349.56,655.42h139L564.23,466A23.65,23.65,0,0,0,550.15,434.9Z"/><path class="cls-4" d="M306.86,623.62,381.51,448a23.64,23.64,0,0,1,29.64-13.05h0A23.66,23.66,0,0,1,425.24,466L349.56,655.42Z"/><g class="cls-41"><line class="cls-30" x1="602.37" y1="191.91" x2="653.46" y2="165.71"/><path class="cls-30" d="M628.58,216.5c.59,0,26.06-7.8,37.84-40.78"/><path class="cls-12" d="M636.09,174.54,651.4,200.9s-13.25,15.46-24.73,15.46l-13.4-7.07L607,189.41Z"/></g><path class="cls-42" d="M381.37,337.31s2.94-5.59,6.77-2.13c2.13,1.92,6.29,1.25,7.29-.3s5.48-2.43,7.36.22,5.74,2.21,6.4,1.33"/><path class="cls-42" d="M379.75,326.34s4.41,2.43,6.84-.81,7.59-4,8.91-.66,7.73,2.5,8.47.81"/><path class="cls-42" d="M376.8,319.79s3.17-3.68,7.44-2.94,7.43,2.28,9.71,1.25,8.84-3.68,12.08.73"/><path class="cls-35" d="M392.6,295.52s2-1.44,1.41-2.74a12.16,12.16,0,0,0-2.51-2.94.25.25,0,0,1,.09-.43l5.59-1.88a.26.26,0,0,1,.34.27c-.09.83-.22,2.75.46,3.6.89,1.11,1.39,1.3,2.27,1.27S392.6,295.52,392.6,295.52Z"/><path class="cls-13" d="M388.21,299.44s.11-3.21,2.21-3.76,13.91-4.53,15.68-5.3,4.64.33,4.86,1.22Z"/><path class="cls-13" d="M394.7,294.88s2-1.43,1.41-2.73a12,12,0,0,0-2.52-2.94.26.26,0,0,1,.1-.43l5.59-1.88a.25.25,0,0,1,.34.26c-.1.84-.22,2.76.46,3.61.89,1.1,1.38,1.29,2.27,1.27S394.7,294.88,394.7,294.88Z"/><line class="cls-43" x1="392.04" y1="360.28" x2="396.9" y2="348.21"/><rect class="cls-6" x="180.83" y="571.2" width="153.42" height="12.96" rx="3.09"/><path class="cls-35" d="M690.86,284.09l-46,97.73a190.73,190.73,0,0,1-6.7-37.22C636.85,327.89,690.86,284.09,690.86,284.09Z"/><path class="cls-13" d="M441.11,351l3.81,10.93h0a2,2,0,0,0,.93-1.93l-1.65-12Z"/><line class="cls-31" x1="448.01" y1="345.93" x2="452.04" y2="358.57"/><path class="cls-25" d="M622.76,287.62l-28.27,51.46s-20.76,5.52-40.19,13-53.67,22.09-60.08,24.07-9.93.45-9.93.45-8.62-12.81-13-15.24-22.08-4.2-24.29-4.2-3.75,4.42.44,8.39,12.81,6,14.36,7.29,3.09,9.06,3.09,9.06S448.51,387,442.54,387a32,32,0,0,1-11.7-2.65s.66,3.75,6.18,9.05,13.25,5.08,20.32,6S485.17,402.69,490,402s86.8-10.38,98.94-14.35,24.52-6.41,36-19,37.33-39.32,37.33-39.32l4-60.29Z"/><polygon class="cls-44" points="331.62 710.23 331.62 689.33 357.51 689.33 331.62 710.23"/><g class="cls-45"><path class="cls-46" d="M58.3,848.65s28.77,2.3,38.49,22.5"/></g><polygon class="cls-44" points="639.38 546.85 733.91 546.91 726.84 571.87 639.38 546.85"/><polyline class="cls-33" points="646.54 209.73 658.76 200.16 651 218.93 646.54 209.73"/><path class="cls-44" d="M174.88,593.84l144.49.44,4.24-10.09-121.09,0L199.68,588l-11.29.05c-4.69.24-8.11,1.11-11.09,3.34Z"/><line class="cls-31" x1="455.57" y1="342.12" x2="459.99" y2="355.42"/><path class="cls-13" d="M622.76,287.62s31.15,3.09,39.54,41.74A364.84,364.84,0,0,0,690,292.94c6.38-9.81,11.92-20,14-28.29,6.18-24.29-3.09-41.74-14.8-47.7s-23.26.22-32.1,12.58C651.62,237.26,622.76,287.62,622.76,287.62Z"/><line class="cls-47" x1="229.19" y1="871.91" x2="459.77" y2="871.91"/><line class="cls-48" x1="1018.64" y1="874.17" x2="32.85" y2="874.17"/><line class="cls-49" x1="660.31" y1="169.46" x2="664.29" y2="152.9"/></g></g></svg>