<svg width="130" height="130" viewBox="0 0 130 130" fill="none" xmlns="http://www.w3.org/2000/svg">
<g clip-path="url(#clip0_8786_51094)">
<path d="M123.559 55.9836H6.44075C2.88362 55.9836 0 58.8673 0 62.4244V98.9638C0 102.521 2.88362 105.405 6.44075 105.405H123.559C127.116 105.405 130 102.521 130 98.9638V62.4244C130 58.8673 127.116 55.9836 123.559 55.9836Z" fill="#DDDDDD"/>
<path d="M19.4652 72.5805C19.4652 71.7509 18.7927 71.0784 17.9631 71.0784C17.1335 71.0784 16.4609 71.7509 16.4609 72.5805V88.8079C16.4609 89.6375 17.1335 90.31 17.9631 90.31C18.7927 90.31 19.4652 89.6375 19.4652 88.8079V72.5805Z" fill="white"/>
<path d="M11.6878 75.3329C10.9693 74.9181 10.0506 75.1642 9.63584 75.8827C9.22103 76.6012 9.4672 77.5199 10.1857 77.9347L24.239 86.0483C24.9574 86.4631 25.8761 86.217 26.2909 85.4985C26.7057 84.78 26.4596 83.8614 25.7411 83.4465L11.6878 75.3329Z" fill="white"/>
<path d="M10.1816 83.4465C9.4631 83.8613 9.21693 84.78 9.63174 85.4984C10.0465 86.2169 10.9652 86.4631 11.6837 86.0482L25.737 77.9346C26.4555 77.5198 26.7016 76.6011 26.2868 75.8826C25.872 75.1641 24.9533 74.918 24.2349 75.3328L10.1816 83.4465Z" fill="white"/>
<path d="M42.9828 72.5803C42.9828 71.7507 42.3103 71.0781 41.4807 71.0781C40.651 71.0781 39.9785 71.7507 39.9785 72.5803V88.8076C39.9785 89.6372 40.651 90.3098 41.4807 90.3098C42.3103 90.3098 42.9828 89.6372 42.9828 88.8076V72.5803Z" fill="white"/>
<path d="M35.2054 75.3368C34.4869 74.922 33.5682 75.1681 33.1534 75.8866C32.7386 76.6051 32.9848 77.5238 33.7032 77.9386L47.7565 86.0522C48.475 86.4671 49.3937 86.2209 49.8085 85.5024C50.2233 84.784 49.9771 83.8653 49.2587 83.4505L35.2054 75.3368Z" fill="white"/>
<path d="M33.705 83.4469C32.9865 83.8617 32.7404 84.7804 33.1552 85.4989C33.57 86.2174 34.4887 86.4635 35.2071 86.0487L49.2604 77.9351C49.9789 77.5203 50.2251 76.6016 49.8103 75.8831C49.3955 75.1646 48.4768 74.9185 47.7583 75.3333L33.705 83.4469Z" fill="white"/>
<path d="M66.5023 72.5805C66.5023 71.7509 65.8298 71.0784 65.0002 71.0784C64.1706 71.0784 63.498 71.7509 63.498 72.5805V88.8079C63.498 89.6375 64.1706 90.31 65.0002 90.31C65.8298 90.31 66.5023 89.6375 66.5023 88.8079V72.5805Z" fill="white"/>
<path d="M58.7249 75.3368C58.0064 74.922 57.0878 75.1681 56.6729 75.8866C56.2581 76.6051 56.5043 77.5238 57.2228 77.9386L71.2761 86.0522C71.9945 86.4671 72.9132 86.2209 73.328 85.5024C73.7428 84.784 73.4967 83.8653 72.7782 83.4505L58.7249 75.3368Z" fill="white"/>
<path d="M57.5118 83.186C56.79 83.6008 56.5412 84.5222 56.956 85.2439C57.3708 85.9657 58.2921 86.2145 59.0139 85.7997L73.1317 77.686C73.8534 77.2712 74.1023 76.3499 73.6875 75.6281C73.2727 74.9063 72.3513 74.6575 71.6295 75.0723L57.5118 83.186Z" fill="white"/>
<path d="M90.0199 72.5803C90.0199 71.7507 89.3474 71.0781 88.5178 71.0781C87.6882 71.0781 87.0156 71.7507 87.0156 72.5803V88.8076C87.0156 89.6372 87.6882 90.3098 88.5178 90.3098C89.3474 90.3098 90.0199 89.6372 90.0199 88.8076V72.5803Z" fill="white"/>
<path d="M82.2425 75.3368C81.524 74.922 80.6053 75.1681 80.1905 75.8866C79.7757 76.6051 80.0219 77.5238 80.7403 77.9386L94.7936 86.0522C95.5121 86.4671 96.4308 86.2209 96.8456 85.5024C97.2604 84.784 97.0143 83.8653 96.2958 83.4504L82.2425 75.3368Z" fill="white"/>
<path d="M80.7402 83.4508C80.0217 83.8657 79.7755 84.7844 80.1903 85.5028C80.6051 86.2213 81.5238 86.4674 82.2423 86.0526L96.2956 77.939C97.0141 77.5242 97.2602 76.6055 96.8454 75.887C96.4306 75.1685 95.5119 74.9224 94.7934 75.3372L80.7402 83.4508Z" fill="white"/>
<path d="M113.543 72.5803C113.543 71.7507 112.871 71.0781 112.041 71.0781C111.212 71.0781 110.539 71.7507 110.539 72.5803V88.8076C110.539 89.6372 111.212 90.3098 112.041 90.3098C112.871 90.3098 113.543 89.6372 113.543 88.8076V72.5803Z" fill="white"/>
<path d="M105.764 75.3343C105.046 74.9195 104.127 75.1657 103.712 75.8842C103.297 76.6026 103.543 77.5213 104.262 77.9361L118.315 86.0498C119.034 86.4646 119.952 86.2184 120.367 85.5C120.782 84.7815 120.536 83.8628 119.817 83.448L105.764 75.3343Z" fill="white"/>
<path d="M104.262 83.4479C103.543 83.8627 103.297 84.7814 103.712 85.4999C104.127 86.2184 105.045 86.4645 105.764 86.0497L119.817 77.936C120.536 77.5212 120.782 76.6025 120.367 75.8841C119.952 75.1656 119.033 74.9194 118.315 75.3342L104.262 83.4479Z" fill="white"/>
<path d="M99.9603 65.6345C113.171 65.6345 123.88 54.9255 123.88 41.7152C123.88 28.5049 113.171 17.7959 99.9603 17.7959C86.7501 17.7959 76.041 28.5049 76.041 41.7152C76.041 54.9255 86.7501 65.6345 99.9603 65.6345Z" fill="#0F9739"/>
<path d="M96.2495 54.37C96.0301 54.3701 95.8129 54.3264 95.6106 54.2414C95.4084 54.1564 95.2251 54.0319 95.0715 53.8751L85.2013 43.8446C84.9068 43.5291 84.7471 43.1111 84.7562 42.6796C84.7654 42.2481 84.9427 41.8373 85.2504 41.5346C85.558 41.232 85.9717 41.0614 86.4033 41.0593C86.8349 41.0572 87.2502 41.2237 87.5608 41.5234L96.1485 50.2365L111.571 31.7298C111.852 31.3924 112.255 31.1805 112.693 31.1406C113.13 31.1008 113.565 31.2362 113.902 31.5172C114.24 31.7982 114.452 32.2018 114.492 32.639C114.531 33.0763 114.396 33.5115 114.115 33.8489L97.5217 53.7776C97.3741 53.9552 97.1907 54.0997 96.9835 54.2018C96.7764 54.3039 96.55 54.3612 96.3192 54.37H96.2495Z" fill="white"/>
</g>
<defs>
<clipPath id="clip0_8786_51094">
<rect width="130" height="130" fill="white"/>
</clipPath>
</defs>
</svg>
