<svg width="130" height="130" viewBox="0 0 130 130" fill="none" xmlns="http://www.w3.org/2000/svg">
<g clip-path="url(#clip0_8786_51116)">
<path d="M75.9795 81.1853C77.0879 81.1864 78.1912 81.3377 79.2591 81.6349C80.9569 79.0072 83.4051 76.9502 86.2862 75.7307C89.1673 74.5113 92.3484 74.1857 95.4168 74.7962C98.4852 75.4066 101.299 76.9249 103.494 79.1543C105.689 81.3836 107.164 84.221 107.727 87.2985C109.028 86.8407 110.414 86.6727 111.787 86.8062C113.161 86.9397 114.488 87.3714 115.677 88.0712C116.866 88.7711 117.888 89.7221 118.672 90.8579C119.455 91.9937 119.981 93.2869 120.212 94.647C120.444 96.0071 120.376 97.4015 120.013 98.7325C119.65 100.064 119 101.299 118.11 102.353C117.219 103.407 116.11 104.254 114.858 104.835C113.606 105.415 112.243 105.716 110.863 105.715H75.9795C72.7267 105.715 69.6071 104.422 67.3071 102.122C65.007 99.8223 63.7148 96.7027 63.7148 93.45C63.7148 90.1972 65.007 87.0776 67.3071 84.7776C69.6071 82.4775 72.7267 81.1853 75.9795 81.1853Z" fill="#E0E0E0"/>
<path d="M99.4103 23.1907C97.5185 23.1903 95.6355 23.447 93.813 23.954C90.9138 19.4678 86.7335 15.9563 81.8143 13.8749C76.8951 11.7934 71.464 11.2381 66.2253 12.281C60.9867 13.3238 56.1822 15.9167 52.4351 19.7233C48.6881 23.5299 46.1712 28.3746 45.2111 33.629C42.9897 32.846 40.6241 32.5575 38.2796 32.7837C35.9351 33.0098 33.6682 33.7451 31.6374 34.9383C29.6066 36.1314 27.8608 37.7536 26.522 39.6915C25.1832 41.6294 24.2836 43.8362 23.8862 46.1578C23.4888 48.4794 23.6031 50.8598 24.2212 53.1327C24.8392 55.4055 25.9461 57.516 27.4644 59.3167C28.9828 61.1173 30.876 62.5648 33.0118 63.5578C35.1476 64.5509 37.4745 65.0656 39.8299 65.066H99.4277C104.934 64.995 110.191 62.7578 114.059 58.839C117.928 54.9201 120.097 49.6351 120.097 44.1284C120.097 38.6217 117.928 33.3366 114.059 29.4178C110.191 25.4989 104.934 23.2617 99.4277 23.1907H99.4103Z" fill="#E0E0E0"/>
<path d="M72.7588 68.5338C72.7588 67.2338 72.6786 65.6724 72.6194 64.4352C72.5823 63.8112 72.3516 63.2142 71.9593 62.7276C71.5669 62.2409 71.0326 61.8888 70.4306 61.7202L56.2073 57.8864L42.7891 54.2617V120.203C43.8902 120.052 44.9641 119.745 45.9781 119.29C51.8508 116.61 57.0162 112.595 61.0623 107.565L63.0732 104.882L63.1499 104.77L63.3834 104.421C63.4741 104.286 63.5681 104.15 63.6588 104.01L63.8923 103.662L64.1572 103.247C64.2373 103.125 64.314 103 64.3907 102.874L64.6521 102.445L64.8786 102.065L65.1365 101.626C65.2132 101.497 65.2864 101.361 65.3631 101.229L65.6105 100.783C65.6837 100.647 65.7569 100.511 65.8336 100.375L66.0741 99.9186L66.2936 99.4934C66.3738 99.34 66.4505 99.1832 66.5306 99.0263C66.6108 98.8695 66.6735 98.7371 66.7432 98.5907L66.9732 98.1132L67.1824 97.6671L67.4054 97.1757C67.4751 97.0223 67.5413 96.869 67.6076 96.7156C67.6738 96.5623 67.7539 96.3671 67.8237 96.2102L68.0223 95.7397L68.2314 95.2239C68.2976 95.0636 68.3604 94.9033 68.4231 94.7395C68.4858 94.5757 68.559 94.3909 68.6253 94.2097C68.6915 94.0285 68.7507 93.8821 68.81 93.7148C68.8692 93.5475 68.9424 93.3663 69.0052 93.1746L69.1829 92.6657L69.3711 92.1081C69.4269 91.9373 69.4861 91.7596 69.5419 91.5888L69.7196 91.0172C69.7754 90.8429 69.8277 90.6687 69.8834 90.4875C69.9392 90.3062 69.9984 90.0971 70.0542 89.9019C70.11 89.7068 70.1588 89.5534 70.2076 89.3582C70.2564 89.1631 70.3191 88.9609 70.3714 88.7588L70.5177 88.2046C70.57 88.0025 70.6223 87.7968 70.6711 87.5877C70.7199 87.3786 70.7652 87.2148 70.8105 87.0231L70.9569 86.3923C70.9987 86.2006 71.044 86.0089 71.0858 85.8137L71.2218 85.169C71.2601 84.9703 71.3019 84.7751 71.3403 84.5765C71.3786 84.3778 71.4239 84.1373 71.4657 83.9143C71.5076 83.6912 71.5424 83.5169 71.5773 83.3148L71.6923 82.6178C71.7271 82.4156 71.762 82.2135 71.7934 82.0078C71.8247 81.8022 71.8631 81.5443 71.8979 81.3108L71.992 80.6869L72.0861 79.9899C72.114 79.7773 72.1419 79.5682 72.1663 79.3556C72.1907 79.143 72.222 78.8606 72.2499 78.6167C72.2778 78.3727 72.2987 78.1915 72.3196 77.9789C72.3405 77.7663 72.3684 77.4665 72.3928 77.2086C72.4172 76.9507 72.4346 76.7834 72.4521 76.5708C72.4765 76.306 72.4939 76.0376 72.5148 75.7692C72.5322 75.5566 72.5497 75.3475 72.5636 75.1314C72.581 74.8561 72.595 74.5738 72.6124 74.2915C72.6124 74.0824 72.6368 73.8767 72.6507 73.6641C72.6507 73.3714 72.6751 73.0716 72.6856 72.7719C72.6856 72.5698 72.6856 72.3711 72.71 72.169C72.71 71.8204 72.7309 71.4719 72.7379 71.1443C72.7379 70.977 72.7379 70.7958 72.7379 70.6424C72.7379 70.1266 72.7379 69.5968 72.7379 69.081C72.7623 68.9033 72.7623 68.722 72.7588 68.5338Z" fill="#F8BC10"/>
<path d="M39.6275 54.2515L11.9824 61.7204C11.378 61.8839 10.8409 62.2347 10.4483 62.7225C10.0557 63.2103 9.82776 63.81 9.79719 64.4354C9.72749 65.8504 9.6543 67.6871 9.6543 69.0743C9.6543 103.073 27.6173 115.324 36.435 119.29C37.4502 119.745 38.5252 120.052 39.6275 120.203V54.2515Z" fill="#A7A7A7"/>
<path d="M72.6194 64.4354C72.588 63.8097 72.3594 63.2099 71.9662 62.7222C71.573 62.2345 71.0354 61.8837 70.4306 61.7204L42.7891 54.2515V120.203C43.8902 120.052 44.9641 119.745 45.9781 119.29C54.7993 115.324 72.7623 103.073 72.7623 69.0743C72.7623 67.6871 72.6891 65.8504 72.6194 64.4354Z" fill="#F8BC10"/>
<path d="M39.627 120.203C40.6758 120.346 41.7392 120.346 42.7881 120.203V54.2514L41.9795 54.0353C41.4731 53.8958 40.9384 53.8958 40.432 54.0353L39.627 54.2514V120.203Z" fill="white"/>
</g>
<defs>
<clipPath id="clip0_8786_51116">
<rect width="130" height="130" fill="white"/>
</clipPath>
</defs>
</svg>
