<svg width="130" height="130" viewBox="0 0 130 130" fill="none" xmlns="http://www.w3.org/2000/svg">
<path d="M20.759 98.0889C17.0507 98.0889 15.099 94.6385 16.7684 91.0243L16.9113 90.7211C18.1242 88.1037 20.8775 86.2495 23.5612 86.2495C27.273 86.2495 29.2212 89.6999 27.5518 93.3176L27.4124 93.6208C26.203 96.2382 23.4461 98.0889 20.759 98.0889Z" fill="#E0E0E0"/>
<path d="M126.062 74.9608C126.171 74.9593 126.279 74.9834 126.377 75.0312C126.476 75.079 126.561 75.1492 126.627 75.2361C126.696 75.3199 126.745 75.4186 126.769 75.5245C126.793 75.6304 126.792 75.7405 126.766 75.846L119.447 107.611C119.412 107.769 119.324 107.911 119.197 108.013C119.07 108.115 118.913 108.171 118.75 108.172H3.93906C3.83026 108.174 3.72252 108.15 3.62448 108.103C3.52644 108.056 3.44081 107.986 3.37445 107.9C3.30476 107.816 3.25583 107.716 3.23161 107.61C3.20739 107.503 3.20857 107.393 3.23504 107.286L10.5541 75.5219C10.5896 75.3633 10.6779 75.2214 10.8045 75.1195C10.9311 75.0175 11.0886 74.9616 11.2511 74.9608H126.062ZM126.062 72.1726H11.272C10.4783 72.1728 9.70811 72.4421 9.08715 72.9365C8.46619 73.4308 8.03113 74.1211 7.853 74.8945L0.520022 106.649C0.400973 107.163 0.399575 107.698 0.515931 108.213C0.632288 108.728 0.863399 109.21 1.19204 109.624C1.52068 110.037 1.93838 110.371 2.41401 110.601C2.88965 110.83 3.41094 110.949 3.93906 110.95H118.729C119.523 110.949 120.293 110.68 120.914 110.186C121.535 109.691 121.97 109.001 122.148 108.228L129.467 76.4629C129.587 75.9484 129.588 75.4136 129.472 74.8985C129.355 74.3834 129.124 73.9011 128.795 73.4877C128.467 73.0743 128.049 72.7404 127.573 72.5109C127.098 72.2814 126.577 72.1622 126.048 72.1621L126.062 72.1726Z" fill="#E0E0E0"/>
<path d="M107.071 98.0889H38.5231C37.7571 98.1103 36.9964 97.9555 36.2997 97.6364C35.603 97.3174 34.9889 96.8426 34.5046 96.2487C34.0207 95.6112 33.6883 94.872 33.5325 94.087C33.3767 93.302 33.4017 92.4918 33.6054 91.7179C34.3582 88.4592 37.5089 85.9045 40.7816 85.9045H109.319C110.087 85.8821 110.85 86.0368 111.549 86.3565C112.247 86.6762 112.863 87.1524 113.348 87.7482C113.832 88.3856 114.164 89.1249 114.32 89.9099C114.476 90.6949 114.451 91.505 114.247 92.279C113.498 95.5377 110.344 98.0889 107.071 98.0889ZM40.7781 88.3581C38.666 88.3581 36.4703 90.153 35.9789 92.279C35.8622 92.6919 35.8405 93.1259 35.9153 93.5484C35.9902 93.9709 36.1596 94.371 36.4111 94.7187C36.6708 95.0231 36.9969 95.264 37.3642 95.4229C37.7315 95.5818 38.1303 95.6544 38.5301 95.6353H107.071C109.183 95.6353 111.382 93.8404 111.87 91.7179C111.989 91.3051 112.011 90.8708 111.937 90.448C111.862 90.0252 111.691 89.6251 111.438 89.2782C111.179 88.9733 110.853 88.7319 110.485 88.5724C110.118 88.4129 109.719 88.3396 109.319 88.3581H40.7781Z" fill="#E0E0E0"/>
<path d="M120.66 90.2159L123.818 76.5293H10.2647C9.47119 76.5302 8.7013 76.7997 8.08047 77.2939C7.45963 77.7882 7.02442 78.4781 6.84571 79.2513L3.70898 92.8612H117.328C118.101 92.8622 118.851 92.6011 119.456 92.1206C120.062 91.6402 120.486 90.9687 120.66 90.2159Z" fill="#AAAAAA"/>
<path d="M3.93888 86.4934H118.729C119.523 86.494 120.293 86.2254 120.914 85.7316C121.535 85.2378 121.97 84.548 122.148 83.7749L129.467 52.0068C129.586 51.4924 129.588 50.9578 129.471 50.4429C129.355 49.9279 129.124 49.4458 128.795 49.0327C128.467 48.6195 128.049 48.286 127.573 48.0568C127.097 47.8277 126.576 47.709 126.048 47.7095H11.2719C10.4786 47.7095 9.70879 47.9783 9.08789 48.472C8.46699 48.9657 8.03164 49.6551 7.85282 50.428L0.533789 82.1961C0.41492 82.7093 0.413219 83.2427 0.528812 83.7566C0.644406 84.2706 0.874323 84.7518 1.20148 85.1647C1.52864 85.5776 1.94463 85.9115 2.41854 86.1415C2.89245 86.3715 3.4121 86.4918 3.93888 86.4934Z" fill="#E0E0E0"/>
<path d="M20.759 72.8941C17.0507 72.8941 15.099 69.4437 16.7684 65.826L16.9113 65.5228C18.1242 62.9054 20.8775 61.0547 23.5612 61.0547C27.273 61.0547 29.2212 64.5051 27.5518 68.1193L27.4124 68.4225C26.203 71.0399 23.4461 72.8941 20.759 72.8941Z" fill="white"/>
<path d="M107.071 71.7963H37.1985C34.5044 71.7963 32.8349 69.6041 33.4588 66.917C34.0792 64.2298 36.7628 62.0376 39.45 62.0376H109.319C112.006 62.0376 113.679 64.2159 113.059 66.917C112.438 69.6041 109.758 71.7963 107.071 71.7963Z" fill="white"/>
<path d="M94.3451 56.6111C107.555 56.6111 118.264 45.902 118.264 32.6918C118.264 19.4815 107.555 8.77246 94.3451 8.77246C81.1348 8.77246 70.4258 19.4815 70.4258 32.6918C70.4258 45.902 81.1348 56.6111 94.3451 56.6111Z" fill="#F8BC10"/>
<path d="M106.785 34.18H81.0426C80.8414 34.1897 80.6402 34.1585 80.4514 34.0882C80.2626 34.0179 80.09 33.91 79.9441 33.771C79.7982 33.632 79.6821 33.4648 79.6027 33.2796C79.5233 33.0944 79.4824 32.895 79.4824 32.6935C79.4824 32.492 79.5233 32.2926 79.6027 32.1074C79.6821 31.9222 79.7982 31.755 79.9441 31.6161C80.09 31.4771 80.2626 31.3691 80.4514 31.2988C80.6402 31.2285 80.8414 31.1973 81.0426 31.2071H106.785C107.167 31.2256 107.527 31.3902 107.79 31.667C108.054 31.9437 108.201 32.3113 108.201 32.6935C108.201 33.0758 108.054 33.4433 107.79 33.7201C107.527 33.9968 107.167 34.1615 106.785 34.18Z" fill="white"/>
<path d="M93.9135 47.0509C93.6155 47.0515 93.3241 46.9624 93.0774 46.7951C92.8306 46.6278 92.64 46.3902 92.5302 46.1131C92.4204 45.8359 92.3965 45.5322 92.4618 45.2413C92.527 44.9505 92.6782 44.686 92.8959 44.4823L105.481 32.6916L92.8959 20.8906C92.6084 20.6211 92.4397 20.2485 92.427 19.8547C92.4142 19.4609 92.5584 19.0782 92.8279 18.7907C93.0973 18.5032 93.4699 18.3346 93.8637 18.3218C94.2575 18.3091 94.6403 18.4533 94.9277 18.7227L108.667 31.6182C108.815 31.7571 108.933 31.9249 109.014 32.1114C109.095 32.2978 109.137 32.4989 109.137 32.7021C109.137 32.9053 109.095 33.1064 109.014 33.2928C108.933 33.4793 108.815 33.6471 108.667 33.786L94.9277 46.6815C94.6485 46.9284 94.2862 47.0604 93.9135 47.0509Z" fill="white"/>
</svg>
