<svg width="131" height="130" viewBox="0 0 131 130" fill="none" xmlns="http://www.w3.org/2000/svg">
<path d="M123.378 21.0405C124.26 21.0414 125.106 21.3924 125.73 22.0164C126.354 22.6404 126.705 23.4864 126.706 24.3689V71.3536C126.705 72.2358 126.354 73.0815 125.73 73.7049C125.106 74.3284 124.26 74.6786 123.378 74.6786H37.5671C36.685 74.6786 35.8389 74.3284 35.2148 73.7049C34.5907 73.0815 34.2397 72.2358 34.2387 71.3536V24.3689C34.2396 23.4864 34.5906 22.6404 35.2146 22.0164C35.8386 21.3924 36.6847 21.0414 37.5671 21.0405H123.378ZM123.378 17.7295H37.5671C35.8063 17.7295 34.1175 18.429 32.8724 19.6741C31.6272 20.9193 30.9277 22.608 30.9277 24.3689V71.3536C30.9277 72.2247 31.0996 73.0872 31.4335 73.8918C31.7673 74.6963 32.2567 75.4271 32.8734 76.0422C33.4902 76.6574 34.2222 77.1448 35.0277 77.4765C35.8331 77.8083 36.6961 77.9779 37.5671 77.9756H123.378C124.249 77.9779 125.112 77.8083 125.917 77.4765C126.723 77.1448 127.455 76.6574 128.071 76.0422C128.688 75.4271 129.177 74.6963 129.511 73.8918C129.845 73.0872 130.017 72.2247 130.017 71.3536V24.3689C130.017 22.608 129.318 20.9193 128.072 19.6741C126.827 18.429 125.138 17.7295 123.378 17.7295Z" fill="#E0E0E0"/>
<path d="M68.0083 73.1905C66.9852 73.8107 65.8117 74.1386 64.6154 74.1386C63.419 74.1386 62.2455 73.8107 61.2225 73.1905L15.0742 45.2632V88.4803C15.0788 90.2352 15.778 91.9168 17.0188 93.1577C18.2597 94.3986 19.9414 95.0977 21.6962 95.1023H107.51C109.266 95.1023 110.951 94.4047 112.193 93.1628C113.434 91.9209 114.132 90.2366 114.132 88.4803V45.2632L68.0083 73.1905Z" fill="#E0E0E0"/>
<path d="M62.8468 70.4891C63.3801 70.8124 63.9918 70.9833 64.6155 70.9833C65.2392 70.9833 65.851 70.8124 66.3843 70.4891L114.132 41.5998V41.5092C114.132 39.7529 113.435 38.0686 112.193 36.8267C110.951 35.5849 109.267 34.8872 107.51 34.8872H21.7138C19.9589 34.8918 18.2773 35.591 17.0364 36.8318C15.7955 38.0727 15.0964 39.7543 15.0918 41.5092V41.5963L62.8468 70.4891Z" fill="#E0E0E0"/>
<path d="M74.1387 60.4624L94.74 82.6077" stroke="white" stroke-width="4" stroke-miterlimit="10"/>
<path d="M34.7168 82.3706L54.886 60.6714" stroke="white" stroke-width="4" stroke-miterlimit="10"/>
<path d="M98.9805 57.998L107.634 95.13H96.0007L88.0508 57.998H98.9805Z" fill="#AAAAAA"/>
<path d="M92.4324 52.0105H6.63941C2.97257 52.0105 0 54.9831 0 58.6499V105.631C0 109.298 2.97257 112.271 6.63941 112.271H92.4324C96.0993 112.271 99.0719 109.298 99.0719 105.631V58.6499C99.0719 54.9831 96.0993 52.0105 92.4324 52.0105Z" fill="#EA4335"/>
<path d="M85.4227 98.9813C85.073 98.9813 84.7333 98.8648 84.4572 98.6502L63.8559 82.6006C63.6934 82.4738 63.5575 82.3162 63.4559 82.1369C63.3543 81.9576 63.289 81.7601 63.2638 81.5555C63.2128 81.1424 63.328 80.726 63.584 80.3979C63.8401 80.0697 64.216 79.8567 64.6291 79.8058C64.8336 79.7805 65.0411 79.7958 65.2398 79.8508C65.4384 79.9057 65.6242 79.9992 65.7867 80.126L86.3881 96.1931C86.639 96.3958 86.8213 96.671 86.9102 96.9812C86.999 97.2913 86.99 97.6213 86.8845 97.9262C86.7789 98.231 86.5819 98.4959 86.3203 98.6848C86.0587 98.8736 85.7452 98.9771 85.4227 98.9813Z" fill="white"/>
<path d="M13.4739 98.9811C13.1513 98.977 12.8379 98.8734 12.5763 98.6846C12.3147 98.4958 12.1177 98.2309 12.0121 97.926C11.9065 97.6212 11.8976 97.2912 11.9864 96.981C12.0752 96.6709 12.2576 96.3957 12.5085 96.1929L33.1099 80.112C33.2716 79.9797 33.4581 79.8811 33.6584 79.8219C33.8587 79.7627 34.0689 79.7441 34.2765 79.7672C34.4841 79.7903 34.685 79.8547 34.8674 79.9566C35.0498 80.0584 35.2101 80.1957 35.3387 80.3603C35.4673 80.5249 35.5618 80.7135 35.6165 80.9152C35.6712 81.1168 35.6851 81.3273 35.6573 81.5343C35.6296 81.7414 35.5607 81.9408 35.4548 82.1209C35.3489 82.301 35.2081 82.4581 35.0407 82.583L14.4394 98.65C14.1633 98.8647 13.8236 98.9812 13.4739 98.9811Z" fill="white"/>
<path d="M99.0719 58.4407L51.174 87.4101C50.6407 87.7334 50.0289 87.9044 49.4052 87.9044C48.7816 87.9044 48.1698 87.7334 47.6365 87.4101L0 58.601V62.2675L46.0054 90.0938C47.027 90.7162 48.2002 91.0455 49.3965 91.0455C50.5928 91.0455 51.7661 90.7162 52.7877 90.0938L99.0649 62.1072L99.0719 58.4407Z" fill="white"/>
</svg>
