<svg width="130" height="130" viewBox="0 0 130 130" fill="none" xmlns="http://www.w3.org/2000/svg">
<path d="M53.7635 67.4395L123.671 67.4395C127.166 67.4395 130 64.6058 130 61.1102V23.1837C130 19.6882 127.166 16.8545 123.671 16.8545L53.7635 16.8545C50.268 16.8545 47.4343 19.6882 47.4343 23.1837V61.1102C47.4343 64.6058 50.268 67.4395 53.7635 67.4395Z" fill="#E0E0E0"/>
<path d="M116.756 48.6401V78.0696C116.756 78.7101 116.567 79.3362 116.211 79.8688C115.855 80.4014 115.349 80.8165 114.758 81.0616C114.166 81.3067 113.515 81.3708 112.887 81.2459C112.258 81.1209 111.681 80.8124 111.229 80.3594L79.8125 48.9399L116.756 48.6401Z" fill="#E0E0E0"/>
<path d="M108.237 38.4214C108.975 38.4207 109.695 38.6387 110.309 39.0478C110.922 39.457 111.4 40.0388 111.682 40.7197C111.965 41.4007 112.039 42.1501 111.895 42.8731C111.752 43.5962 111.397 44.2604 110.875 44.7816C110.354 45.3029 109.69 45.6578 108.967 45.8014C108.244 45.9451 107.494 45.871 106.814 45.5886C106.133 45.3062 105.551 44.8281 105.142 44.2149C104.733 43.6016 104.515 42.8808 104.515 42.1437C104.516 41.1567 104.909 40.2105 105.606 39.5126C106.304 38.8148 107.251 38.4223 108.237 38.4214ZM108.237 35.2847C106.88 35.2847 105.553 35.6872 104.425 36.4414C103.296 37.1957 102.416 38.2676 101.897 39.5218C101.378 40.7759 101.242 42.1559 101.507 43.4872C101.772 44.8185 102.426 46.0413 103.386 47.0009C104.346 47.9605 105.569 48.6138 106.901 48.8782C108.232 49.1426 109.612 49.0062 110.866 48.4862C112.12 47.9663 113.191 47.0862 113.945 45.9572C114.699 44.8282 115.101 43.5011 115.1 42.1437C115.1 41.2426 114.922 40.3504 114.577 39.518C114.233 38.6856 113.727 37.9293 113.09 37.2924C112.452 36.6554 111.696 36.1503 110.863 35.8058C110.031 35.4613 109.138 35.2842 108.237 35.2847Z" fill="white"/>
<path d="M88.7179 38.4214C89.4551 38.4207 90.1759 38.6387 90.7892 39.0478C91.4024 39.457 91.8805 40.0388 92.1629 40.7197C92.4453 41.4007 92.5194 42.1501 92.3757 42.8731C92.2321 43.5962 91.8772 44.2604 91.3559 44.7816C90.8346 45.3029 90.1705 45.6578 89.4474 45.8014C88.7244 45.9451 87.975 45.871 87.294 45.5886C86.6131 45.3062 86.0313 44.8281 85.6221 44.2149C85.213 43.6016 84.995 42.8808 84.9957 42.1437C84.9975 41.157 85.3903 40.2113 86.0879 39.5137C86.7856 38.816 87.7313 38.4232 88.7179 38.4214ZM88.7179 35.2847C87.3605 35.2847 86.0336 35.6872 84.905 36.4414C83.7764 37.1957 82.8968 38.2676 82.3775 39.5218C81.8582 40.7759 81.7225 42.1559 81.9876 43.4872C82.2527 44.8185 82.9066 46.0413 83.8667 47.0009C84.8268 47.9605 86.0499 48.6138 87.3813 48.8782C88.7127 49.1426 90.0926 49.0062 91.3465 48.4862C92.6004 47.9663 93.6719 47.0862 94.4256 45.9572C95.1792 44.8282 95.5811 43.5011 95.5804 42.1437C95.5804 41.2426 95.4029 40.3504 95.058 39.518C94.713 38.6856 94.2075 37.9293 93.5702 37.2924C92.9329 36.6554 92.1764 36.1503 91.3438 35.8058C90.5113 35.4613 89.619 35.2842 88.7179 35.2847Z" fill="white"/>
<path d="M69.1964 38.4214C69.9335 38.4214 70.654 38.64 71.2667 39.0495C71.8795 39.4591 72.357 40.0412 72.6389 40.7222C72.9208 41.4032 72.9944 42.1525 72.8503 42.8753C72.7063 43.5981 72.3511 44.2619 71.8297 44.7829C71.3083 45.3038 70.6441 45.6583 69.9212 45.8017C69.1982 45.9451 68.449 45.8708 67.7683 45.5883C67.0875 45.3057 66.5059 44.8277 66.0969 44.2145C65.6879 43.6014 65.47 42.8807 65.4707 42.1436C65.4726 41.1564 65.8658 40.2102 66.5642 39.5124C67.2626 38.8147 68.2092 38.4223 69.1964 38.4214ZM69.1964 35.2847C67.839 35.2847 66.5121 35.6872 65.3835 36.4414C64.2549 37.1957 63.3753 38.2676 62.856 39.5218C62.3367 40.7759 62.201 42.1559 62.4661 43.4872C62.7312 44.8185 63.3851 46.0413 64.3452 47.0009C65.3053 47.9605 66.5284 48.6138 67.8598 48.8782C69.1912 49.1426 70.5711 49.0062 71.825 48.4862C73.0789 47.9663 74.1504 47.0862 74.9041 45.9572C75.6577 44.8282 76.0596 43.5011 76.0589 42.1436C76.058 40.3242 75.3346 38.5796 74.0477 37.2934C72.7609 36.0072 71.0159 35.2847 69.1964 35.2847Z" fill="white"/>
<path d="M89.3936 67.4396L81.4577 56.1753L75.0483 59.1761L74.543 67.4396H89.3936Z" fill="#A7A7A7"/>
<path d="M76.2365 53.415H6.32922C2.83369 53.415 0 56.2487 0 59.7443V97.6708C0 101.166 2.83369 104 6.32922 104H76.2365C79.732 104 82.5657 101.166 82.5657 97.6708V59.7443C82.5657 56.2487 79.732 53.415 76.2365 53.415Z" fill="#0F9739"/>
<path d="M13.2441 85.2041V114.63C13.244 115.271 13.4338 115.897 13.7896 116.429C14.1454 116.962 14.6511 117.377 15.2428 117.622C15.8345 117.867 16.4856 117.931 17.1138 117.806C17.742 117.681 18.3189 117.373 18.7718 116.92L50.1878 85.5038L13.2441 85.2041Z" fill="#0F9739"/>
<path d="M21.7609 85.5701C25.5509 85.5701 28.6234 82.4977 28.6234 78.7077C28.6234 74.9176 25.5509 71.8452 21.7609 71.8452C17.9709 71.8452 14.8984 74.9176 14.8984 78.7077C14.8984 82.4977 17.9709 85.5701 21.7609 85.5701Z" fill="white"/>
<path d="M41.2824 85.5701C45.0724 85.5701 48.1449 82.4977 48.1449 78.7077C48.1449 74.9176 45.0724 71.8452 41.2824 71.8452C37.4924 71.8452 34.4199 74.9176 34.4199 78.7077C34.4199 82.4977 37.4924 85.5701 41.2824 85.5701Z" fill="white"/>
<path d="M60.8039 85.5701C64.5939 85.5701 67.6663 82.4977 67.6663 78.7077C67.6663 74.9176 64.5939 71.8452 60.8039 71.8452C57.0138 71.8452 53.9414 74.9176 53.9414 78.7077C53.9414 82.4977 57.0138 85.5701 60.8039 85.5701Z" fill="white"/>
</svg>
