<svg width="130" height="130" viewBox="0 0 130 130" fill="none" xmlns="http://www.w3.org/2000/svg">
<g clip-path="url(#clip0_8786_51084)">
<path d="M24.7206 102.752H106.199C119.847 102.752 119.004 92.3246 119.004 78.6798L118.397 77.7562C118.397 64.108 119.854 53.3315 106.199 53.3315H24.7206C18.1676 53.3325 11.8833 55.9363 7.24996 60.5703C2.61661 65.2043 0.0136721 71.489 0.0136721 78.042C0.0132144 81.2869 0.651941 84.5 1.89338 87.498C3.13481 90.496 4.95464 93.2201 7.24894 95.5147C9.54324 97.8093 12.2671 99.6296 15.2649 100.871C18.2627 102.113 21.4758 102.752 24.7206 102.752Z" fill="#DDDDDD"/>
<path d="M118.066 94.7047C116.741 99.6851 113.601 102.752 106.216 102.752H47.1406C48.1021 94.5373 51.814 86.8891 57.6727 81.051C63.5315 75.2128 71.1928 71.528 79.411 70.5955C87.6293 69.6631 95.9213 71.5377 102.939 75.9148C109.957 80.2919 115.288 86.9141 118.066 94.7047Z" fill="#A7A7A7"/>
<path d="M25.6907 79.6972H93.0815C93.5206 79.6972 93.9417 79.5228 94.2522 79.2123C94.5626 78.9019 94.737 78.4808 94.737 78.0417C94.737 77.6027 94.5626 77.1816 94.2522 76.8711C93.9417 76.5607 93.5206 76.3862 93.0815 76.3862H25.6907C25.2516 76.3862 24.8305 76.5607 24.52 76.8711C24.2096 77.1816 24.0352 77.6027 24.0352 78.0417C24.0352 78.4808 24.2096 78.9019 24.52 79.2123C24.8305 79.5228 25.2516 79.6972 25.6907 79.6972Z" fill="white"/>
<path d="M112.49 54.0981L120.618 58.7997V41.9067C120.537 34.8702 117.686 28.1493 112.681 23.202C107.677 18.2546 100.924 15.48 93.8873 15.48C86.8505 15.48 80.0974 18.2546 75.0933 23.202C70.0891 28.1493 67.2375 34.8702 67.1572 41.9067L66.9062 56.712L75.0687 54.0005V42.5479C75.0687 37.5565 77.0516 32.7694 80.5811 29.2399C84.1106 25.7104 88.8976 23.7276 93.8891 23.7276C98.8806 23.7276 103.668 25.7104 107.197 29.2399C110.727 32.7694 112.709 37.5565 112.709 42.5479L112.49 54.0981Z" fill="#616161"/>
<path d="M93.0811 114.822C113.321 114.822 129.729 98.4141 129.729 78.1743C129.729 57.9345 113.321 41.5269 93.0811 41.5269C72.8412 41.5269 56.4336 57.9345 56.4336 78.1743C56.4336 98.4141 72.8412 114.822 93.0811 114.822Z" fill="#3369E4"/>
<path d="M93.0779 96.8987L111.803 78.1738L93.0779 59.449L74.353 78.1738L93.0779 96.8987Z" fill="white"/>
</g>
<defs>
<clipPath id="clip0_8786_51084">
<rect width="130" height="130" fill="white"/>
</clipPath>
</defs>
</svg>
