<svg version="1.1" id="Online_Ads_1" xmlns="http://www.w3.org/2000/svg" x="0" y="0" viewBox="0 0 100 100" xml:space="preserve"><style>.st3{fill:#fbbc04}.st4{fill:#0d652d}</style><circle cx="69.9" cy="68.7" r="30" fill="#fff"/><path d="M54.7 30.4l2.7 2.7c.8.8.8 2.1 0 2.9L6.2 87.2c-.8.8-2.1.8-2.9 0L.6 84.5c-.8-.8-.8-2.1 0-2.9l51.2-51.2c.8-.8 2.1-.8 2.9 0z" fill="#c4c4c4"/><path d="M70.1 20.3l-4.2 12.4c-.2.6-.1 1.4.3 1.9L74 45.1c.7.9.5 2.2-.4 2.9-.4.3-.8.4-1.3.4l-13.1-.2c-.7 0-1.3.3-1.7.9L50 59.8c-.7.9-2 1.2-2.9.5-.4-.3-.6-.6-.8-1.1l-3.9-12.5c-.2-.7-.7-1.2-1.4-1.4l-12.5-3.9c-1.1-.3-1.7-1.5-1.4-2.6.1-.4.4-.8.8-1.1l10.7-7.6c.6-.4.9-1 .9-1.7l-.2-13.1c0-1.1.9-2.1 2.1-2.1.5 0 .9.1 1.3.4l10.5 7.8c.5.4 1.3.5 1.9.3l12.4-4.2c1.1-.4 2.3.2 2.6 1.3.2.6.2 1 0 1.5z" fill="#1e8e3e"/><circle class="st3" cx="12" cy="38.3" r="3"/><circle class="st3" cx="59.6" cy="4.8" r="3"/><path class="st4" d="M74.5 72.8l8.8-3.4c.4-.2.6-.6.4-1-.1-.2-.2-.3-.4-.4l-8.8-3.4c-.2-.1-.4-.2-.4-.4l-3.4-8.8c-.2-.4-.6-.6-1-.4-.2.1-.3.2-.4.4l-3.4 8.8c-.1.2-.2.4-.4.4L56.6 68c-.4.1-.6.6-.4 1 .1.2.2.4.4.4l8.8 3.4c.2.1.4.2.4.4l3.4 8.8c.2.4.6.6 1 .4.2-.1.3-.2.4-.4l3.4-8.8c.1-.2.3-.4.5-.4zM25 18.4l5.1-2c.2-.1.3-.3.3-.6 0-.1-.1-.2-.3-.3l-5.1-2c-.1 0-.2-.1-.2-.3l-2-5.1c-.1-.2-.3-.3-.6-.3-.1 0-.2.1-.3.3l-2 5.1c0 .1-.1.2-.2.3l-5.1 2c-.2.1-.3.3-.3.6 0 .1.1.2.3.3l5.1 2c.1 0 .2.1.2.2l2 5.1c.1.2.4.3.6.2.1 0 .2-.1.2-.2l2-5.1c.1-.1.2-.2.3-.2z"/></svg>
