<svg version="1.1" id="Online_Ads_3" xmlns="http://www.w3.org/2000/svg" xmlns:xlink="http://www.w3.org/1999/xlink" x="0" y="0" viewBox="0 0 100 100" xml:space="preserve"><style>.st1{fill:#1e8e3e}</style><circle transform="rotate(-1.403 48.664 49.998)" cx="48.7" cy="50" fill="#fff" r="18.1"/><path class="st1" d="M48.8 92.3c-3.3 0-6.7-.4-9.9-1.2C16.2 85.8 2.1 63 7.5 40.3S35.6 3.5 58.3 8.8c.4.1.9.2 1.3.3 21.2 5.7 34.6 26.6 30.7 48.3L81 55.8c3.2-17.9-8.8-34.9-26.6-38.1s-34.9 8.8-38.1 26.6c-.2 1.4-.4 2.8-.5 4.2-.3 5.9 1 11.7 3.8 16.9C28.1 81.4 48 87.5 64.1 79c.5-.3.9-.5 1.4-.8 1.3-.8 2.9-.4 3.8.8l2.2 3.1c.9 1.3.6 3.1-.7 4l-.1.1c-6.6 3.9-14.1 6.1-21.9 6.1z"/><path d="M15.9 48.5c-.3 5.9 1 11.7 3.8 16.9 8.5 16 28.4 22.1 44.5 13.6.5-.3.9-.5 1.4-.8 1.3-.8 2.9-.4 3.8.8l2.2 3.1c.9 1.3.6 3.1-.7 4l-.1.1c-6.6 4.1-14.2 6.2-21.9 6.2-3.3 0-6.7-.4-9.9-1.2C17.1 85.9 3.2 64.7 7.1 42.6" fill="#0d652d"/><defs><path id="SVGID_1_" d="M48.8 92.3c-3.3 0-6.7-.4-9.9-1.2C16.2 85.8 2.1 63 7.4 40.3S35.5 3.5 58.3 8.8c.4.1.9.2 1.3.3 21.2 5.7 34.6 26.6 30.7 48.3L81 55.8c3.2-17.9-8.8-34.9-26.6-38.1s-34.9 8.8-38.1 26.6c-.2 1.4-.4 2.8-.5 4.2-.3 5.9 1 11.7 3.8 16.9C28.1 81.4 48 87.5 64.1 79c.5-.3.9-.5 1.4-.8 1.3-.8 2.9-.4 3.8.8l2.2 3.1c.9 1.3.6 3.1-.7 4l-.1.1c-6.6 3.9-14.2 6.1-21.9 6.1z"/></defs><clipPath id="SVGID_2_"><use xlink:href="#SVGID_1_" overflow="visible"/></clipPath><path d="M90.8 46.4L75.6 31.2v.1c3.4 4.8 5.4 10.6 5.9 16.6h9.4c0-.5-.1-1-.1-1.5z" fill="#fbbc04"/><path class="st1" d="M99.9 47.6c-.2-.5-.7-.8-1.3-.8H74c-.6 0-1.1.3-1.3.8s-.2 1.1.2 1.5l12.3 14.6c.3.3.7.5 1.1.5.4 0 .8-.2 1.1-.5l12.3-14.6c.3-.4.4-1 .2-1.5z"/></svg>