<svg version="1.1" id="Online_Ads_2" xmlns="http://www.w3.org/2000/svg" x="0" y="0" viewBox="0 0 100 100" xml:space="preserve"><style>.st0{fill:#fff}.st1{fill:#1e8e3e}.st2{fill:#fbbc04}.st3{fill:#616161}.st4{fill:#0d652d}</style><circle class="st0" cx="67.3" cy="22.6" r="10.6"/><path class="st0" d="M67 36.2h.6c8.3 0 15.1 6.7 15.1 15v16.5c0 .9-.7 1.7-1.7 1.7H53.6c-.9 0-1.7-.7-1.7-1.7V51.3C52 43 58.7 36.2 67 36.2z"/><circle class="st0" cx="32.7" cy="22.6" r="10.6"/><path class="st0" d="M32.4 36.2h.6c8.3 0 15 6.7 15 15v16.5c0 .9-.7 1.7-1.7 1.7H19c-.9 0-1.7-.7-1.7-1.7V51.3c0-8.3 6.8-15.1 15.1-15.1z"/><path class="st0" d="M40.1 52.1h16.2v9.7H40.1z"/><path class="st1" d="M49.7 60.4h.6c8.3 0 15 6.7 15 15.1v10.8c0 .9-.7 1.7-1.6 1.7H36.3c-.9 0-1.7-.7-1.7-1.7V75.5c0-8.4 6.8-15.1 15.1-15.1z"/><path class="st2" d="M57.9 72.3H53c-.8 0-1.5-.7-1.5-1.5s.7-1.5 1.5-1.5h4.9c.8 0 1.5.7 1.5 1.5s-.6 1.5-1.5 1.5z"/><path class="st3" d="M84.3 60.4h.6c8.3 0 15.1 6.7 15.1 15.1v10.8c0 .9-.7 1.7-1.6 1.7H70.9c-.9 0-1.7-.7-1.7-1.7V75.5c.1-8.4 6.8-15.1 15.1-15.1z"/><path class="st2" d="M92.6 72.3h-4.9c-.8 0-1.5-.7-1.5-1.5s.7-1.5 1.5-1.5h4.9c.8 0 1.5.7 1.5 1.5s-.7 1.5-1.5 1.5z"/><circle class="st3" cx="84.6" cy="46.8" r="10.6"/><circle class="st1" cx="50" cy="46.8" r="10.6"/><g><path class="st4" d="M15.1 60.4h.6c8.3 0 15 6.7 15 15.1v10.8c0 .9-.7 1.7-1.6 1.7H1.7c-1 0-1.7-.8-1.7-1.7V75.5c0-8.4 6.7-15.1 15.1-15.1z"/><path class="st2" d="M23.3 72.3h-4.9c-.8 0-1.5-.7-1.5-1.5s.7-1.5 1.5-1.5h4.9c.8 0 1.5.7 1.5 1.5s-.7 1.5-1.5 1.5z"/><circle class="st4" cx="15.4" cy="46.8" r="10.6"/></g></svg>