<svg xmlns="http://www.w3.org/2000/svg" viewBox="0 0 100 100"><path fill="none" d="M71.4 80.7H98"/><path d="M98 82.2H71.4c-.8 0-1.5-.7-1.5-1.5s.7-1.5 1.5-1.5H98c.8 0 1.5.7 1.5 1.5s-.7 1.5-1.5 1.5z" fill="#fbbc04"/><path fill="#aaa" d="M97 79.2h3v8.1h-3z"/><path fill="#9aa0a6" d="M80 45h7.4v27.9H80z"/><path d="M44 13c20.5 0 37.2 16.7 37.2 37.2v31.1c0 3.4-2.7 6.1-6.1 6.1H30.4c-13 0-23.6-10.6-23.6-23.7V50.2C6.8 29.7 23.4 13 44 13z" fill="#4285f4"/><path d="M43.9 25.7c13.6 0 24.6 11 24.6 24.5S57.5 74.7 44 74.7h-.1c-13.5 0-24.5-11-24.5-24.5s11-24.5 24.5-24.5z" fill="#fff"/><path d="M43.9 32.9c9.6 0 17.3 7.7 17.3 17.3 0 9.5-7.7 17.3-17.3 17.3h-.1c-9.5 0-17.3-7.7-17.3-17.3.2-9.5 7.9-17.3 17.4-17.3z" fill="#616161"/></svg>