<svg version="1.1" id="Home_Page_1" xmlns="http://www.w3.org/2000/svg" x="0" y="0" viewBox="0 0 100 100" xml:space="preserve"><style>.st0{fill:#aaa}</style><path class="st0" d="M33.7 40.2H1.5c-.8 0-1.5-.7-1.5-1.5s.7-1.5 1.5-1.5h32.2c.8 0 1.5.7 1.5 1.5s-.7 1.5-1.5 1.5zM37.7 49.1H5.5c-.8 0-1.5-.7-1.5-1.5s.7-1.5 1.5-1.5h32.2c.8 0 1.5.7 1.5 1.5s-.7 1.5-1.5 1.5zM41.7 58H9.5c-.8 0-1.5-.6-1.5-1.5S8.7 55 9.5 55h32.2c.8 0 1.5.7 1.5 1.5s-.7 1.5-1.5 1.5z"/><path d="M49.3 6.1L16.5 17.6c-.9.3-1.5 1.2-1.5 2.1v43.1c0 15.7 28.8 28.6 34.3 31 .6.2 1.2.2 1.8 0 5.4-2.3 34.3-15.2 34.3-31V19.7c0-1-.6-1.8-1.5-2.2l-33-11.4c-.6-.1-1.1-.1-1.6 0z" fill="#4285f4"/><circle cx="50.1" cy="47.6" r="23.6" fill="#fff"/><path d="M46.1 60.6L34.9 49.3c-.4-.4-.4-1.1 0-1.5l3.4-3.3c.4-.4 1.1-.4 1.5 0l6.7 6.8 13.7-16.5c.4-.5 1.1-.5 1.5-.1l3.6 3c.4.4.5 1.1.1 1.5L47.6 60.6c-.4.4-1 .5-1.5 0 0 .1 0 .1 0 0z" fill="#fbbc04"/></svg>