<svg version="1.1" id="Domain_Search_3" xmlns="http://www.w3.org/2000/svg" x="0" y="0" viewBox="0 0 100 100" xml:space="preserve"><style>.st0{fill:#fff}.st1{fill:#4285f4}.st2{fill:#fbbc04}.st3{fill:#f9f9f9}</style><path class="st0" d="M61.7 76.7H2.1c-1.1 0-2-.9-2-2V39.3c0-1.1.9-2 2-2h59.6c1.1 0 2 .9 2 2v35.4c0 1.1-.9 2-2 2z"/><path class="st0" d="M23.6 75.8l-8.9 9.9c-.7.8-1.9.9-2.7.2-.4-.4-.7-.9-.6-1.5l.1-9.9c0-1.1.9-1.9 1.9-1.9h8.9c1.1 0 1.9.8 2 1.9-.1.4-.3.9-.7 1.3z"/><path class="st1" d="M69.8 63.1l15.4 17c.7.8 1.9.9 2.7.2.4-.4.7-.9.6-1.5l-.2-17.1c0-1.1-.9-1.9-1.9-1.9l-15.2.1c-1.1 0-1.9.9-1.9 1.9 0 .5.2.9.5 1.3z"/><path class="st2" d="M44.2 49.3H9.3c-.8 0-1.5-.7-1.5-1.5s.7-1.5 1.5-1.5h34.8c.8 0 1.5.7 1.5 1.5s-.6 1.5-1.4 1.5zM44.2 56.6H9.3c-.8 0-1.5-.7-1.5-1.5s.7-1.5 1.5-1.5h34.8c.8 0 1.5.7 1.5 1.5s-.6 1.5-1.4 1.5z"/><path class="st1" d="M28.4 13.7h69.5c1.1 0 2 .9 2 2v45.9c0 1.1-.9 2-2 2H28.4c-1.1 0-2-.9-2-2V15.7c0-1.1.8-2 2-2z"/><path class="st3" d="M48.8 36.6h9.6c1.2 0 2.2 1 2.2 2.2v7.4c0 1.2-1 2.2-2.2 2.2H51c-1.2 0-2.2-1-2.2-2.2v-9.6z"/><path class="st3" d="M51.7 36.8h-2.9c0-5.5 4.5-10 10-10v2.9c-4 0-7.1 3.2-7.1 7.1zM65.6 36.6h9.7c1.2 0 2.2 1 2.2 2.2v7.4c0 1.2-1 2.2-2.2 2.2h-7.4c-1.2 0-2.2-1-2.2-2.2l-.1-9.6z"/><path class="st3" d="M68.4 36.8h-2.9c0-5.5 4.5-10 10-10v2.9c-3.9 0-7 3.2-7.1 7.1z"/></svg>