<svg xmlns="http://www.w3.org/2000/svg" viewBox="0 0 100 100"><path d="M17 60.8l38-45.7c.5-.5 1.1-.8 1.7-.8h30c1.1 0 2 .7 2.2 1.8l5.5 29.5c.1.6-.1 1.3-.5 1.8L56.1 93.1c-.8.9-2.2 1.1-3.2.3L17.3 64c-.9-.9-1.1-2.2-.3-3.2z" fill="#34a853"/><path d="M58.6 57.7l-4.7-4.8c-.5-.5-.5-1.2-.3-1.8l3.1-6c.4-.7.1-1.7-.6-2.1-.1-.1-.3-.1-.4-.2l-6.6-1.6c-.6-.2-1.1-.8-1.1-1.4l-.7-6.8c-.1-.8-.8-1.5-1.6-1.5-.1 0-.3 0-.4.1l-6.4 2.3c-.6.3-1.4 0-1.7-.5L32.9 28c-.5-.6-1.6-.8-2.2-.3l-.3.3-4.2 5.4c-.5.5-1.1.7-1.7.5l-6.4-2.3c-.8-.3-1.7.2-2 .9 0 .1-.1.3-.1.4l-.5 6.8c-.1.6-.5 1.3-1.2 1.4l-6.6 1.6c-.8.2-1.4 1-1.2 1.8 0 .1.1.3.2.4l3.1 6c.4.6.2 1.4-.3 1.8l-4.7 4.8c-.5.7-.5 1.7.1 2.3l.3.3 5.9 3.4c.5.4.9 1 .7 1.6l-1.3 6.7c-.2.8.5 1.6 1.3 1.8h.4l6.8-.4c.4 0 .7.1 1 .3.3.2.5.4.5.7l2.5 6.3c.4.8 1.3 1.2 2 .9.1-.1.2-.1.4-.2l5.5-3.9c.5-.4 1.3-.4 1.8 0l5.5 3.9c.7.5 1.6.4 2.2-.4.1-.1.2-.2.2-.4l2.5-6.3c.3-.6.8-1 1.6-1l6.8.4c.8 0 1.6-.6 1.6-1.5v-.4l-1.4-6.7c-.1-.6.2-1.4.8-1.6l5.9-3.4c.7-.5 1-1.4.5-2.1-.1.1-.2-.1-.3-.1z" fill="#fbbc04"/><path d="M77.3 29.4c-.3 0-.7-.1-1-.3-.6-.5-.7-1.5-.2-2.1L93 6.6c.5-.7 1.4-.7 2.1-.2.6.5.7 1.5.2 2.1L78.5 28.8c-.3.4-.7.6-1.2.6z" fill="#aaa"/><circle cx="72.2" cy="34" r="10.9" fill="#fff"/></svg>