<svg version="1.1" id="Home_Page_2" xmlns="http://www.w3.org/2000/svg" x="0" y="0" viewBox="0 0 100 100" xml:space="preserve"><style>.st0{fill:#e0e0e0}.st1{fill:#aaa}.st3{fill:#fff}.st4{fill:#fbbc04}</style><path class="st0" d="M45.3 35.8h8.5v53c0 2.3-1.9 4.1-4.1 4.1h-.3c-2.3 0-4.1-1.9-4.1-4.1v-53z"/><path class="st1" d="M45.3 69.5h8.5v5.1zM53.8 35.6h-8.5v5.1z"/><path class="st0" d="M38 85.9h24c1.6 0 2.8 1.2 2.8 2.8v2.1c0 1.6-1.2 2.8-2.8 2.8H38c-1.6 0-2.8-1.2-2.8-2.8v-2.1c0-1.5 1.2-2.8 2.8-2.8z"/><g><path d="M87.4 36.1h-72c-.8 0-1.5-.4-2-.9L4 22.8c-.7-.8-.7-2.1 0-3l9.4-12.4c.5-.6 1.2-.9 2-.9h72.1c1.4 0 2.4 1.1 2.4 2.4v24.7c.1 1.4-1.1 2.5-2.5 2.5z" fill="#4285f4"/><path class="st3" d="M76.2 28.1H44.5c-3.9 0-7.1-3.3-7.1-7.2 0-.5.1-.9.2-1.4.7-3 3.4-5.1 6.4-5.1h31.7c3.9 0 7.1 3.3 7.1 7.2 0 .5-.1.9-.2 1.4-.7 3.1-3.3 5.1-6.4 5.1z"/><circle class="st4" cx="24.2" cy="21.3" r="6.9"/><path d="M12.6 40.6h72.1c.8 0 1.5.4 2 .9l9.4 12.4c.7.8.7 2.1 0 3l-9.4 12.4c-.5.6-1.2.9-2 .9H12.6c-1.3 0-2.4-1-2.4-2.3V43.1c-.2-1.4 1-2.5 2.4-2.5z" fill="#ea4335"/><path class="st3" d="M76.2 62.3H44.5c-3.9 0-7.1-3.3-7.1-7.2 0-.5.1-.9.2-1.4.7-3 3.4-5.1 6.4-5.1h31.7c3.9 0 7.1 3.3 7.1 7.2 0 .5-.1.9-.2 1.4-.7 3-3.3 5.1-6.4 5.1z"/><circle class="st4" cx="24.2" cy="55.4" r="6.9"/></g></svg>