<svg version="1.1" id="Domain_Search_2" xmlns="http://www.w3.org/2000/svg" x="0" y="0" viewBox="0 0 100 100" xml:space="preserve"><style>.st0{fill:#fff}.st1{fill:#e0e0e0}.st3{fill:#fbbc04}</style><path class="st0" d="M49.9 0h.2C77.7 0 100 22.4 100 50s-22.3 50-49.9 50h-.2C22.3 100 0 77.6 0 50S22.3 0 49.9 0z"/><path class="st1" d="M71.9 84h-34C30.2 84 24 77.8 24 70.1v-.4c0-7.7 6.2-13.9 13.9-13.9H72c7.7 0 13.9 6.2 13.9 13.9v.4c-.1 7.6-6.3 13.9-14 13.9zM61.9 44.5h-34c-7.7 0-13.9-6.3-13.9-13.9v-.4c0-7.7 6.2-13.9 13.9-13.9H62c7.7 0 13.9 6.2 13.9 13.9v.4c-.1 7.6-6.3 13.9-14 13.9z"/><circle cx="32.9" cy="69.8" r="18.9" fill="#616161"/><path class="st3" d="M38 76.2c-.3 0-.6-.1-.9-.4L26.9 65.6c-.5-.5-.5-1.3 0-1.8s1.3-.5 1.8 0L39 74c.5.5.5 1.3 0 1.8-.3.3-.8.4-1 .4z"/><path class="st3" d="M27.8 76.2c-.3 0-.6-.1-.9-.4-.5-.5-.5-1.3 0-1.8l10.3-10.3c.5-.5 1.3-.5 1.8 0s.5 1.3 0 1.8L28.6 75.8c-.2.3-.5.4-.8.4z"/><g><circle cx="66.9" cy="30.4" r="19.1" fill="#4285f4"/><path class="st0" d="M65.2 37.5l-6.5-6.6c-.5-.5-.5-1.3 0-1.8s1.3-.5 1.8 0l4.6 4.6 8.4-10.1c.4-.5 1.2-.6 1.8-.2.5.4.6 1.2.2 1.8L65.2 37.5z"/></g></svg>