<svg version="1.1" id="Layer_1" xmlns="http://www.w3.org/2000/svg" xmlns:xlink="http://www.w3.org/1999/xlink" x="0" y="0" viewBox="0 0 1413.3 1117" xml:space="preserve"><style>.st0{fill:#f5f5f5}.st1{fill:#fff}.st2{fill:#aaa}.st3{fill:#b3e4ff}.st4{fill:#e3f6ff}.st5{fill:#3369e8}.st6{fill:#616161}.st7{fill:#f29900}.st8{fill:#332821}.st9{fill:#ffc105}.st10{fill:#bf795e}.st11{fill:#68230e}.st12{fill:#0d3575}.st13{fill:#493626}.st14{fill:#c18053}.st15{opacity:.6;enable-background:new}.st16{fill:#e0e0e0}.st22{fill:#ffc49c}.st23{fill:#009925}.st26{fill:#174417}.st33{fill:#c4c4c4}</style><path class="st0" d="M1267 377.3h128s-11.3-12.2-17-15.3c-5.7-3.1-20.7-5-29.5 0 0 0-5.1-34.5-38.3-39.5-29.5-4.4-34.3 16.2-34.3 16.2l-8.9 38.6zM81.1 470h366.6l38-185.8s-64.1-12.3-108.4 51.1-55.1 16.6-106.1 30.1-77 59.6-77 59.6-21.3-11.4-50.4-6.9c-29.1 4.5-48.5 31.7-48.5 31.7s-32.5-10.4-54.1 0S.1 469.9.1 469.9l81 .1zM88.1 1117s109.3-87.7 167-136.5 146.3-34.3 162.6 28.8C434 1072.4 607 828.8 785 845.7s286.9 90.2 423.8 30.5 88.3-390 204.5-412.5V1117H88.1z"/><path class="st1" d="M1130.6 941l-810.5.1c-4.4 0-8-3.6-8-8 0-.6.1-1.2.2-1.8l190.4-825c.8-3.6 4.1-6.2 7.8-6.2H1321c4.4 0 8 3.6 8 8 0 .6-.1 1.2-.2 1.8l-190.4 825c-.9 3.6-4.1 6.1-7.8 6.1z"/><path class="st2" d="M320.1 941.8c-2.3 0-4.5-.9-6.2-2.6s-2.6-3.8-2.6-6.2c0-.7.1-1.3.2-2l190.4-825c.9-4 4.4-6.8 8.5-6.8h810.5c4.8 0 8.7 3.9 8.8 8.7 0 .7-.1 1.3-.2 2l-190.4 825c-.9 4-4.4 6.8-8.5 6.8v-.8.8l-810.5.1zm1000.9-841H510.5c-3.4 0-6.3 2.3-7.1 5.6L313 931.4c-.1.5-.2 1.1-.2 1.6 0 1.9.8 3.8 2.1 5.1 1.4 1.4 3.2 2.1 5.1 2.1l810.5-.1c3.4 0 6.3-2.3 7.1-5.6l190.4-825c.1-.5.2-1.1.2-1.6 0-3.9-3.2-7.1-7.2-7.1z"/><path class="st1" d="M590.7 123.9l672.9.5c4.6 0 8.4 3.7 8.4 8.4 0 4.6-3.7 8.4-8.4 8.4l-672.9-.5c-4.6 0-8.4-3.7-8.4-8.4s3.8-8.4 8.4-8.4z"/><path class="st2" d="M1263.6 141.9l-672.9-.5c-5 0-9.1-4.1-9.1-9.1s4.1-9.1 9.1-9.1l672.9.5c5 0 9.1 4.1 9.1 9.1s-4.1 9.1-9.1 9.1zm-672.9-17.3c-4.2 0-7.6 3.4-7.6 7.6s3.4 7.6 7.6 7.6l672.9.5c4.2 0 7.6-3.4 7.6-7.6s-3.4-7.6-7.6-7.6l-672.9-.5z"/><path class="st3" d="M337.8 917.3l172.3-755.5 785.4-.1-176 755.6z"/><path class="st4" d="M510.1 161.8l785.4-.1-72 309.5z"/><path class="st2" d="M375.7 745.8h-41c-5.2 0-9.4-4.2-9.4-9.4V696h59.8v40.4c0 5.2-4.2 9.4-9.4 9.4zm-47.4-46.9v37.4c0 3.5 2.9 6.4 6.4 6.4h41c3.5 0 6.4-2.9 6.4-6.4v-37.4h-53.8z"/><path class="st2" d="M385.1 699h-59.8v-7.9c0-16.5 13.4-29.9 29.9-29.9s29.9 13.4 29.9 29.9v7.9zm-56.8-3.1h53.8V691c0-14.8-12.1-26.9-26.9-26.9-14.8 0-26.9 12.1-26.9 26.9v4.9z"/><path class="st1" d="M1044.4 1071.8l-703.7.1c-4.4 0-8-3.6-8-8 0-.6.1-1.2.2-1.8L393.3 807c.8-3.6 4.1-6.2 7.8-6.2l703.7-.1c4.4 0 8 3.6 8 8 0 .6-.1 1.2-.2 1.8l-60.4 255.2c-.9 3.6-4.1 6.1-7.8 6.1z"/><path class="st1" d="M523.7 828.1l521.9.4c9.4 0 16.9 7.6 16.9 16.9 0 9.4-7.6 16.9-16.9 16.9l-521.9-.4c-9.4 0-16.9-7.6-16.9-16.9-.1-9.4 7.5-16.9 16.9-16.9z"/><path class="st2" d="M1045.6 863l-521.9-.4c-9.7 0-17.7-7.9-17.7-17.7s7.9-17.7 17.7-17.7l521.9.4c9.7 0 17.7 7.9 17.7 17.7 0 9.7-8 17.7-17.7 17.7zm-521.9-34.2c-8.9 0-16.2 7.3-16.2 16.2 0 8.9 7.3 16.2 16.2 16.2l521.9.4c8.9 0 16.2-7.3 16.2-16.2s-7.3-16.2-16.2-16.2l-521.9-.4z"/><path class="st5" d="M446.6 864.4l-14.2-13.5c-.6-.6-.6-1.5-.1-2.1.6-.6 1.5-.6 2.1-.1l11.9 11.3 28-34.5c.5-.6 1.5-.7 2.1-.2.6.5.7 1.5.2 2.1l-30 37z"/><path class="st2" d="M402.2 889.1h650.5v1.5H402.2z"/><path class="st1" d="M503.5 917.2l521.9.4c9.4 0 16.9 7.6 16.9 16.9 0 9.4-7.6 16.9-16.9 16.9l-521.9-.4c-9.4 0-16.9-7.6-16.9-16.9 0-9.4 7.5-16.9 16.9-16.9z"/><path class="st2" d="M1025.4 952.1l-521.9-.4c-9.7 0-17.7-7.9-17.7-17.7 0-9.8 7.9-17.7 17.7-17.7l521.9.4c9.7 0 17.7 7.9 17.7 17.7 0 9.8-7.9 17.7-17.7 17.7zm-521.9-34.2c-8.9 0-16.2 7.3-16.2 16.2s7.3 16.2 16.2 16.2l521.9.4c8.9 0 16.2-7.3 16.2-16.2s-7.3-16.2-16.2-16.2l-521.9-.4z"/><path class="st5" d="M426.4 953.6l-14.2-13.5c-.6-.6-.6-1.5-.1-2.1.6-.6 1.5-.6 2.1-.1l11.9 11.3 28-34.5c.5-.6 1.5-.7 2.1-.2.6.5.7 1.5.2 2.1l-30 37z"/><path class="st2" d="M384 979.2h652.5v1.5H384z"/><path class="st1" d="M480.5 1010.3l521.9.4c9.4 0 16.9 7.6 16.9 16.9 0 9.4-7.6 16.9-16.9 16.9l-521.9-.4c-9.4 0-16.9-7.6-16.9-16.9 0-9.3 7.6-16.9 16.9-16.9z"/><path class="st2" d="M1002.4 1045.3l-521.9-.4c-9.7 0-17.7-7.9-17.7-17.7 0-9.8 7.9-17.7 17.7-17.7l521.9.4c9.7 0 17.7 7.9 17.7 17.7s-7.9 17.7-17.7 17.7zM480.5 1011c-8.9 0-16.2 7.3-16.2 16.2 0 8.9 7.3 16.2 16.2 16.2l521.9.4c8.9 0 16.2-7.3 16.2-16.2 0-8.9-7.3-16.2-16.2-16.2l-521.9-.4z"/><path class="st5" d="M403.5 1046.8l-14.3-13.5c-.6-.6-.6-1.5-.1-2.1.6-.6 1.5-.6 2.1-.1l11.9 11.3 28-34.5c.5-.6 1.5-.7 2.1-.2.6.5.7 1.5.2 2.1l-29.9 37z"/><path transform="rotate(-65.745 457.626 701.843)" class="st2" d="M408.5 700.3h98.2v3h-98.2z"/><path transform="rotate(-65.745 477.602 701.866)" class="st2" d="M428.5 700.3h98.1v3h-98.1z"/><path class="st2" d="M435.2 691.2c-1.8 0-3.2-1.5-3.2-3.2s1.5-3.2 3.2-3.2c1.7 0 3.2 1.5 3.2 3.2s-1.4 3.2-3.2 3.2zm0-3.5c-.1 0-.2.1-.2.2 0 .3.5.3.5 0 0-.1-.1-.2-.3-.2zM435.3 718.3c-1.8 0-3.2-1.5-3.2-3.2s1.5-3.2 3.2-3.2c1.7 0 3.2 1.5 3.2 3.2s-1.5 3.2-3.2 3.2zm0-3.5c-.1 0-.2.1-.2.2 0 .3.5.3.5 0-.1-.1-.2-.2-.3-.2zM1081.7 941.1l30.9-130.6V941z"/><circle class="st1" cx="541.3" cy="132.5" r="8.4"/><path class="st2" d="M541.3 141.7c-5 0-9.1-4.1-9.1-9.1s4.1-9.1 9.1-9.1 9.1 4.1 9.1 9.1-4 9.1-9.1 9.1zm0-16.8c-4.2 0-7.6 3.4-7.6 7.6s3.4 7.6 7.6 7.6c4.2 0 7.6-3.4 7.6-7.6 0-4.2-3.4-7.6-7.6-7.6z"/><path class="st6" d="M1058.7 402.2s44.9 30.2 56.9 108.8 15.1 124.5 15.1 124.5l-344.7.2S827.6 413.5 911.2 382s147.5 20.2 147.5 20.2z"/><path class="st1" d="M1090.5 635.7c-12.5-138.9-27.2-189.9-27.4-190.4l1-.3c.1.5 14.9 51.6 27.4 190.6l-1 .1z"/><path class="st7" d="M1009.2 444.7s4.3 53.3 40.7 50.1c33.8-2.9 38.8-48 38.8-63.5s1.8-59.7-21-66.5c-22.8-6.8-58.5 79.9-58.5 79.9z"/><path class="st8" d="M901.5 121.6s4 21.6-20.1 28.8c-18.6 5.5-73.2 41.3-41.8 101.5 34.2 65.4 151.9 8.2 152.9-7.2 1-15.4-91-123.1-91-123.1z"/><path class="st1" d="M933.1 154c-5.8 0-11.8 7-12.7 23-.4 8 3.3 22.1 13.5 22.1 6.7 0 13.4-6.5 13.4-18.2 0-21.8-9.3-27-14.2-26.9zm1.7 22.5c-5.2.5-4.6-20-1-20 3.6 0 8.1 19.2 1 20z"/><path class="st9" d="M941 211.2s-45 6.6-52.7 9.9c-7.7 3.3-13.5 13.2-21.5 26-8.1 12.8-51.5 88.2-51.5 88.2l41.1-2.9 31.1 61.4 123 22.5 47.5-59.9c9.7 7.4 17.3 17.2 21.9 28.5 8.7 22.1 9.7 57.2 1.8 82.8 0 0 22-48.3 25.8-60.8 3.8-12.5 6.4-34.8 5.1-48-1.3-13.2-19.5-93.3-24.2-109.4s-5.6-27.5-23.2-30.8c-17.6-3.3-61.1-9.8-61.1-9.8l-63.1 2.3z"/><path class="st5" d="M892.9 394.6h37.8c9.6 0 17.4 6.5 24.1 15.6s25.5 33.3 54.4 34.4c28.9 1 62.1-29.3 66-55.3 3.9-26 4.4-48.6-19.7-79.4-24.2-30.8-25.3-41.4-24.3-60.8l-11.4 9.6c-2.7-.7-5.5-.2-7.8 1.3-3.9 2.7-4.9 4.5-4.9 4.5-8.6 2.6-17 6.1-25 10.4-14 7.5-32.7 25-46.2 48.1s-23.5 55.3-43 71.6z"/><path class="st10" d="M901.5 121.6s2.2 26.9 3.3 34c1.1 7.1 8.7 23.8 35.4 22l2 27.7s1.3 3.5-15 9.1c-7 2.4-20.7 11.5-5.4 22.1 18.4 12.7 55.8 9.6 76.8 0 24.3-11.1 13.6-25 5.8-27.7-7.8-2.7-10.9-5.9-11.8-9.4s-1.2-27.4-1.8-37.4c-.6-10 20.4-28.9 8-49s-53.6-27.2-69.4-24.5-27.9 33.1-27.9 33.1z"/><path class="st11" d="M940.2 177.7s10.5-.8 18.2-4.6l-17.2 17.8-1-13.2z"/><path d="M858.5 445.1l150.3-.4s-55-51-79-51.2c-26.1 0-44.6 12.1-71.3 51.6z"/><path class="st9" d="M802.5 393.7s-7.8-11.3-3.4-25.2c4.4-13.9 16.2-33.3 16.2-33.3l41.1-2.9 105-54.7-12.2 28.5s-11.9 14.3-25.6 40.9c-8.8 16.8-19 32.8-30.7 47.7l-90.4-1z"/><path class="st12" d="M729 399.8c3.3-3.9 8.2-6.2 13.3-6.1l188.4-.1s-21.9-3.4-48.9 22.7c-27 26.1-50.9 87.7-50.9 87.7l-35.2-14.9-66.7-89.3z"/><path class="st8" d="M901.5 121.6c12.5.8 28.1-2.6 37-7 8.9-4.4 21.9-12.1 22.4 0s.5 16.6 5.4 17.4c4.9.8 8.5-6 10.6-10.4 3.4-7.4 9.2-8.6 13.9-5.7 5.3 3.3 7 12.6-.9 24-3.7 5.3-.5 32.6 1.1 46s-2.1 20.3 13.4 22.8 47.6 6.4 61.1 9.8c13.5 3.4 16.5 7.8 20.3 20.3 3.8 12.5 7.6 31.9 7.6 31.9s107.5-.4 110.6-110.6c3.1-110.2-92.1-99-118.6-101.4-26.5-2.4-46.1-17.5-55.5-31.1-9.4-13.5-28.2-37.4-61.8-23.1-33.6 14.3-21.8 55.1-44.5 67.1-22.7 12-29.9 5.7-37.3 23-7.2 16.9 7 26.5 15.2 27z"/><path class="st10" d="M1076.6 377.8s-4.4 9.8-7.5 10.1c-3.1.3-9.8 1.1-15.2 6.8-5.4 5.7-7 10.7-12.8 15.7-5.8 5-.5 6.2 3.1 5.8 3.6-.4 14.8-13.5 18.9-10.1 4.1 3.4-2.8 11.7-6.4 16.5-3.6 4.8-18.1 14-18.1 14s13-.8 16.4-1.1c3.4-.3 6.3-1.2 10.1-4.8 3.8-3.6 21-20.6 21-20.6-1.1-11.3-4.3-22.2-9.5-32.3zM964.3 280.2s8.8-2.9 11.5-4.3c2.7-1.4 5.1-9.1 11.4-11.2 6.3-2 16.1-5.2 18.5-6.2 2.4-1 7.8-3.4 10 .1 0 0-4.2.8-8.6 6 0 0-18.5 5.9-32.6 15.2-14.1 9.3-25.1 26.4-25.1 26.4s2.9-16.1 14.9-26zM1031.2 263.6s3.1-2.4 5.8-4.7c2.3-1.9 2.3-3.1 3.6-7.9 1.3-4.8 1.3-4.8-1.4-5.4-3-.7-8 3.6-8 3.6s-1.1 3.5 0 14.4z"/><path d="M1051.8 305.3s-3-26.1-10.6-42.5c-.7 2-1.7 3.9-3 5.6-1.8 1.9-4.9 5-4.9 5s4 14.8 18.5 31.9z"/><path class="st7" d="M892.9 284.1l-26.5 43.5 23.2-11.1z"/><path transform="rotate(-25.511 910.612 306.405)" class="st10" d="M850.7 305.9h120v1h-120z"/><path class="st11" d="M982.1 182.3l10.4 19.3-1.2-13.6z"/><path class="st7" d="M1046.4 277.5l38.3 67.5-9.9 1.8s-4.3-15.8-23.1-41.7l-5.3-27.6z"/><path class="st10" d="M1074.8 347.5c-.2 0-.5-.2-.5-.4-.1-.3.1-.5.4-.6l13.9-2.6c.3-.1.5.1.6.4s-.1.5-.4.6l-14 2.6z"/><path class="st1" d="M992.3 135.5c-6.8 0-14 8.3-15 27.3-.5 9.5 3.9 26.2 16.1 26.2 8 0 15.8-7.7 15.8-21.6 0-25.7-11-31.9-16.9-31.9zm2.1 26.8c-6.1.6-5.4-23.7-1.2-23.7s9.6 22.8 1.2 23.7z"/><path transform="rotate(-55.882 985.003 127.409)" class="st11" d="M979.8 126.9h10.3v1h-10.3z"/><path class="st10" d="M1033.2 273.4s4.3-3.5 5.8-6 3.7-7.1 3.5-10.7c-.2-3.5-1-3.2-1-3.2l-.2-4.9-10.3 11.1c-.1.1.3 8.9 2.2 13.7z"/><path class="st11" d="M1030.8 252.1s1.4 12.1 4.5 19.5l-2.1 1.8c-1.1-2.9-1.8-5.9-2.1-9-.4-4.1-.5-8.2-.3-12.3zM1044 432.8s9.6-4.3 12.2-7.3c2.6-3 7.5-13.9 7.5-13.9s-7.6 11-11 14.1c-3.4 3.1-8.7 7.1-8.7 7.1zM1078.4 381.4s3.5 18 4.6 24.3l1.1 6.3 1.9-1.9c-.4-4.5-1.2-9-2.1-13.4-1.3-5.3-3.1-10.4-5.5-15.3zM1000.3 267l10-5.6-3.3 3.2z"/><path transform="rotate(-4.372 1014.635 622.242) scale(1.00001)" class="st1" d="M1014.1 608.6h1v27.3h-1z"/><path class="st5" d="M470.8 635.6l30.6-101.3 127.3-2.9 34.3 35.1 24.8 69.2z"/><path class="st13" d="M505.8 219.1l6.7 91.2 50.1-10.2-4.9-45.5z"/><path class="st1" d="M804.8 470.3c-1.3-14.3-7.1-27.9-16.6-38.7-27.3-30.9-83.8-95-92.9-104.1-12.1-12.1-28.8-24.7-49-26.4-20.2-1.7-93-2-93-2s-18.2.7-33 0c-9.5-.4-38 13.2-51.8 22.3-13.8 9.1-112.4 68.8-112.4 68.8l-40.8-117.4h-29s12.7 138.6 13 152.6c.4 23.9 23.5 50.6 54.8 32.1 31.4-18.5 114.4-70 114.4-70s-8.4 10.6-2.7 30.4l35.6 116.3 131.3 3c.6-.2.6-18.2.7-18.8l27-122.4 53.8 52.2 92.4 42.8-1.8-20.7z"/><path class="st14" d="M490.9 208.2c.4 13.2 6.2 35 9.7 47.4 3.6 12.4 23 26.1 45.5 17.8l4.2 29.7s-20.7 16.8-11.7 33.8c7.9 14.9 47.1 4.7 59.2-10.1 12.8-15.9 10.6-26.7 10.6-26.7l-5.3-3-7.8-67s10.6-51.6-3-65.2c-13.6-13.6-64.1-14.2-79.5-3.6-15.3 10.9-22.4 25.5-21.9 46.9zM333.6 242.3s.5 2.8-3.5 3.4c-8.9 1.3-10.5 5.8-14.4 8.8-3.9 3-4.5 5.1-2.6 10.8 1.8 5.5 2.2 7.4 2.2 7.4h-29c-1.7-2.2-3.5-4.2-5.6-6-5.9-5.3-17.6-6.6-25.4-6.8-25.5-.6-24.7-2-36.8-9.1-4.2-2.5-10.6-3.8-14.2-5.4-2.8-1.2-3.4-3.1-3.4-3.1h64.9c1.7 0 3.3.5 4.7 1.4 3.5 2.7 12.1 7.2 20.1 6.2 9.4-1.1 14.2-3 18.2-5.7 3.2-2.2 8.2-2 8.2-2l16.6.1z"/><path class="st5" d="M141.6 240.6H392v1.8H141.6zM324.6 234.5c-17 0-31-13.7-31.3-30.7v-.9l62.6-.1v.9c-.3 16.9-13.8 30.4-30.7 30.8h-.6zm-29.5-29.8c.4 7.5 3.5 14.6 9 19.8 5.7 5.5 13.1 8.4 21 8.3 15.7-.3 28.2-12.6 28.9-28.1h-58.9zM200.8 234.5h-.5c-16.9-.3-30.4-13.8-30.8-30.7v-.9l62.6-.1v.9c-.3 17.3-14.3 30.9-31.3 30.8zm-29.5-29.8c.8 15.5 13.3 27.8 29 28.1 16 .2 29.3-12.3 30-28.1h-59zM256.9 227.8l-9.8-48.7h40.1l-10.7 48.7h-19.6zm-7.5-46.9l9.1 45.1h16.8l10-45.2-35.9.1zM248.2 231.4h38v1.8h-38zM362.5 216.1c-3 0-5.4-2.4-5.4-5.4 0-3 2.4-5.4 5.4-5.4 3 0 5.4 2.4 5.4 5.4 0 3-2.4 5.4-5.4 5.4zm0-9.1c-2 0-3.7 1.6-3.7 3.7s1.6 3.7 3.7 3.7 3.7-1.6 3.7-3.7-1.7-3.7-3.7-3.7zM238.5 216.1c-3 0-5.4-2.4-5.4-5.4 0-3 2.4-5.4 5.4-5.4s5.4 2.4 5.4 5.4c0 3-2.4 5.4-5.4 5.4zm0-9.1c-2 0-3.7 1.6-3.7 3.7s1.6 3.7 3.7 3.7 3.7-1.6 3.7-3.7-1.7-3.7-3.7-3.7z"/><path class="st13" d="M491.2 213.1s3.2.1 8.9-19.3c0 0 9.4 16.7 41.3 25.2 0 0 1.3 7.9 2.3 11.5 1 3.6 8.9 4.3 8.2-1.3s-3-19.2 4.1-28.8c6.4-8.7 21.9-6.1 23.2 6.5s-6.1 22.3-16.7 22.3l10 62.1 104-21.6s1.8-24.7-2.2-34.9-26.8-10.9-38.1-22-23.8-44.4-37.9-57.3c-18.3-16.6-48.7-17.1-65.2-12.3s-50.8 22.8-41.9 69.9z"/><circle class="st13" cx="539.2" cy="124.4" r="26.7"/><path d="M602.4 291.3s53.3-11.5 63.4-14.2 10.7-7.5 10.7-7.5l-74.8 15.5.7 6.2z"/><path class="st9" d="M627.1 380.3h-40.6c-.5 0-.9-.4-.9-.9 0-.1 0-.2.1-.3l4.2-10.3c.1-.3.5-.6.8-.6h40.6c.5 0 .9.4.9.9 0 .1 0 .2-.1.4l-4.2 10.3c-.1.3-.4.5-.8.5z"/><g class="st15"><path class="st11" d="M546.1 273.5l16.4-7-13.6 27z"/></g><path class="st11" d="M592.3 287.2l10.1 4.1-.7-6z"/><g class="st15"><path class="st11" d="M200.9 242.2l80.1 6.6-13.2-6.5z"/></g><g class="st15"><path class="st11" d="M306.4 245.7l14.3-3.5s-6-.5-9.7.9c-1.7.7-3.3 1.5-4.6 2.6z"/></g><path transform="rotate(-56.796 564.418 212.077)" class="st13" d="M557.2 211.6h14.3v1h-14.3z"/><path class="st16" d="M660.4 396.1l-5.6-5.7-108.9 144.3 86.8 3.7zM520.3 299.2l24.3 10 5.7-6.1-.6-4.3z"/><path class="st12" d="M585.2 572.6l97.7 49.1-22.6-62.8z"/><defs><path id="SVGID_1_" d="M804.8 470.3c-1.3-14.3-7.1-27.9-16.6-38.7-27.3-30.9-83.8-95-92.9-104.1-12.1-12.1-28.8-24.7-49-26.4-20.2-1.7-93-2-93-2s-18.2.7-33 0c-9.5-.4-38 13.2-51.8 22.3-13.8 9.1-112.4 68.8-112.4 68.8l-40.8-117.4h-29s12.7 138.6 13 152.6c.4 23.9 23.5 50.6 54.8 32.1 31.4-18.5 114.4-70 114.4-70s-8.4 10.6-2.7 30.4l35.6 116.3 131.3 3c.6-.2.6-18.2.7-18.8l27-122.4 53.8 52.2 92.4 42.8-1.8-20.7z"/></defs><clipPath id="SVGID_2_"><use xlink:href="#SVGID_1_" overflow="visible"/></clipPath><g clip-path="url(#SVGID_2_)"><path class="st16" d="M466.2 390c-.1 0-.2 0-.3-.1-.2-.2-.2-.5 0-.7l31.2-33c.2-.2.5-.2.7 0 .2.2.2.5 0 .7l-31.2 33c-.2.1-.3.1-.4.1z"/></g><defs><path id="SVGID_3_" d="M804.8 470.3c-1.3-14.3-7.1-27.9-16.6-38.7-27.3-30.9-83.8-95-92.9-104.1-12.1-12.1-28.8-24.7-49-26.4-20.2-1.7-93-2-93-2s-18.2.7-33 0c-9.5-.4-38 13.2-51.8 22.3-13.8 9.1-112.4 68.8-112.4 68.8l-40.8-117.4h-29s12.7 138.6 13 152.6c.4 23.9 23.5 50.6 54.8 32.1 31.4-18.5 114.4-70 114.4-70s-8.4 10.6-2.7 30.4l35.6 116.3 131.3 3c.6-.2.6-18.2.7-18.8l27-122.4 53.8 52.2 92.4 42.8-1.8-20.7z"/></defs><clipPath id="SVGID_4_"><use xlink:href="#SVGID_3_" overflow="visible"/></clipPath><g clip-path="url(#SVGID_4_)"><path class="st16" d="M361.4 408c-.2 0-.4-.1-.5-.3l-46.6-134.5c-.1-.3 0-.5.3-.6.3-.1.5 0 .6.3l46.6 134.5c.1.3 0 .5-.3.6h-.1z"/></g><defs><path id="SVGID_5_" d="M490.9 208.2c.4 13.2 6.2 35 9.7 47.4 3.6 12.4 23 26.1 45.5 17.8l4.2 29.7s-20.7 16.8-11.7 33.8c7.9 14.9 47.1 4.7 59.2-10.1 12.8-15.9 10.6-26.7 10.6-26.7l-5.3-3-7.8-67s10.6-51.6-3-65.2c-13.6-13.6-64.1-14.2-79.5-3.6-15.3 10.9-22.4 25.5-21.9 46.9z"/></defs><clipPath id="SVGID_6_"><use xlink:href="#SVGID_5_" overflow="visible"/></clipPath><g clip-path="url(#SVGID_6_)"><path class="st16" d="M495.7 240.9s17 8.7 49-6.3l11 33.7c.2.7-.1 1.5-.8 1.8l-26.1 9.6-35-8 1.9-30.8z"/></g><defs><path id="SVGID_7_" d="M490.9 208.2c.4 13.2 6.2 35 9.7 47.4 3.6 12.4 23 26.1 45.5 17.8l4.2 29.7s-20.7 16.8-11.7 33.8c7.9 14.9 47.1 4.7 59.2-10.1 12.8-15.9 10.6-26.7 10.6-26.7l-5.3-3-7.8-67s10.6-51.6-3-65.2c-13.6-13.6-64.1-14.2-79.5-3.6-15.3 10.9-22.4 25.5-21.9 46.9z"/></defs><clipPath id="SVGID_8_"><use xlink:href="#SVGID_7_" overflow="visible"/></clipPath><g clip-path="url(#SVGID_8_)"><path class="st16" d="M529.6 244.1c-.2 0-.4-.1-.5-.3-.1-.3 0-.5.3-.6.2-.1 19.2-6.8 21.4-20.9 0-.3.3-.5.6-.4.3 0 .5.3.4.6-2.3 14.8-21.8 21.7-22 21.7-.1-.1-.1-.1-.2-.1z"/></g><defs><path id="SVGID_9_" d="M490.9 208.2c.4 13.2 6.2 35 9.7 47.4 3.6 12.4 23 26.1 45.5 17.8l4.2 29.7s-20.7 16.8-11.7 33.8c7.9 14.9 47.1 4.7 59.2-10.1 12.8-15.9 10.6-26.7 10.6-26.7l-5.3-3-7.8-67s10.6-51.6-3-65.2c-13.6-13.6-64.1-14.2-79.5-3.6-15.3 10.9-22.4 25.5-21.9 46.9z"/></defs><clipPath id="SVGID_10_"><use xlink:href="#SVGID_9_" overflow="visible"/></clipPath><g clip-path="url(#SVGID_10_)"><path class="st16" d="M555.1 269.6c-.1 0-.3-.1-.4-.2-.2-.2-.2-.5 0-.7.1-.1 11.1-11 10.7-39.6 0-.3.2-.5.5-.5s.5.2.5.5c.3 29.1-10.6 39.9-11.1 40.3.1.2-.1.2-.2.2z"/></g><path class="st5" d="M620.8 439.7l196.6 78.5.4.4c10.4 11.4 10.3 29-.3 40.3L608 582.1l12.8-142.4z"/><path class="st22" d="M742 571.7v54.7h54.7l-.1-59.6z"/><g class="st15"><path class="st11" d="M742 576.1l54.7 7.3-.1-16.6-54.6 4.9z"/></g><ellipse class="st12" cx="607.8" cy="509.5" rx="47.6" ry="72.5"/><path d="M685.6 465.7l-25.8 110.7 39.4-4.4z"/><path class="st23" d="M835 635.9s47.9-16.2 57.8-18.3 26.8-.7 41.6 0 71.2 2.8 91.6 5.7c20.4 2.8 40.9 12.8 40.9 12.8l-231.9-.2z"/><path class="st22" d="M897.2 524v41.8c0 10.3 10.3 36.3 47.9 31.8v26.7L930.8 636l63.3-.1 4.8-13.7V568s8.8-22.7 9.7-44c.9-21.3-19.4-37.2-33.7-37.8-17.2-.5-34.4.2-51.5 1.9-13.2 1.3-26.2 11.9-26.2 35.9z"/><path class="st5" d="M1009.6 506c1-24.6-23.9-48-55-48.8-31.1-.8-57 21.6-57.7 50"/><path transform="translate(-1.058 2.055)" class="st5" d="M897 505h167v2.1H897z"/><path class="st12" d="M979 505l25.5-19.4c2 3.5 3.4 7.3 4.3 11.2.6 2.6.9 5.3.8 8l-30.6.2z"/><path class="st7" d="M896.6 508.9c-.4 2.4 1 4.6 3.3 5.3 8.6 2.5 29 7.6 40 5.5 14.2-2.7 32.1-4.9 32.1-4.9v22.4c0 5.2 2.7 7 5.2 7.3 2.5.3 3.6-1.5 3.9-6.7.3-5.2.3-20 13.9-17s8.2 39.4-12.4 35.8c0 0 3.7 25.5 10 29.4 6.3 3.9 11.2 3.3 12.4-5.5 1.2-8.8 5.1-29.4 5.1-34.8 0-5.4-1.5-10.3 2.1-13s7-6.4 5.4-10.3c-1.6-3.9-2.4-7.6 2.4-7.6 4.9 0 13 5.5 18.5 1.8s3-9.7 3-9.7l-144.7.1-.2 1.9z"/><path class="st5" d="M736.4 439.7L933 518.3l1.2.5c14.2 4.8 10.9 39.4-1.1 40.2l-209.6 23.2 12.9-142.5z"/><ellipse class="st12" cx="723.4" cy="509.5" rx="47.6" ry="72.5"/><path class="st22" d="M825.5 475.3s6.7 19.8 13.5 23.8 8.4 6.4 8.4 6.4v115.9h48.7V506.7c0-9.6 1.2-33.2-20-38.3s-42.3-9.6-47.9-9.6h-10.4s-10.3-4-15.5-2c-3.6 1.5-7.2 3.1-10.6 5l33.8 13.5zM753.2 446.4s12.7-6.1 17.9-6.7c5.2-.6 7.8-.8 10 1.1 2.2 1.9.9 7 .9 7s3.8-.1 5.3 1c.9.7 1.7 1.5 2.2 2.5 0 0 4.9-1.1 7.3 0 2.4 1.1 5.4 5.3 5.4 5.3l-10.6 5-38.4-15.2z"/><g class="st15"><path class="st11" d="M945.1 597.7l24.2-2.8-24.2 14.6z"/></g><g class="st15"><path class="st11" d="M802.2 456.8l-10.7 5-4.2-1.7z"/></g><defs><ellipse id="SVGID_11_" cx="607.8" cy="509.5" rx="47.6" ry="72.5"/></defs><clipPath id="SVGID_12_"><use xlink:href="#SVGID_11_" overflow="visible"/></clipPath><g clip-path="url(#SVGID_12_)"><ellipse class="st4" cx="622" cy="509.5" rx="47.6" ry="72.5"/></g><defs><ellipse id="SVGID_13_" cx="723.4" cy="509.5" rx="47.6" ry="72.5"/></defs><clipPath id="SVGID_14_"><use xlink:href="#SVGID_13_" overflow="visible"/></clipPath><g clip-path="url(#SVGID_14_)"><ellipse class="st4" cx="739.6" cy="509.5" rx="47.6" ry="72.5"/></g><g class="st15"><path class="st11" d="M781.9 447.9l-10.8 5.6 3.3 1.4z"/></g><g class="st15"><path class="st11" d="M825.5 475.3s-10.2-7.2-13.1-6.8c-2 .2-4-.1-5.8-.7l18.9 7.5z"/></g><path class="st26" d="M930.8 635.9l14.3-11.6v-6.2l-20.2-.9z"/><defs><ellipse id="SVGID_15_" cx="723.4" cy="509.5" rx="47.6" ry="72.5"/></defs><clipPath id="SVGID_16_"><use xlink:href="#SVGID_15_" overflow="visible"/></clipPath><g clip-path="url(#SVGID_16_)"><path class="st3" d="M766.3 477.6h-45.8c-6.8 0-12.9-.4-14.9 3.2-8 12-8.5 46.5-1.8 60.1 3.3 8.6 6.6 8.3 14.3 8.3h45.2c.4 0 17.9-13.3 18.1-38.5.4-18.8-15-33.2-15.1-33.1z"/></g><defs><ellipse id="SVGID_17_" cx="723.4" cy="509.5" rx="47.6" ry="72.5"/></defs><clipPath id="SVGID_18_"><use xlink:href="#SVGID_17_" overflow="visible"/></clipPath><g clip-path="url(#SVGID_18_)"><path class="st3" d="M764.1 471.5h-51.4c-3.5 0-5.2-1.5-2.4-6.7 3.9-9 21.5-26.8 22.1-26.6 4.9.9 9.5 2.8 13.6 5.7 6.8 4.7 13.1 13.2 18.1 27.6z"/></g><defs><ellipse id="SVGID_19_" cx="723.4" cy="509.5" rx="47.6" ry="72.5"/></defs><clipPath id="SVGID_20_"><use xlink:href="#SVGID_19_" overflow="visible"/></clipPath><g clip-path="url(#SVGID_20_)"><path class="st3" d="M731.6 581.1c-.1 0-12-8.8-18.5-17.2-5.4-7 .3-8.5 4.2-8.5h43.1c-1.1-.3-4.2 19-28.8 25.7z"/></g><defs><ellipse id="SVGID_21_" cx="607.8" cy="509.5" rx="47.6" ry="72.5"/></defs><clipPath id="SVGID_22_"><use xlink:href="#SVGID_21_" overflow="visible"/></clipPath><g clip-path="url(#SVGID_22_)"><path class="st3" d="M650.6 477.6h-45.8c-6.8 0-13-.4-14.9 3.2-8 12-8.5 46.5-1.8 60.1 3.3 8.6 6.6 8.3 14.3 8.3h45.2c.4 0 11.8-13.1 11.9-38.3.4-18.9-8.7-33.3-8.9-33.3z"/></g><defs><ellipse id="SVGID_23_" cx="607.8" cy="509.5" rx="47.6" ry="72.5"/></defs><clipPath id="SVGID_24_"><use xlink:href="#SVGID_23_" overflow="visible"/></clipPath><g clip-path="url(#SVGID_24_)"><path class="st3" d="M648.4 471.6h-51.3c-3.5 0-5.2-1.5-2.5-6.7 3.9-9 21.5-26.8 22.1-26.6 1.6-.1 25.7 5.8 31.7 33.3z"/></g><defs><ellipse id="SVGID_25_" cx="607.8" cy="509.5" rx="47.6" ry="72.5"/></defs><clipPath id="SVGID_26_"><use xlink:href="#SVGID_25_" overflow="visible"/></clipPath><g clip-path="url(#SVGID_26_)"><path class="st3" d="M615.7 581.1c-.1.1-12-8.7-18.5-17.2-5.4-7 .3-8.5 4.2-8.5h43.4c-1.6-.2-2.4 21.1-29.1 25.7z"/></g><path class="st1" d="M599.4 513.5h42.3s-1.7 18-21.1 18.1c-21.2 0-21.2-18.1-21.2-18.1zM732.4 536.2c-.2 0-.4-.2-.5-.4l-6.3-30.1c0-.2 0-.3.1-.5l9.3-9.3-4.4-2.9c-.2-.1-.3-.4-.2-.6.1-.2.3-.4.5-.4h17.4c.2 0 .4.1.5.4.1.2 0 .4-.2.6l-4.4 2.9 9.3 9.3c.1.1.2.3.1.5l-6.3 30.1c0 .2-.3.4-.5.4h-14.4zm-5.8-30.4l6.2 29.4h13.7l6.1-29.5-9.5-9.5c-.1-.1-.2-.3-.1-.4 0-.1.1-.3.2-.4l3.5-2.3h-14.1l3.5 2.3c.1.1.2.2.2.4 0 .1 0 .3-.1.4l-9.6 9.6z"/><path class="st4" d="M678.1 531.5l85.9-59.9s-11.3-39.8-47.3-32.8c-37.1 7.2-45.9 71.2-38.6 92.7zM562.6 531.4l85.9-59.9s-11.3-39.8-47.3-32.8c-37.1 7.2-45.9 71.2-38.6 92.7z"/><g><path class="st3" d="M607.8 583.6c-27.1 0-49.1-33.2-49-74 0-40.8 22.1-74 49.2-74s49.1 33.2 49 74c-.1 40.9-22.1 74.1-49.2 74zm.1-145.1c-25.4 0-46.1 31.9-46.1 71s20.7 71 46.1 71c25.4 0 46.1-31.9 46.1-71 0-39-20.7-71-46.1-71z"/></g><g><path class="st3" d="M723.4 583.6c-27.1 0-49.1-33.2-49-74 0-40.8 22.1-74 49.2-74s49.1 33.2 49 74-22.1 74-49.2 74zm.1-145.1c-25.4 0-46.1 31.9-46.1 71s20.7 71 46.1 71c25.4 0 46.1-31.9 46.1-71s-20.7-71-46.1-71z"/></g><g><path d="M847.3 505.5l-11.5 64.2 11.5-1.3z"/></g><g class="st15"><path class="st11" d="M987.2 544.8c-.1 0-.2 0-.2-.1-.2-.1-.3-.4-.2-.7l7.2-12.4c.1-.2.4-.3.7-.2.2.1.3.4.2.7l-7.2 12.4c-.1.2-.3.3-.5.3z"/></g><g><path class="st23" d="M832.3 579.1h64.4v56.7h-64.4z"/></g><g><path class="st26" d="M732.6 585h65v50.6h-65z"/></g><g><path class="st2" d="M349.9 768.8l821.9 21 5-21.1z"/></g><g><path class="st1" d="M1133.4 1019.6l195.7-.1s-4.6-9.6-13.8-9.2-12.8-10.5-25.5-11.1c-12.7-.6-19.1 10.4-26.6 10.2-7.5-.2-10.7-25.2-43.9-24s-39.5 23.4-47.7 25c-8.2 1.5-25.5-1.8-38.2 9.2z"/></g><g><path class="st23" d="M339.7 552.9c9.6 8.9 10.3 23.7 10.3 23.7s-14.8.4-24.4-8.5c-9.6-8.9-10.3-23.7-10.3-23.7s14.8-.4 24.4 8.5z"/></g><g><path transform="rotate(-75.634 1267.16 936.144)" class="st23" d="M1265.6 902.3h3V970h-3z"/></g><g><path transform="rotate(-21.299 1285.42 935.084)" class="st23" d="M1275.7 933.5h19.2v3h-19.2z"/></g><g><circle class="st0" cx="283.2" cy="609" r="3.5"/></g><g><circle class="st0" cx="224.8" cy="819" r="8.4"/></g><g><path class="st0" d="M1212 761.6c-1 4.2-4.7 7.1-9 7.1l-873.2.2c-36.7 0-66.5-29.7-66.6-66.4.1-36.7 29.8-66.4 66.5-66.6l901.3-.2c5.2 0 9.3 4.2 9.3 9.3 0 .7-.1 1.5-.3 2.2l-28 114.4z"/></g><g id="SVGID-6"><path class="st0" d="M635.7 749.9l-307.6-.2 2.5-100.2 305.2.2c30 0 54.4 22.4 54.4 50.1-.1 27.7-24.4 50.1-54.5 50.1z"/></g><g><circle class="st0" cx="330.3" cy="699.5" r="64.2"/></g><g><circle class="st1" cx="330.3" cy="699.5" r="50.1"/></g><g><path class="st5" d="M349.5 729.7l-42.8-24.8v-24.4h34.1l8.7 25.9v23.3zM308 704.1l40.3 23.3v-21l-8.4-24.7H308v22.4z"/></g><g><path transform="rotate(-58.669 328.08 693.603)" class="st5" d="M327.5 669.3h1.3v48.6h-1.3z"/></g><g><path transform="rotate(-59.363 328.084 704.4)" class="st5" d="M327.5 680.3h1.3v48.3h-1.3z"/></g><g><path class="st5" d="M311.6 678.9c-2.4 0-4.4-2-4.4-4.4 0-2.4 2-4.4 4.4-4.4 2.4 0 4.4 2 4.4 4.4 0 2.5-1.9 4.4-4.4 4.4zm0-7.5c-1.7 0-3.1 1.4-3.1 3.1 0 1.7 1.4 3.1 3.1 3.1 1.7 0 3.1-1.4 3.1-3.1.1-1.7-1.3-3.1-3.1-3.1z"/></g><g><path class="st5" d="M324.7 678.9c-2.4 0-4.4-2-4.4-4.4 0-2.4 2-4.4 4.4-4.4 2.4 0 4.4 2 4.4 4.4 0 2.5-2 4.4-4.4 4.4zm0-7.5c-1.7 0-3.1 1.4-3.1 3.1 0 1.7 1.4 3.1 3.1 3.1 1.7 0 3.1-1.4 3.1-3.1 0-1.7-1.4-3.1-3.1-3.1z"/></g><g><path class="st5" d="M329.1 691.1c-2.4 0-4.4-2-4.4-4.4s2-4.4 4.4-4.4c2.4 0 4.4 2 4.4 4.4 0 2.4-2 4.4-4.4 4.4zm0-7.6c-1.7 0-3.1 1.4-3.1 3.1 0 1.7 1.4 3.1 3.1 3.1 1.7 0 3.1-1.4 3.1-3.1 0-1.7-1.4-3.1-3.1-3.1z"/></g><g><circle class="st1" cx="342.6" cy="686.7" r="3.8"/></g><g><path class="st5" d="M342.6 691.1c-2.4 0-4.4-2-4.4-4.4s2-4.4 4.4-4.4c2.4 0 4.4 2 4.4 4.4 0 2.4-1.9 4.4-4.4 4.4zm0-7.6c-1.7 0-3.1 1.4-3.1 3.1 0 1.7 1.4 3.1 3.1 3.1 1.7 0 3.1-1.4 3.1-3.1.1-1.7-1.3-3.1-3.1-3.1z"/></g><g><circle class="st1" cx="348.9" cy="699.6" r="3.8"/></g><g><path class="st5" d="M348.9 704c-2.4 0-4.4-2-4.4-4.4s2-4.4 4.4-4.4c2.4 0 4.4 2 4.4 4.4 0 2.4-2 4.4-4.4 4.4zm0-7.5c-1.7 0-3.1 1.4-3.1 3.1s1.4 3.1 3.1 3.1c1.7 0 3.1-1.4 3.1-3.1 0-1.7-1.4-3.1-3.1-3.1 0-.1 0-.1 0 0z"/></g><g><path class="st5" d="M337.7 678.9c-2.4 0-4.4-2-4.4-4.4s2-4.4 4.4-4.4c2.4 0 4.4 2 4.4 4.4 0 2.5-2 4.4-4.4 4.4zm0-7.5c-1.7 0-3.1 1.4-3.1 3.1s1.4 3.1 3.1 3.1c1.7 0 3.1-1.4 3.1-3.1 0-1.7-1.4-3.1-3.1-3.1z"/></g><g><path class="st33" d="M330.8 768.8c-38.5 0-69.7-31.2-69.7-69.7s31.2-69.7 69.7-69.7 69.7 31.2 69.7 69.7c0 38.6-31.2 69.8-69.7 69.7zm0-131.7c-34.2 0-62 27.8-62 62s27.8 62 62 62 62-27.8 62-62c0-34.1-27.7-61.9-62-62z"/></g><g><path class="st33" d="M398.6 818.7l-36-62 6.7-3.9 36 62c1.1 1.8.4 4.2-1.4 5.3-1.8 1.1-4.2.5-5.3-1.4.1 0 .1 0 0 0z"/></g><g><path transform="rotate(-66.001 440.056 699.961)" class="st33" d="M401.3 699.4h77.5v1h-77.5z"/></g><g><path transform="rotate(-66.001 459.92 699.99)" class="st33" d="M421.2 699.5h77.5v1h-77.5z"/></g><g><circle class="st33" cx="420.3" cy="685.5" r="1.8"/><path class="st33" d="M420.3 687.8c-1.2 0-2.2-1-2.2-2.2s1-2.2 2.2-2.2 2.2 1 2.2 2.2-.9 2.2-2.2 2.2zm0-3.5c-.7 0-1.2.6-1.2 1.2s.6 1.2 1.2 1.2 1.2-.6 1.2-1.2-.5-1.2-1.2-1.2z"/></g><g><circle class="st33" cx="420.3" cy="712.6" r="1.8"/><path class="st33" d="M420.3 714.9c-1.2 0-2.2-1-2.2-2.2 0-1.2 1-2.2 2.2-2.2s2.2 1 2.2 2.2-.9 2.2-2.2 2.2zm0-3.5c-.7 0-1.2.6-1.2 1.2s.6 1.2 1.2 1.2 1.2-.6 1.2-1.2-.5-1.2-1.2-1.2z"/></g><g><ellipse transform="rotate(-41.672 1231.43 643.885)" class="st23" cx="1231.5" cy="643.9" rx="36.4" ry="28.9"/></g><g><path class="st1" d="M1226 660.8l-9.6-12.8c-.5-.6-.4-1.5.3-2 .6-.5 1.5-.4 2 .3l7.4 9.8 23.9-29c.5-.6 1.4-.7 2-.2.6.5.7 1.4.2 2l-26.2 31.9z"/></g><g><ellipse transform="rotate(-41.672 1155.728 701.92)" class="st9" cx="1155.8" cy="702" rx="27.2" ry="21.6"/></g><g><path class="st1" d="M1065.6 727.2l-545.2-.4c-13.1 0-23.6-10.6-23.6-23.7 0-1.8.2-3.6.6-5.3 2.5-10.7 12-18.3 23-18.3l545.2.4c13.1 0 23.7 10.6 23.7 23.7 0 1.8-.2 3.6-.6 5.3-2.6 10.7-12.1 18.3-23.1 18.3z"/></g><g><path class="st6" d="M535.3 702.6h512.6v1.2H535.3z"/></g></svg>