<svg version="1.1" id="Website_Design_2" xmlns="http://www.w3.org/2000/svg" x="0" y="0" viewBox="0 0 100 100" xml:space="preserve"><style>.st0{fill:#aaa}.st1{fill:#616161}.st5{fill:#fff}.st6{fill:#fbbc04}</style><path class="st0" d="M55.4-86.9c9.6 0 17.3 7.7 17.3 17.3 0 9.5-7.7 17.3-17.3 17.3h-.1C45.8-52.3 38-60 38-69.6c.2-9.5 7.9-17.3 17.4-17.3z"/><path class="st1" d="M82.9-86.9c9.6 0 17.3 7.7 17.3 17.3 0 9.5-7.7 17.3-17.3 17.3h-.1c-9.5 0-17.3-7.7-17.3-17.3.2-9.5 7.9-17.3 17.4-17.3z"/><path d="M26.1-87.5c9.6 0 17.3 7.7 17.3 17.3 0 9.5-7.7 17.3-17.3 17.3H26c-9.5 0-17.3-7.7-17.3-17.3.2-9.5 7.9-17.3 17.4-17.3z" fill="#c4c4c4"/><path d="M0-90.8c9.6 0 17.3 7.7 17.3 17.3C17.3-64 9.6-56.2 0-56.2h-.1c-9.5 0-17.3-7.7-17.3-17.3.2-9.5 7.9-17.3 17.4-17.3z" fill="#e0e0e0"/><path d="M-49.1-89.3c17.6 0 31.8 7.7 31.8 17.3 0 9.5-14.1 17.3-31.8 17.3h-.2c-17.4 0-31.8-7.7-31.8-17.3.4-9.5 14.5-17.3 32-17.3z" fill="#f5f5f5"/><g><path class="st5" d="M19.1 16h61.2v77.9H19.1z"/><path class="st0" d="M13 94.1V15.9c0-3.2 2.6-5.9 5.8-5.9h62.4c3.2 0 5.8 2.6 5.8 5.9v78.3c0 3.2-2.6 5.9-5.8 5.9H18.8c-3.2-.1-5.8-2.7-5.8-6zM19.9 17v76H80V17H19.9z"/><path class="st0" d="M64.6 39.2H51.4c-.8 0-1.5-.7-1.5-1.5s.7-1.5 1.5-1.5h13.1c.8 0 1.5.7 1.5 1.5s-.6 1.5-1.4 1.5zM71.7 32.9H51.4c-.8 0-1.5-.7-1.5-1.5s.7-1.5 1.5-1.5h20.3c.8 0 1.5.7 1.5 1.5s-.6 1.5-1.5 1.5z"/><path class="st6" d="M28.9 26.7h15c.7 0 1.2.6 1.2 1.2v14.4c0 .7-.6 1.2-1.2 1.2h-15c-.7 0-1.2-.6-1.2-1.2V28c-.1-.7.5-1.3 1.2-1.3z"/><path class="st5" d="M35.4 40L31 36.2c-.6-.5-.7-1.5-.2-2.1.5-.6 1.5-.7 2.1-.2l2.2 1.9 4.5-5c.6-.6 1.5-.7 2.1-.1.6.6.7 1.5.1 2.1L35.4 40z"/><path class="st6" d="M28.9 48.2h15c.7 0 1.2.6 1.2 1.2v14.4c0 .7-.6 1.2-1.2 1.2h-15c-.7 0-1.2-.6-1.2-1.2V49.4c-.1-.7.5-1.2 1.2-1.2z"/><path class="st5" d="M35.4 61.5L31 57.7c-.6-.5-.7-1.5-.2-2.1.5-.6 1.5-.7 2.1-.2l2.2 1.9 4.5-5c.6-.6 1.5-.7 2.1-.1.6.6.7 1.5.1 2.1l-6.4 7.2z"/><path class="st1" d="M28.9 69.6h15c.7 0 1.2.6 1.2 1.2v14.4c0 .7-.6 1.2-1.2 1.2h-15c-.7 0-1.2-.6-1.2-1.2V70.9c-.1-.7.5-1.3 1.2-1.3z"/><path class="st0" d="M64.6 60.5H51.4c-.8 0-1.5-.7-1.5-1.5s.7-1.5 1.5-1.5h13.1c.8 0 1.5.7 1.5 1.5s-.6 1.5-1.4 1.5zM71.7 54.1H51.4c-.8 0-1.5-.7-1.5-1.5s.7-1.5 1.5-1.5h20.3c.8 0 1.5.7 1.5 1.5s-.6 1.5-1.5 1.5z"/><path class="st6" d="M32.7 6.3h33.9c3.5 0 6.4 2.9 6.4 6.4v4c0 1.1-.9 2-2 2H28.3c-1.1 0-2-.9-2-2v-4c0-3.6 2.9-6.4 6.4-6.4z"/><path class="st6" d="M49 0h1.4c3.8 0 6.9 3.1 6.9 6.9v8.5H42.1V6.9c0-3.8 3-6.9 6.9-6.9z"/><circle cx="49.7" cy="6.8" r="2.1" fill="#4285f4"/></g></svg>