<svg version="1.1" id="Website_Design_1" xmlns="http://www.w3.org/2000/svg" x="0" y="0" viewBox="0 0 100 100" xml:space="preserve"><style>.st1{fill:#fbbc04}.st4{fill:#aaa}</style><path d="M57.6 57.4c-1.2-.6-1.6-2-1-3.2.2-.4.6-.8 1-1 9.4-4.8 15.3-14.4 15.3-24.9V15.4c0-1.3-1.1-2.4-2.4-2.4l-51.1-.1c-1.3 0-2.4 1.1-2.4 2.4v12.9c0 10.5 5.9 20.2 15.3 24.9 1.2.6 1.6 2 1 3.2-.2.4-.6.8-1 1C22.9 62.2 17 71.8 17 82.4v12.5c0 1.3 1.1 2.4 2.4 2.4h51.1c1.3 0 2.4-1.1 2.4-2.4V82.4c0-10.6-5.9-20.2-15.3-25z" fill="#fff"/><path class="st1" d="M28.9 44c2.8 3.4 6.6 5.9 10.8 7h.1c.4.1 5.7 1.2 10.4 0 8.5-2.2 14.7-9.6 15.3-18.4 0-.5-.4-1-.9-1.1h-.4L29.4 42.4c-.5.2-.8.8-.6 1.3 0 .1 0 .2.1.3zM39.7 61.5c-8.8 2.1-15.3 9.6-15.3 18.5v3.4c0 .5.4 1 1 1h39c.5 0 1-.4 1-1V80c0-8.9-6.5-16.3-15.3-18.5-1.6-.5-3.2-.7-4.9-.7-1.9.1-3.7.3-5.5.7zM12.7 93.9h64.6c1.5 0 2.8 1.2 2.8 2.8v.5c0 1.5-1.2 2.8-2.8 2.8H12.7c-1.5 0-2.8-1.2-2.8-2.8v-.5c0-1.5 1.3-2.8 2.8-2.8z"/><path fill="#616161" d="M75.4 16.1H19.5v8.2z"/><circle cx="65.8" cy="24.5" r="2.1" fill="#1a73e8"/><path class="st1" d="M12.9 10H77c1.8 0 3.2 1.4 3.2 3.2v.6c0 1.8-1.4 3.2-3.2 3.2H12.9c-1.8 0-3.2-1.4-3.2-3.2v-.6c0-1.8 1.4-3.2 3.2-3.2zM12.9 93H77c1.8 0 3.2 1.4 3.2 3.2v.6c0 1.8-1.4 3.2-3.2 3.2H12.9c-1.8 0-3.2-1.4-3.2-3.2v-.6c0-1.8 1.4-3.2 3.2-3.2z"/><path class="st4" d="M68.6 91h27.1c1.2 0 2.1.9 2.1 2.1v4.8c0 1.2-.9 2.1-2.1 2.1H68.6c-1.2 0-2.1-.9-2.1-2.1v-4.8c0-1.2.9-2.1 2.1-2.1zM65.1 79.4h27.1c1.2 0 2.1.9 2.1 2.1v4.8c0 1.2-.9 2.1-2.1 2.1H65.1c-1.2 0-2.1-.9-2.1-2.1v-4.8c0-1.2 1-2.1 2.1-2.1zM70.8 67.7h27.1c1.2 0 2.1.9 2.1 2.1v4.8c0 1.2-.9 2.1-2.1 2.1H70.8c-1.2 0-2.1-.9-2.1-2.1v-4.8c0-1.1 1-2.1 2.1-2.1z"/></svg>