<svg version="1.1" id="Website_Design_3" xmlns="http://www.w3.org/2000/svg" x="0" y="0" viewBox="0 0 100 100" xml:space="preserve"><style>.st0{fill:#fff}.st2{fill:#aaa}.st3{fill:#c4c4c4}.st6{fill:#4285f4}</style><path class="st0" d="M6 16.4h88c1.3 0 2.3 1.1 2.3 2.4v62.4c0 1.3-1.1 2.3-2.3 2.3H6c-1.3 0-2.4-1.1-2.4-2.3V18.8c.1-1.3 1.1-2.4 2.4-2.4z"/><path d="M19.8 34.9h25.6c1.3 0 2.3 1 2.3 2.3v25.6c0 1.3-1 2.3-2.3 2.3H19.8c-1.3 0-2.3-1-2.3-2.3V37.2c0-1.3 1-2.3 2.3-2.3z" fill="#ffc105"/><path class="st0" d="M39.4 46.8l-13.9-3.7c-.2-.1-.3 0-.4.2v.2l3.7 13.9c.1.2.2.3.4.2.1 0 .1-.1.2-.1l2.8-4.8c.1-.2.3-.2.4-.1 0 0 .1 0 .1.1l5.1 5c.1.1.3.1.5 0l1.4-1.4c.1-.1.1-.3 0-.5l-5-5.1c-.1-.1-.1-.3 0-.5l.1-.1 4.8-2.8c.2-.1.2-.3.1-.5-.2.1-.2.1-.3 0z"/><circle class="st2" cx="54" cy="63.1" r="1.9"/><circle class="st2" cx="54" cy="36.8" r="1.9"/><circle class="st2" cx="80.6" cy="63.1" r="1.9"/><circle class="st2" cx="80.6" cy="36.8" r="1.9"/><path class="st3" d="M75.5 44H59.2c-.8 0-1.5-.7-1.5-1.5s.7-1.5 1.5-1.5h16.3c.8 0 1.5.7 1.5 1.5s-.7 1.5-1.5 1.5z"/><path class="st3" d="M67.5 59c-.8 0-1.5-.7-1.5-1.5V42.6c0-.8.7-1.5 1.5-1.5s1.5.7 1.5 1.5v14.9c0 .9-.7 1.5-1.5 1.5z"/><path d="M19.8 34.9h25.6c1.3 0 2.3 1 2.3 2.3v25.6c0 1.3-1 2.3-2.3 2.3H19.8c-1.3 0-2.3-1-2.3-2.3V37.2c0-1.3 1-2.3 2.3-2.3z" fill="#fbbc04"/><path class="st0" d="M39.4 46.4l-13.9-3.7c-.2-.1-.3 0-.4.2v.2L28.8 57c.1.2.2.3.4.2.1 0 .1-.1.2-.1l2.8-4.8c.1-.2.3-.2.4-.1 0 0 .1 0 .1.1l5.1 5c.1.1.3.1.5 0l1.4-1.4c.1-.1.1-.3 0-.5l-5-5.1c-.1-.1-.1-.3 0-.5l.1-.1 4.8-2.8c.2-.1.2-.3.1-.5-.2.1-.2 0-.3 0z"/><path d="M94.1 87H5.9C2.6 87 0 84.4 0 81.2V18.8C0 15.6 2.6 13 5.9 13h88.3c3.2 0 5.9 2.6 5.9 5.8v62.4c-.1 3.2-2.7 5.8-6 5.8zM7 80.1h86V19.9H7v60.2z" fill="#616161"/><path class="st3" d="M80.8 63.7H53.9c-.3 0-.6-.3-.6-.6V36.6c0-.3.3-.6.6-.6h26.9c.3 0 .6.3.6.6v26.5c0 .3-.2.6-.6.6zm-26.3-1.2h25.7V37.2H54.5v25.3z"/><g><circle class="st6" cx="54" cy="63.1" r="1.9"/><circle class="st6" cx="54" cy="36.8" r="1.9"/><circle class="st6" cx="80.6" cy="63.1" r="1.9"/><circle class="st6" cx="80.6" cy="36.8" r="1.9"/></g></svg>