<svg id="Layer_1" data-name="Layer 1" xmlns="http://www.w3.org/2000/svg" viewBox="0 0 1920 1280"><defs><style>.cls-1{fill:#c4c4c4;}.cls-2{fill:#ffc49c;}.cls-3{fill:#f29900;}.cls-4{fill:#0d3575;}.cls-5{fill:#072560;}.cls-6{fill:#f5f5f5;}.cls-7{fill:#fff;}.cls-8{fill:#aaa;}.cls-9{opacity:0.6;}.cls-10{fill:#68230e;}.cls-11{fill:#009925;}.cls-12{fill:#616161;}.cls-13{fill:#ffc105;}.cls-14{fill:#e0e0e0;}.cls-15{fill:#3369e8;}.cls-16{fill:#db4437;}</style></defs><rect class="cls-1" x="1611.25" y="1189.97" width="187.42" height="1.73"/><rect class="cls-1" x="1261.7" y="776.68" width="550.47" height="1.73"/><rect class="cls-1" x="1735.04" y="804.79" width="1.73" height="386.04"/><path class="cls-1" d="M696.86,778.41H152.55l-20.06-26.84H696.86Zm-543.44-1.73h541.7V753.3H136Z"/><path class="cls-1" d="M650.36,733.05H215.77a17.05,17.05,0,0,1-16.7-13.28L147.35,495.39a17.15,17.15,0,0,1,16.7-21H598.64a17.06,17.06,0,0,1,16.7,13.29l51.72,224.38a17.14,17.14,0,0,1-16.7,21ZM164.05,476.13A15.39,15.39,0,0,0,149,495l51.72,224.38a15.33,15.33,0,0,0,15,11.94H650.36a15.39,15.39,0,0,0,15-18.87L613.65,488.07a15.33,15.33,0,0,0-15-11.94Z"/><path class="cls-1" d="M197.89,714.66,148.63,501.3H618.4l.16.68L667.3,713.12ZM150.81,503l48.46,209.88,465.86-1.53L617,503Z"/><path class="cls-1" d="M208.53,1191.7H59.92V940.65a2.23,2.23,0,0,1,2.22-2.22H206.31a2.23,2.23,0,0,1,2.22,2.22ZM61.66,1190H206.79V940.65a.49.49,0,0,0-.48-.48H62.14a.48.48,0,0,0-.48.48Z"/><path class="cls-1" d="M596.54,743.18H180.32a14.41,14.41,0,0,1-14.39-14.39V576.14h1.73V728.79a12.67,12.67,0,0,0,12.66,12.65H596.54Z"/><rect class="cls-1" x="255.95" y="777.54" width="1.73" height="413.29"/><path class="cls-1" d="M193,940.17H167.71V824.6a3.1,3.1,0,0,1,3.09-3.1h19.08a3.09,3.09,0,0,1,3.09,3.1Zm-23.53-1.74h21.8V824.6a1.36,1.36,0,0,0-1.36-1.36H170.8a1.36,1.36,0,0,0-1.36,1.36Z"/><path class="cls-1" d="M145.35,940.17H120.08V824.6a3.1,3.1,0,0,1,3.09-3.1h19.08a3.1,3.1,0,0,1,3.1,3.1Zm-23.54-1.74h21.8V824.6a1.36,1.36,0,0,0-1.36-1.36H123.17a1.36,1.36,0,0,0-1.36,1.36Z"/><path class="cls-1" d="M98.83,940.17H73.57V824.6a3.09,3.09,0,0,1,3.09-3.1H95.74a3.09,3.09,0,0,1,3.09,3.1ZM75.3,938.43H97.1V824.6a1.36,1.36,0,0,0-1.36-1.36H76.66a1.36,1.36,0,0,0-1.36,1.36Z"/><path class="cls-2" d="M1038.46,1104.32l31.84,46.09s10.61-1.68,17.59-5.87,12.29-25.13,12.29-25.13l-19.27-45Z"/><path class="cls-3" d="M1028.63,222s-7.51,19.87-55.64,22.45-102.77-31.68-158.12,7.06S759.76,416.4,826.28,468.87c60.69,47.86,137.86,37.65,215-3.43s48.61-235.65,48.61-235.65Z"/><path class="cls-4" d="M1010.41,327.58,898.88,380,776.13,303.63l-31.69,19.69S854.94,437,863,444.6s18.17,16.06,36.33,8.87,113.63-33.14,113.63-33.14Z"/><path class="cls-5" d="M1072.41,323.52,980.89,636.86l-53,110.63H804.25L968.79,381l40.8-29.43-4.68-35.09s45-28.45,69.34-30.46l12,37.55Z"/><path d="M967.13,557.31l28-171.95L1074.25,286l5.36,16.81-7.2-.64v21.38s-49.42,51.08-54.87,58.59-7.84,11.6-11,22S967.13,557.31,967.13,557.31Z"/><path class="cls-6" d="M784.52,243H440.44a3.75,3.75,0,0,1-3.65-4.59l17.55-76a3.74,3.74,0,0,1,3.65-2.9H802.07a3.74,3.74,0,0,1,3.65,4.58l-17.55,76A3.74,3.74,0,0,1,784.52,243Z"/><path class="cls-2" d="M1028.63,207.39v34.39c0,18.31,14.32,45.09,45.42,35.71v31.1s2.46,16.29,20.23,16.29,47.89-16.29,49.37-43.44,25.17-53.32,6.91-69.61-71.58-35.05-90.34-33.57S1028.63,207.39,1028.63,207.39Z"/><path class="cls-1" d="M982.64,623.31S886,814.53,878.36,826s-16.91,32.55-3,57.06,141.19,237.15,141.19,237.15l66.37-42.7s-57.49-132.73-73.13-168.66-25.36-47.35-25.36-47.35l83.27-159.78-33-145.84-16.49-5.5Z"/><path class="cls-6" d="M1041.28,598.29s25.41,271.2,26.71,283.35,7.81,21.25,24.72,28.62,261.64,101,261.64,101l27.32-72s-136.55-62.87-162-72.41S1169,849.54,1169,849.54s-7.81-206-8.67-222S1041.28,598.29,1041.28,598.29Z"/><path class="cls-7" d="M1083.23,636.86h-30l-24.56-79.55s5.87-131.83,6.85-143.64,1.35-21.48,8.57-32.71,50.23-56.08,50.23-56.08l25.58-3.29Z"/><path class="cls-7" d="M947.5,636.86h28.28l6.86-13.55,28.71-15.43,17.28-50.57s6.53-143.41,7.45-150.65,1.9-17.84,8-25.7,50.23-56.08,50.23-56.08l-21.87-1.36s-52.07,54.92-57.61,61.73-10.21,26-13.61,36.59S947.5,636.86,947.5,636.86Z"/><path class="cls-3" d="M1021.16,216.65h79.55v17.78c0,6.21,5.44,11.25,9.7,6.59s1.94-17.07,14-21,16.69,23.67-1.94,27.94v19c0,3.88,9.21,40.78,27.92,49.41s64.69,56.74,64.69,56.74,83-7.36,81.81-83.81c-1.43-95.41-101.12-67.66-144.27-93.16-23-13.63-30.26-42.83-70-42.83S1020.28,180.81,1021.16,216.65Z"/><polygon class="cls-5" points="1072.41 434.92 1072.41 399.93 1093.04 363.5 1093.04 330.85 1143.12 285.97 1150.36 316.43 1072.41 434.92"/><path class="cls-4" d="M1072.41,598.84V434.92l77.95-118.49s28.83,12.38,36.32,17.82S1298,484.57,1298,484.57l101.62-56.45L1433.58,454s-112.23,87.74-121.75,94.55-34.69,11.56-51-2.73-70-72.09-70-72.09V571l119,180.84H1115.94Z"/><polygon class="cls-7" points="1072.41 323.52 1072.41 301.6 1128.37 299.14 1098.18 325.83 1072.41 323.52"/><polygon class="cls-8" points="982.64 623.31 1020.89 623.31 1049.85 689.65 1041.28 598.29 1028.63 557.31 1011.35 607.88 982.64 623.31"/><path class="cls-1" d="M1029.5,557.36l-1.74-.09c.07-1.43,7-143.08,7.45-150.67.72-12.37,4.65-22.45,12-30.8,9-10.25,35.85-49.24,38.12-52.55V301h1.74v22.82l-.16.23c-.29.42-28.94,42.21-38.4,52.94-7.1,8.05-10.89,17.78-11.59,29.76C1036.5,414.28,1029.57,555.93,1029.5,557.36Z"/><polygon points="1155.03 438.72 1190.76 473.69 1190.76 522.28 1155.03 438.72"/><polygon class="cls-5" points="1210.35 600.72 1147.78 600.72 1179.06 678.73 1261.7 678.73 1210.35 600.72"/><path class="cls-6" d="M1056.91,1131l37.94-24.07,5.33,12.45s1,20.16-12.29,25.13-17.59,5.87-17.59,5.87Z"/><path class="cls-8" d="M1010.49,1244l122.61-87.42s-25-32.28-27.93-36.64-8.35-5.44-12.34,4.36-5.44,15.6-14.14,20-11.61.72-13.79-1.45-8.34-6.17-8.34,1.81-1.45,21-8,26.12-8.71,10.88-12,17.41-21.44,21.36-26.12,25.75c-7.34,6.9-8.7,14.88-6.89,20.68A20.51,20.51,0,0,0,1010.49,1244Z"/><path class="cls-2" d="M1361.44,992.6l41.84,14.19s34.48-16.74,34.48-28.56-14.89-16.54-14.89-16.54l-41.2-22.39Z"/><path class="cls-7" d="M1390.81,1002.56,1407,953.05l31.49,12.61s5.22,31-7.42,36.74-27.75,4.39-27.75,4.39Z"/><path class="cls-8" d="M1482.86,974.59l-51.6,164.48s-16.13.65-19.35-9.67.64-58.05-4.52-87.08-14.2-38.06-9.36-42.57,24.2-5.81,27.42-14.19-2.58-17.42-2.58-23.87S1482.86,974.59,1482.86,974.59Z"/><path class="cls-2" d="M1399.63,428.12s21.26-11.36,27-14.33c8.08-4.18,19.79-1.72,24.64-1.07s13.25-1.94,17.78-2.91,13.9,1.94,15.19,2.91,12.29-1.62,15.2-1.62,9.7,2.26,9.7,2.26,9-.32,10.34,2.27,2.59,9.7-6.46,10.67-12,.71-19.12,1.35-15.2,6.54-22.12,6.54c-17.87,0-47.47,12.72-47.47,12.72Z"/><path class="cls-2" d="M744.44,323.32s-9.93-9.69-21.17-9.05-23.77,2.07-28.27,2.16-6.1-2.19-6.1-2.19-11.57-.29-14.78-1.58,0-5.78,0-5.78-1.6-5.42,2.25-5.92,41.12,0,41.12,0-4.82-3-7.39-4.64-3.86-6.14,2.89-7.11,26.66,3.54,26.66,3.54,10-.89,16.71,3.57,14.24,10.74,14.24,10.74Z"/><polygon points="1126.57 282.71 1143.12 285.97 1132.13 295.81 1126.57 282.71"/><g class="cls-9"><polygon class="cls-10" points="1074.05 277.49 1091.08 271.72 1074.05 288.22 1074.05 277.49"/></g><g class="cls-9"><polygon class="cls-10" points="1028.63 219.86 1100.71 216.65 1028.63 216.65 1028.63 219.86"/></g><g class="cls-9"><polygon class="cls-10" points="744.44 323.32 739.77 319.64 770.6 307.06 744.44 323.32"/></g><g class="cls-9"><polygon class="cls-10" points="1399.63 428.12 1424.31 446.91 1430.75 444.33 1399.63 428.12"/></g><g class="cls-9"><polygon class="cls-10" points="1126.57 282.71 1128.37 299.14 1132.13 295.81 1126.57 282.71"/></g><g class="cls-9"><rect class="cls-10" x="1117.65" y="232.69" width="12.93" height="1.73" transform="translate(207.98 925.57) rotate(-48.8)"/></g><polygon class="cls-5" points="1041.28 752.43 1055.69 752.43 1053.54 728.92 1041.28 752.43"/><ellipse class="cls-11" cx="495.32" cy="199.82" rx="26.75" ry="21.24" transform="translate(-7.41 380.2) rotate(-41.71)"/><polygon class="cls-7" points="489.26 211.43 481.98 201.77 483.37 200.73 489.41 208.75 507.79 189.25 509.05 190.43 489.26 211.43"/><path class="cls-7" d="M756.78,211.05H549c-6.21,0-10.07-5-8.64-11.23h0c1.43-6.2,7.62-11.23,13.82-11.23H762c6.2,0,10.07,5,8.63,11.23h0C769.17,206,763,211.05,756.78,211.05Z"/><rect class="cls-12" x="559.54" y="199.1" width="168.96" height="1.73"/><path class="cls-13" d="M761.51,199.66a9.61,9.61,0,0,1-8.87,7.21c-4,0-6.46-3.22-5.54-7.21a9.61,9.61,0,0,1,8.87-7.21C760,192.45,762.43,195.68,761.51,199.66Z"/><path class="cls-6" d="M1683.66,381.26H1339.58a3.75,3.75,0,0,1-3.65-4.59l17.55-76a3.75,3.75,0,0,1,3.65-2.91h344.08a3.75,3.75,0,0,1,3.65,4.59l-17.55,76A3.74,3.74,0,0,1,1683.66,381.26Z"/><ellipse class="cls-11" cx="1394.46" cy="338.11" rx="26.75" ry="21.24" transform="translate(128.48 1013.48) rotate(-41.71)"/><polygon class="cls-7" points="1388.4 349.72 1381.13 340.06 1382.51 339.02 1388.55 347.03 1406.92 327.53 1408.19 328.72 1388.4 349.72"/><path class="cls-7" d="M1655.92,349.34H1448.18c-6.2,0-10.07-5-8.64-11.23h0c1.43-6.2,7.62-11.23,13.83-11.23h207.74c6.2,0,10.07,5,8.64,11.23h0C1668.31,344.31,1662.13,349.34,1655.92,349.34Z"/><rect class="cls-12" x="1458.69" y="337.39" width="168.96" height="1.73"/><path class="cls-13" d="M1660.66,338a9.63,9.63,0,0,1-8.88,7.21c-4,0-6.46-3.23-5.54-7.21a9.62,9.62,0,0,1,8.87-7.21C1659.09,330.74,1661.58,334,1660.66,338Z"/><path class="cls-6" d="M742.91,558.29H442.74L463.14,470a62.34,62.34,0,0,1,60.74-48.32H773.1a2.93,2.93,0,0,1,2.86,3.59L745.76,556A2.92,2.92,0,0,1,742.91,558.29Z"/><path class="cls-14" d="M459,487.91H609.39l32.8,41.6-22,95.25a2.93,2.93,0,0,1-2.86,2.27H469.9a34.18,34.18,0,0,1-33.31-41.87Z"/><path class="cls-14" d="M466.32,460.05s-1.4,27.86,33.24,27.86H459S463.14,470,466.32,460.05Z"/><path class="cls-15" d="M609.39,487.91,602,524.49a4.19,4.19,0,0,0,4.1,5h36.06Z"/><path class="cls-12" d="M1500.12,71H766a19.94,19.94,0,0,1,0-39.87h734.15a19.94,19.94,0,1,1,0,39.87ZM766,32.86a18.21,18.21,0,0,0,0,36.41h734.15a18.21,18.21,0,0,0,0-36.41Z"/><circle class="cls-15" cx="674.57" cy="51.06" r="19.07" transform="translate(161.47 491.95) rotate(-45)"/><rect class="cls-6" x="760.74" y="41.8" width="561.08" height="18.66" rx="9.33"/><path class="cls-14" d="M1577.5,754H1427.32l37.17-161h95.37a43.6,43.6,0,0,1,42.47,53.41Z"/><path class="cls-6" d="M1544.34,834.52h-204A4.53,4.53,0,0,1,1336,829l25.5-110.42,50.57-45h184.06L1562.2,820.31A18.33,18.33,0,0,1,1544.34,834.52Z"/><polygon class="cls-16" points="1400.08 718.55 1412.02 673.55 1361.44 718.55 1400.08 718.55"/><path class="cls-6" d="M1555.86,673.55s40.42,2.25,47.09-30.29l-6.87,30.29Z"/><path class="cls-15" d="M774.77,660.75a17.49,17.49,0,1,1,17.49-17.49A17.51,17.51,0,0,1,774.77,660.75Zm0-33.24a15.76,15.76,0,1,0,15.75,15.75A15.77,15.77,0,0,0,774.77,627.51Z"/><path class="cls-15" d="M1605.49,1041.23a31,31,0,1,1,31-31.05A31.09,31.09,0,0,1,1605.49,1041.23Zm0-60.37a29.32,29.32,0,1,0,29.32,29.32A29.35,29.35,0,0,0,1605.49,980.86Z"/><path class="cls-1" d="M1321.82,173.83a14.37,14.37,0,1,1,14.36-14.37A14.38,14.38,0,0,1,1321.82,173.83Zm0-27a12.63,12.63,0,1,0,12.63,12.62A12.64,12.64,0,0,0,1321.82,146.84Z"/><rect class="cls-1" x="39" y="1189.97" width="187.42" height="1.73"/><path class="cls-14" d="M796.43,1028.13H569l4.35-18.84c6.24-27,33.19-48.91,60.21-48.91H812.07Z"/><path class="cls-6" d="M926.6,1169H565.45c-11.8,0-19.15-9.57-16.43-21.37l22.66-130.94H904.43L942.81,1066Z"/><path class="cls-6" d="M580.79,991.58s-4.12,22.94,18.34,25.11H571.68S574.49,999.54,580.79,991.58Z"/><polygon class="cls-13" points="904.43 1016.69 897.19 1065.96 942.81 1065.96 904.43 1016.69"/><path class="cls-14" d="M468.29,973.05a9.25,9.25,0,1,1-9.25-9.26A9.25,9.25,0,0,1,468.29,973.05Z"/><path class="cls-1" d="M1222.58,1248.87a10,10,0,1,1,10-10A10,10,0,0,1,1222.58,1248.87Zm0-18.23a8.25,8.25,0,1,0,8.25,8.25A8.26,8.26,0,0,0,1222.58,1230.64Z"/><path class="cls-14" d="M1302,1175.27s-2.84-35,21.3-46.59c33.82-16.26,52-29.83,58.34-57.3l-76.12-23.5s-6.17,25.93-34.35,32.27-48.62,26.07-48.62,64.82Z"/><path class="cls-14" d="M577.21,911.8s-6.83-37.27-40.9-45.79-58.56,12.31-100.09-18.86l84.12-17.51a100.78,100.78,0,0,0,51.34,5c28.52-4.78,64,7.27,73.06,45.47Z"/><path class="cls-14" d="M1682.74,947.38s14-32.68,46.75-33.88,59.06-16.16,61.44-41.69L1868.12,929s-16.24,56.81-55.45,52.49c-28.23-3.12-43.7,29.77-43.7,29.77Z"/><path class="cls-14" d="M1564.66,476.24s12.49,37.76,46.84,40.1,71.82,22.17,74.94,51.28l89-20s-7.34-37.7-45.82-49-65.55-3-88.71-32.87Z"/><circle class="cls-14" cx="1860.31" cy="391.76" r="20.69"/><path class="cls-15" d="M1555.67,247.55a9.13,9.13,0,1,1,9.12-9.12A9.13,9.13,0,0,1,1555.67,247.55Zm0-16.52a7.4,7.4,0,1,0,7.39,7.4A7.4,7.4,0,0,0,1555.67,231Z"/></svg>
