<svg xmlns="http://www.w3.org/2000/svg" xmlns:xlink="http://www.w3.org/1999/xlink" viewBox="0 0 1020 900"><defs><style>.cls-1,.cls-12,.cls-13,.cls-21,.cls-22,.cls-23,.cls-24,.cls-25,.cls-27,.cls-29,.cls-30{fill:none;}.cls-2{isolation:isolate;}.cls-3,.cls-5{fill:#616161;}.cls-3{mix-blend-mode:multiply;}.cls-4{fill:#eaad94;}.cls-6{fill:#a46347;}.cls-7{fill:#0d3575;}.cls-8{fill:#e0e0e0;}.cls-9{fill:#aaa;}.cls-10{fill:#3369e8;}.cls-11{fill:#db4437;}.cls-12,.cls-24,.cls-27{stroke:#aaa;}.cls-12,.cls-22,.cls-23,.cls-24,.cls-30{stroke-linecap:round;}.cls-12,.cls-13,.cls-21,.cls-22,.cls-23,.cls-25,.cls-27,.cls-29,.cls-30{stroke-miterlimit:10;}.cls-12{stroke-width:2px;}.cls-13{stroke:#616161;}.cls-14{clip-path:url(#clip-path);}.cls-15{fill:#f5f5f5;}.cls-16{fill:#fff;}.cls-17{fill:#c4c4c4;}.cls-18{fill:#68230e;}.cls-19{fill:#b3e4ff;}.cls-20{fill:#e3f6ff;}.cls-21{stroke:#3369e8;}.cls-22{stroke:#000;}.cls-23{stroke:#a46347;}.cls-24{stroke-linejoin:round;}.cls-25{stroke:#c4c4c4;}.cls-26{fill:#009925;}.cls-28{fill:#ffc105;}.cls-29,.cls-30{stroke:#fff;}.cls-30{stroke-width:8px;}</style><clipPath id="clip-path"><path id="SVGID" class="cls-1" d="M756.11,710.15,711.76,526.08a3,3,0,0,0-3.57-2.27L479.85,581.54a2.74,2.74,0,0,0-2.06,3.33l50.32,203.2a11.21,11.21,0,0,0,10.32,8.5l231.68,11.58,199-97Z"/></clipPath></defs><g class="cls-2"><g id="Layer_1" data-name="Layer 1"><polygon class="cls-3" points="769.35 817.07 415.11 816.53 572.07 759.15 769.35 817.07"/><path class="cls-4" d="M677.25,367s3.68,10.16,4.12,11.63.89,9,1.77,11.19,25.91,1,25.91,1l4.13-11.48-12.81-3.53-6-16.2Z"/><path class="cls-5" d="M681.52,390c.31,1.9.59,9.13,4.42,9.42s24.95-.59,34.08-1.76,20-1.51,23.78-3.83,3-6.48.3-7.66-6-2.06-12.37-2.5-12.83-3.09-19.3-5.45-7.94-.73-8.24,2.65,1.88,4.91,3.83,6.48c2.28,1.84-2.13,1.43-10.36,1.47-7.77,0-15-.69-15-.69l-.4-2.55S680.78,385.39,681.52,390Z"/><polygon class="cls-6" points="679.02 371.89 695.21 362.13 677.25 367.98 679.02 371.89"/><path class="cls-7" d="M472.44,278.78s-3.75-24.14,3.83-68c8-46.31,19.41-56.69,25.16-61.84a59.28,59.28,0,0,1,15.38-10c4-1.78,25.34-3.1,29.21-1.93s14.31,9.81,17.68,14.58,24.21,110.31,24.21,110.31l-67.18-.76Z"/><path class="cls-8" d="M252.91,741.56c-9.13,0-57.43,0-57.43-45.06S258.8,506.86,258.8,506.86v45S217.27,672.65,217.27,696.8s36.81,24.73,36.81,24.73Z"/><path class="cls-8" d="M246.72,475.05s-56.54,51.83-108.95,104.84S50.3,673.83,52.07,740.38,98.3,829,120.69,829h154.6l-17.08-23.27H127.75c-13.54,0-46.52-20-46.52-67.43s19.14-83.63,68.31-133.4,97.18-96,97.18-96Z"/><path d="M313.86,324.58s-39.56,15.16-58,60.07c-13.55,33-9.13,88.2-9.13,88.2l127.22,21,265.32-60.37-126.18-13s.4-36.6,1.87-62.48c2.87-50.57,89.12-62.08,89.12-62.08L327.84,321.79Z"/><path class="cls-9" d="M618.52,420.58H507.34V327.42a4.81,4.81,0,0,1,4-4.73l107.22-19.05Z"/><path class="cls-10" d="M618.52,397.61l25-79.49a2.54,2.54,0,0,0-2.94-3.24l-114,24.37a2.52,2.52,0,0,0-2,2l-11.6,79.28Z"/><polygon class="cls-3" points="507.34 336.06 618.51 316.92 618.51 301.9 507.34 321.34 507.34 336.06"/><path class="cls-3" d="M524.34,343.51l107.81,10.8L644.41,316a1.38,1.38,0,0,0-1.61-1.77L525.92,339.31a1.36,1.36,0,0,0-1.07,1.12Z"/><polygon class="cls-7" points="634.93 434.52 618.51 397.61 513.08 420.5 523.84 459.8 634.93 434.52"/><path class="cls-11" d="M410.46,354.34c8.46.28,40.23-.92,75.78-30.79a2.26,2.26,0,0,1,3.38.51c5.45,8.63,27,39.78,60.17,49.11a2.27,2.27,0,0,1,1.67,2.15c.07,8.51-1.11,47.84-26.63,99.34l-85,25.13-29.35-83.27s-4.92-19.65-2.38-60.06A2.28,2.28,0,0,1,410.46,354.34Z"/><rect class="cls-3" x="457.12" y="368.66" width="43.88" height="43.88" rx="2.3" transform="matrix(0.8, -0.6, 0.6, 0.8, -138.53, 365.25)"/><polygon class="cls-3" points="419.84 429.79 529.5 464.78 513.84 484.79 435.84 504.79 419.84 429.79"/><polygon class="cls-5" points="237.34 805.75 204.88 829.02 275.29 829.02 258.21 805.75 237.34 805.75"/><polygon points="346.26 467.4 443.54 467.34 438.42 463.05 343.18 463.05 346.26 467.4"/><path class="cls-10" d="M456.55,378.06H293.12v87.46a3.53,3.53,0,0,0,3.53,3.53h121.8v13.69a1.42,1.42,0,0,0,2.58.82l10.38-14.51H453a3.53,3.53,0,0,0,3.53-3.53Z"/><rect class="cls-7" x="353.63" y="407.25" width="37.51" height="37.51" rx="1.72" transform="translate(410.3 -138.55) rotate(45)"/><path class="cls-12" d="M432.84,322.79c16,12,22.61,37.16,22.61,55.27"/><path class="cls-12" d="M294.22,378.06a78.53,78.53,0,0,1,20.41-52.83"/><polygon class="cls-3" points="293.12 381.59 456.56 396.9 456.56 378.06 293.12 378.06 293.12 381.59"/><path class="cls-8" d="M373.94,493.9l265.32-60.37v248c0,24.45-1.74,53-34.15,65.38s-213.8,78.33-230,84.22-43.95,13-67.87,12.67Z"/><path class="cls-9" d="M373.94,493.9l-127.22-21V778.51c0,31.81,19,57.46,50.36,64s76.86-13.69,76.86-61.39Z"/><polygon class="cls-13" points="408.17 645.41 609.59 585.15 609.59 702.51 408.17 774.07 408.17 645.41"/><polygon class="cls-3" points="474.59 590.39 469.25 796.79 519.98 778.27 474.59 590.39"/><path class="cls-5" d="M476.69,582.77a8.21,8.21,0,0,0-3.22,9c6.79,28.74,45.25,191.39,48,198.69,3,8,6,13,18,14,11.44.95,230.66,12.65,230.66,12.65l195.53-97.42a5.39,5.39,0,0,0,2.91-4.79v-3.58l-412.1,69.14L482.92,580.84S478.39,581.64,476.69,582.77Z"/><path class="cls-8" d="M756.11,710.15,711.76,526.08a3,3,0,0,0-3.57-2.27L479.85,581.54a2.74,2.74,0,0,0-2.06,3.33l50.32,203.2a11.21,11.21,0,0,0,10.32,8.5l231.68,11.58,199-97Z"/><g class="cls-14"><polygon class="cls-15" points="662.48 805.64 867.54 710.34 992.98 711.15 801.46 808.15 662.48 805.64"/><polygon class="cls-9" points="525.45 796.79 791.3 696.5 751.12 508.22 703.38 518.22 464.49 573.76 525.45 796.79"/></g><polygon class="cls-16" points="497.71 602.29 707.36 545.7 745.92 702.29 541.4 776.18 497.71 602.29"/><path d="M613.07,561.57c0,1.7-.82,2.89-1.9,2.66s-2-1.79-2-3.49.82-2.89,1.9-2.67S613,559.87,613.07,561.57Z"/><path class="cls-9" d="M313.86,324.58,603.59,259a137.23,137.23,0,0,1,30.22-3.37H766.48c13.83,0,14.72,12.07,6.18,13.84C760.53,272,543.56,321,531.48,323.4s-35.23,2.27-50.35,1.18C467.91,323.62,339.19,319.28,313.86,324.58Z"/><path class="cls-17" d="M592.59,256.7s39.9,1.32,54.48,1.47S670.57,266,677,277.75s22.38,83,22.38,83l-43.88,14.3s-14.3-71.8-16.06-75.73-46.81-23.22-46.81-23.22Z"/><polygon class="cls-4" points="596.23 392.23 593.8 400.51 596.86 415.13 587.91 419.51 573.3 397.61 580.22 384.65 596.23 392.23"/><path class="cls-8" d="M472.44,278.78s4.45,19.29,22.17,22.09,98,9.87,98,9.87l-23.76,73.91L608.9,399.7s27.27-82.34,29.33-92.5,4.55-24.88-22.61-33.57-84.87-13.84-84.87-13.84l-10,1.33Z"/><path class="cls-9" d="M639.4,299.35s3.89-16.83-16.77-23.07l-4.11-8.39s16.41,2.21,21.86,10.31C649,291,639.4,299.35,639.4,299.35Z"/><path class="cls-4" d="M615.62,256.88s-3.45-2.83-8.75-.18-5,6.55-5,6.55l13.21,13h7.52s2.65-4.12,0-8.24S615.62,256.88,615.62,256.88Z"/><path class="cls-6" d="M608.31,256.88s8.75,9.68,10.21,13.22a10.11,10.11,0,0,1,.68,6.18h-4.53l-11.78-16S606.25,257.4,608.31,256.88Z"/><polyline class="cls-13" points="639.26 455.91 373.94 519.03 246.72 497.32"/><path class="cls-4" d="M546,123.67s16.75-6,15.65-13S550,86.56,546,81.26s-8.87-9.05-14.39-9.94-21.2,5.54-21.42,22.21,10.38,34.33,10.38,34.33l.22,9.28-6,2.65L546,154.06Z"/><polygon class="cls-6" points="535.96 124.01 546.02 134.49 546.21 125.8 535.96 124.01"/><path class="cls-18" d="M530.75,120.8s8.39,6.24,15.46,6.43,14.79-1.79,18.33-8,1-8.61-1.61-13-8.72-12.2-9.45-13.45-11.62,6.38-13.38,7.93,1.25,5.52-.52,8.17-7.14,5.45-8.32,4-1.91-2.88-5.08-1.92c-3.54,1.07-9.29-2.34-9-7.53s5.58-5.79,7.67-3.81,3.26,3.15,4.2,2.71,2.26-1.33.06-3.92-5.75-4.69-4.75-7.73,6.46-5.52,11-9.39,6.72-7.26,7.56-10c1.51-4.93,1-10.16,0-12.4s-1.49-1-3.81,1.32a46.73,46.73,0,0,1-15.62,9.28c-8.21,2.91-14.84,6.81-19.33,14.17-5,8.22-2.37,16.09.67,22.16a116,116,0,0,0,10.62,16.82c2.49,3.09,4,5.65,5.06,5.26S529.7,121,530.75,120.8Z"/><path class="cls-7" d="M602.3,275.1a31.29,31.29,0,0,0,0-11.92c-1.32-5.74-1.76-5.45-5-6.92s-49.47-19.44-49.47-19.44-19.14-48.15-22.38-58.31-6.63-20.17-13.26-23-21.05.44-21.2,24.58,5.13,30.63,10.44,44.47,13,30.18,14.59,33.28,4.42,3.38,9.57,4.41S602.3,275.1,602.3,275.1Z"/><path class="cls-7" d="M600,265.38s1-4.27,6.62-7.66a10.1,10.1,0,0,1,9-.7l-27-24.47s-8.62-36.07-12.33-50.21c-3.13-11.93-9.11-27.39-13.31-31.66s-2.44,10.89-1.85,31.21,11.92,76,11.92,76Z"/><path class="cls-4" d="M601,259.5,602.44,275s9.44,1.39,12.23,1.24-1.19-5.3-3.25-8.2S602.6,259.2,601,259.5Z"/><path class="cls-19" d="M522.91,628.67l101-25.14a2.26,2.26,0,0,1,2.75,1.67l26.52,110.35a2.27,2.27,0,0,1-1.47,2.68l-99.41,34.11a2.26,2.26,0,0,1-2.94-1.63L521.25,631.4A2.27,2.27,0,0,1,522.91,628.67Z"/><path class="cls-20" d="M546,736.43l46.57-125.1-69.37,16.86a2.94,2.94,0,0,0-2.17,3.55Z"/><path class="cls-5" d="M587.29,417.87,574,397.61l.72-2.69a6.3,6.3,0,0,0-2.4,1.36c-.5.74-3.89,5.6-4.92,7.66s4.12,8.43,7.8,13.93,11.34,18.31,15.9,24.79,9.72,8.69,13.55,8.1,5.89-1.47,5-4.56-4-9-7.51-18.86-2.8-15.6-5.3-15.45-5.75-1.62-7.07-.3-.2,5.81-1.24,6.92C587.84,419.29,587.29,417.87,587.29,417.87Z"/><path class="cls-15" d="M283.81,275.25H53.27a2.31,2.31,0,0,1-2.31-3l18.71-81a4,4,0,0,1,3.69-3H303.9a2.31,2.31,0,0,1,2.31,3l-18.71,81A4,4,0,0,1,283.81,275.25Z"/><path class="cls-17" d="M846.67,662.45H665.48a3,3,0,0,1-2.92-3.68L679,587.48a3,3,0,0,1,2.92-2.33H863.13a3,3,0,0,1,2.92,3.68L849.6,660.12A3,3,0,0,1,846.67,662.45Z"/><rect class="cls-21" x="703.38" y="139.79" width="143.12" height="7.29" rx="3.64"/><path class="cls-9" d="M870.29,93.53H819.17a3.59,3.59,0,0,1-3.59-3.59h0a3.6,3.6,0,0,1,3.59-3.6h51.12a3.6,3.6,0,0,1,3.6,3.6h0A3.6,3.6,0,0,1,870.29,93.53Z"/><path class="cls-15" d="M420.48,105.45s-24.29,6.62-35.77,38c0,0-41.8-8.4-47-9.28-2-.33,11.19-19.44,29.74-28.71s23.85-7.51,23.85-7.51S407.67,99.26,420.48,105.45Z"/><path class="cls-21" d="M653.58,713.14H541.22a5.27,5.27,0,0,1-5.26-5.26h0a5.26,5.26,0,0,1,5.26-5.26H653.58a5.25,5.25,0,0,1,5.26,5.26h0A5.26,5.26,0,0,1,653.58,713.14Z"/><path class="cls-8" d="M184.66,641a6.08,6.08,0,1,1-6.07-6.07A6.07,6.07,0,0,1,184.66,641Z"/><path class="cls-9" d="M758,454.83a5,5,0,1,1-5-5A5,5,0,0,1,758,454.83Z"/><path class="cls-9" d="M921.93,652.52a6.85,6.85,0,1,1-6.85-6.84A6.85,6.85,0,0,1,921.93,652.52Z"/><path class="cls-8" d="M901.71,148.24a4.8,4.8,0,1,1-4.8-4.8A4.8,4.8,0,0,1,901.71,148.24Z"/><path class="cls-8" d="M238.93,63.33a7.11,7.11,0,1,1-7.11-7.1A7.11,7.11,0,0,1,238.93,63.33Z"/><path class="cls-9" d="M824.93,402.08s12.7-4.57,15.35-20.18S836,359.62,836,359.62l46.38-13.78s10.09,10.1,5.3,31.22c-3.63,16-12.14,22.51-12.14,22.51S840.1,409.09,824.93,402.08Z"/><path class="cls-21" d="M859.33,472.85h-41a3.59,3.59,0,0,1-3.58-3.59h0a3.58,3.58,0,0,1,3.58-3.58h41a3.58,3.58,0,0,1,3.59,3.58h0A3.59,3.59,0,0,1,859.33,472.85Z"/><path class="cls-22" d="M520.73,261.12s-3.46-.81-7.65-9.36c-5.21-10.6-19-42.77-21-54.51s.88-25,.88-25"/><polyline class="cls-22" points="600.1 258.39 547.83 236.82 525.45 178.51"/><polygon points="561.5 188.23 567.67 244.56 572.87 246.58 575.65 233.58 561.5 188.23"/><line class="cls-23" x1="520.73" y1="104.01" x2="526.64" y2="105.73"/><polygon class="cls-6" points="578.02 388.1 593.8 400.51 595.52 394.67 578.02 388.1"/><path class="cls-24" d="M587.91,384.65s22-64.64,24.94-74.58,1.16-15.68-8.34-17.89-75.6-6.57-80.82-7.06-12.38-1.5-12.38-1.5,3.76-6.68,0-11.53"/><path class="cls-24" d="M630.13,275.1s14.8,0,21,3.68,7.29,7,12.15,23.12,14,61.4,14,61.4"/><path class="cls-5" d="M840.28,381.9l42.07-36.06L836,359.62S843.72,372.3,840.28,381.9Z"/><path class="cls-17" d="M399.15,119.58l-7.82-21.64s21.2-.44,29.15,7.51C420.48,105.45,406.12,110.76,399.15,119.58Z"/><line class="cls-25" x1="612.87" y1="785.44" x2="772.96" y2="719.77"/><line class="cls-25" x1="661.84" y1="785.44" x2="809.77" y2="719.77"/><path class="cls-17" d="M767,765.47l56.95-27.39a.8.8,0,0,1,.33-.08h64.54a.77.77,0,0,1,.34,1.45l-55.23,27.4a.76.76,0,0,1-.33.08H767.31A.77.77,0,0,1,767,765.47Z"/><ellipse class="cls-26" cx="302.16" cy="188.23" rx="15.86" ry="12.6" transform="translate(-48.66 248.74) rotate(-41.71)"/><path class="cls-16" d="M263.44,242.21H89c-5.21,0-8.46-4.44-7.25-9.91l.13-.61c1.2-5.48,6.4-9.92,11.61-9.92H267.93c5.21,0,8.46,4.44,7.26,9.92l-.14.61C273.85,237.77,268.65,242.21,263.44,242.21Z"/><line class="cls-27" x1="94.89" y1="232.34" x2="240.87" y2="232.34"/><path class="cls-28" d="M267.81,232.24a8.14,8.14,0,0,1-7.51,6.1c-3.36,0-5.46-2.73-4.68-6.1a8.12,8.12,0,0,1,7.5-6.09C266.49,226.15,268.58,228.88,267.81,232.24Z"/><polyline class="cls-29" points="295.19 191.29 298.7 195.88 310.61 181.55"/><path class="cls-21" d="M729.08,648.57H683.47a1.93,1.93,0,0,1-1.87-2.35l10.56-45.71A1.91,1.91,0,0,1,694,599h45.6a1.91,1.91,0,0,1,1.87,2.35L731,647.09A1.92,1.92,0,0,1,729.08,648.57Z"/><path class="cls-16" d="M833,630H754a5.74,5.74,0,0,1-5.6-7h0a5.74,5.74,0,0,1,5.6-4.45h79a5.74,5.74,0,0,1,5.6,7h0A5.74,5.74,0,0,1,833,630Z"/><path class="cls-17" d="M770.11,808.15v9L966,719.77a5.73,5.73,0,0,0,3.1-5.1v-3.52Z"/><polygon class="cls-8" points="741.55 711.15 712.73 721.35 714.77 725.82 743.6 715.3 741.55 711.15"/><polygon class="cls-8" points="556.46 780.46 592.23 766.93 593.89 771.47 558.08 785.44 556.46 780.46"/><polyline class="cls-30" points="360.37 424.85 372.21 436.17 411.12 397.01"/></g></g></svg>
