<?xml version="1.0" encoding="utf-8"?>
<!-- Generator: Adobe Illustrator 24.2.1, SVG Export Plug-In . SVG Version: 6.00 Build 0)  -->
<svg version="1.1" id="Professional_Email_3" xmlns="http://www.w3.org/2000/svg" xmlns:xlink="http://www.w3.org/1999/xlink"
	 x="0px" y="0px" viewBox="0 0 100 100" style="enable-background:new 0 0 100 100;" xml:space="preserve">
<style type="text/css">
	.st0{fill:#616161;}
	.st1{fill:#C4C4C4;}
	.st2{fill:#EA4335;}
	.st3{fill:#FBBC04;}
</style>
<g>
	<g>
		<path class="st0" d="M25.3,50.7L100,15.5L26.2,84.4c-0.3,0.2-0.7,0.2-0.9,0c-0.1-0.1-0.2-0.3-0.2-0.5L25.3,50.7z"/>
		<g>
			<path class="st1" d="M3.4,40.2L25.9,51L100,15.5L3.8,36.6c-1,0.2-1.7,1.2-1.4,2.3C2.5,39.5,2.9,39.9,3.4,40.2z"/>
			<path class="st2" d="M64.1,66.7L25.3,50.7L100,15.5L66.3,66C65.8,66.7,64.9,67,64.1,66.7z"/>
		</g>
	</g>
	<g>
		<g>
			<path class="st3" d="M1.5,64.3c-0.6,0-1.1-0.3-1.4-0.9c-0.4-0.7,0-1.6,0.7-2l13.3-6.3c0.7-0.4,1.6,0,2,0.7c0.4,0.7,0,1.6-0.7,2
				L2.1,64.1C1.9,64.2,1.7,64.3,1.5,64.3z"/>
		</g>
		<g>
			<path class="st1" d="M1.5,75.6c-0.6,0-1.1-0.3-1.4-0.9c-0.4-0.7,0-1.6,0.7-2l13.3-6.3c0.7-0.4,1.6,0,2,0.7c0.4,0.7,0,1.6-0.7,2
				L2.1,75.5C1.9,75.6,1.7,75.6,1.5,75.6z"/>
		</g>
	</g>
</g>
</svg>
