<?xml version="1.0" encoding="utf-8"?>
<!-- Generator: Adobe Illustrator 24.2.1, SVG Export Plug-In . SVG Version: 6.00 Build 0)  -->
<svg version="1.1" id="Professional_Email_2" xmlns="http://www.w3.org/2000/svg" xmlns:xlink="http://www.w3.org/1999/xlink"
	 x="0px" y="0px" viewBox="0 0 100 100" style="enable-background:new 0 0 100 100;" xml:space="preserve">
<style type="text/css">
	.st0{fill:#EA4335;}
	.st1{fill:#FFFFFF;}
	.st2{fill:#A50E0E;}
	.st3{fill:#C4C4C4;}
	.st4{fill:#616161;}
	.st5{fill:#AAAAAA;}
	.st6{fill:#FBBC04;}
</style>
<path class="st0" d="M14.8,23.7h70.3c1.7,0,3,1.3,3,3V97c0,1.7-1.3,3-3,3H14.8c-1.7,0-3-1.3-3-3V26.7C11.8,25,13.2,23.7,14.8,23.7z"
	/>
<path class="st1" d="M84,26.1H16c-1,0-1.8,0.8-1.8,1.7c0,0,0,0,0,0v43.8c0,1,0.8,1.8,1.7,1.8c0,0,0,0,0,0h18.7v6.4
	c0,1,0.8,1.8,1.8,1.8h27.1c1,0,1.8-0.8,1.8-1.7c0,0,0,0,0,0v-6.4H84c1,0,1.8-0.8,1.8-1.7c0,0,0,0,0,0V27.8
	C85.8,26.9,85,26.1,84,26.1C84,26.1,84,26.1,84,26.1z"/>
<path class="st2" d="M37.4,87.2h25.4c1.5,0,2.7,1.2,2.7,2.7v0.2c0,1.5-1.2,2.7-2.7,2.7H37.4c-1.5,0-2.7-1.2-2.7-2.7V90
	C34.7,88.5,35.9,87.2,37.4,87.2z"/>
<polygon class="st3" points="85.8,48 14.2,48 14.2,0 73.9,0 85.8,11.9 "/>
<polygon class="st4" points="85.8,11.9 73.8,11.9 73.8,0 "/>
<g>
	<path class="st1" d="M65.7,14.6H33.4c-0.8,0-1.5-0.7-1.5-1.5s0.7-1.5,1.5-1.5h32.3c0.8,0,1.5,0.7,1.5,1.5S66.5,14.6,65.7,14.6z"/>
</g>
<circle class="st0" cx="26.5" cy="13.1" r="2.4"/>
<polygon class="st1" points="85.8,73.3 14.2,73.3 14.2,25.4 73.9,25.4 85.8,37.3 "/>
<polygon class="st5" points="85.8,37.3 73.9,37.3 73.9,25.4 "/>
<g>
	<path class="st5" d="M65.7,39.5H33.4c-0.8,0-1.5-0.7-1.5-1.5s0.7-1.5,1.5-1.5h32.3c0.8,0,1.5,0.7,1.5,1.5S66.5,39.5,65.7,39.5z"/>
</g>
<circle class="st6" cx="26.5" cy="38" r="2.4"/>
</svg>
