<svg id="Professional_Email_1" data-name="Professional Email 1" xmlns="http://www.w3.org/2000/svg" xmlns:xlink="http://www.w3.org/1999/xlink" viewBox="0 0 100 100"><defs><style>.cls-1{fill:none;}.cls-2{fill:#c4c4c4;}.cls-3{fill:#616161;}.cls-4{fill:#ea4335;}.cls-5{clip-path:url(#clip-path);}.cls-6{fill:#fff;}.cls-7{fill:#a50e0e;}</style><clipPath id="clip-path"><rect id="SVGID" class="cls-1" x="0.33" y="38.18" width="80.92" height="51.7" rx="4.05"/></clipPath></defs><path class="cls-2" d="M39.13,17.17,19.3,24a.45.45,0,0,1-.59-.42V12a1.88,1.88,0,0,1,1.88-1.88H33.84a5.58,5.58,0,0,1,5.58,5.58v1.06A.43.43,0,0,1,39.13,17.17Z"/><rect class="cls-2" x="18.75" y="16.28" width="80.92" height="51.7" rx="4.05"/><path class="cls-3" d="M30.66,28.74,10.83,35.57a.43.43,0,0,1-.58-.41V23.57a1.87,1.87,0,0,1,1.87-1.87H25.38A5.58,5.58,0,0,1,31,27.28v1A.43.43,0,0,1,30.66,28.74Z"/><rect class="cls-3" x="10.26" y="27.45" width="80.92" height="51.7" rx="4.05"/><rect class="cls-4" x="0.33" y="38.18" width="80.92" height="51.7" rx="4.05"/><g class="cls-5"><polyline class="cls-4" points="12.01 81.52 33.24 65.85 41.52 64.37 48.38 65.56 69.64 81.55"/><path class="cls-6" d="M69.64,82.57a1,1,0,0,1-.61-.21L48,66.52l-6.44-1.11-7.87,1.4-21,15.53a1,1,0,0,1-1.42-.22,1,1,0,0,1,.21-1.42L32.82,64.89l8.69-1.55L48.8,64.6,70.25,80.74a1,1,0,0,1-.61,1.83Z"/><path class="cls-6" d="M-7.08,42.45,39.24,70.2a3,3,0,0,0,3.09,0L83.46,44.76V33.15l-89,1.52Z"/><polygon class="cls-4" points="-7.08 39.88 40.79 68.55 83.46 42.19 83.46 30.57 -5.5 32.1 -7.08 39.88"/></g><polygon class="cls-7" points="49.98 65.41 81.25 46.15 81.25 53.85 49.98 65.41"/><polygon class="cls-7" points="31.72 65.7 0.33 46.9 0.33 53.82 31.72 65.7"/></svg>