<svg width="127" height="42" xmlns="http://www.w3.org/2000/svg"><path d="M0 37.291c0-1.617.966-2.866 2.594-2.866 1.533 0 2.499 1.102 2.499 2.583 0 .167-.011.314-.021.42H.934c.011 1.175.756 1.879 1.785 1.879.61 0 1.166-.242 1.555-.735l.598.546c-.514.62-1.25 1.008-2.205 1.008C.977 40.126 0 38.908 0 37.291zm.956-.556h3.223c-.063-1.061-.777-1.544-1.596-1.544-.935 0-1.554.64-1.628 1.543zm11.455-2.898l-.745.524c-.463-.703-1.187-1.112-2.1-1.112-1.576 0-2.552 1.207-2.552 3.002 0 1.806.997 3.004 2.593 3.004.925 0 1.575-.4 2.09-1.124l.756.525c-.682.966-1.617 1.48-2.845 1.48-2.174 0-3.592-1.617-3.592-3.885 0-2.246 1.407-3.884 3.55-3.884 1.228 0 2.204.535 2.845 1.47zm6.059 3.444c0 1.627-1.008 2.845-2.615 2.845-1.596 0-2.594-1.218-2.594-2.845 0-1.649.998-2.856 2.594-2.856 1.607 0 2.614 1.207 2.614 2.856zm-.945 0c0-1.166-.61-2.059-1.67-2.059-1.05 0-1.659.893-1.659 2.059 0 1.144.609 2.047 1.659 2.047 1.06 0 1.67-.903 1.67-2.047zM24.098 40h-.883v-3.381c0-.724-.241-1.376-1.113-1.376-.85 0-1.48.672-1.48 1.649V40h-.882v-5.45h.882v.788a1.995 1.995 0 011.701-.913c.756 0 1.334.367 1.585 1.039.368-.567 1.04-1.04 1.859-1.04 1.092 0 1.796.725 1.796 1.985V40h-.883v-3.381c0-.724-.23-1.376-1.113-1.376-.84 0-1.47.672-1.47 1.649V40zm9.386 0h-.882v-3.381c0-.724-.241-1.376-1.112-1.376-.851 0-1.481.672-1.481 1.649V40h-.882v-5.45h.882v.788a1.995 1.995 0 011.701-.913c.756 0 1.334.367 1.585 1.039.368-.567 1.04-1.04 1.859-1.04 1.092 0 1.795.725 1.795 1.985V40h-.881v-3.381c0-.724-.231-1.376-1.113-1.376-.84 0-1.47.672-1.47 1.649V40zm4.683-2.709c0-1.617.966-2.866 2.594-2.866 1.533 0 2.499 1.102 2.499 2.583 0 .167-.01.314-.021.42h-4.137c.01 1.175.756 1.879 1.785 1.879.609 0 1.166-.242 1.554-.735l.598.546c-.514.62-1.249 1.008-2.205 1.008-1.69 0-2.667-1.218-2.667-2.835zm.956-.556h3.224c-.064-1.061-.778-1.544-1.596-1.544-.935 0-1.554.64-1.628 1.543zm8.579-2.1l-.21.808c-.158-.094-.42-.147-.651-.147-.778 0-1.46.63-1.46 1.9V40h-.882v-5.45h.882v.799a1.858 1.858 0 011.586-.903c.325 0 .598.094.735.189zm5.229.913l-.662.462a1.653 1.653 0 00-1.428-.777c-1.071 0-1.733.85-1.733 2.037 0 1.197.662 2.037 1.733 2.037.661 0 1.145-.315 1.46-.777l.65.493c-.462.651-1.197 1.103-2.163 1.103-1.595 0-2.614-1.228-2.614-2.856 0-1.617 1.029-2.846 2.614-2.846.977 0 1.702.462 2.143 1.124zm.819 1.743c0-1.617.965-2.866 2.593-2.866 1.533 0 2.499 1.102 2.499 2.583 0 .167-.01.314-.021.42h-4.137c.01 1.175.756 1.879 1.785 1.879.609 0 1.166-.242 1.554-.735l.598.546c-.514.62-1.249 1.008-2.205 1.008-1.69 0-2.666-1.218-2.666-2.835zm.955-.556h3.224c-.064-1.061-.778-1.544-1.596-1.544-.935 0-1.554.64-1.628 1.543zm8.211-4.232h.882v2.898c.441-.683 1.144-.977 1.858-.977 1.512 0 2.468 1.229 2.468 2.846s-.966 2.856-2.468 2.856c-.724 0-1.417-.304-1.858-.976V40h-.882v-7.497zm.882 4.778c0 1.133.609 2.026 1.722 2.026s1.67-.893 1.67-2.026c0-1.124-.546-2.048-1.67-2.048-1.123 0-1.722.924-1.722 2.048zm5.45 4.535l.199-.735a.802.802 0 00.346.084c.41 0 .651-.262 1.008-1.186l-2.142-5.428h.998l1.606 4.325 1.596-4.325h.967l-2.205 5.585c-.515 1.313-.903 1.796-1.722 1.796-.316 0-.546-.063-.651-.116zM79.376 42a1.838 1.838 0 01-1.838-1.839V32.84c0-1.016.823-1.839 1.838-1.839H86.7c1.014 0 1.838.823 1.838 1.839v7.322A1.838 1.838 0 0186.7 42h-7.324zm.162-8.42v5.84c0 .32.259.58.579.58h5.84a.58.58 0 00.58-.58v-5.84a.58.58 0 00-.58-.58h-5.84a.58.58 0 00-.58.58zM84.205 35c.184 0 .333.15.333.336v2.33c0 .185-.15.335-.333.335H81.87a.333.333 0 01-.332-.335v-2.33c0-.186.147-.336.332-.336h2.334zm10.441-1.773c-.861 0-1.575.41-1.575 1.156 0 .503.347.787.882.986 1.176.452 3.517.568 3.517 2.5 0 1.301-1.039 2.267-2.73 2.267-1.249 0-2.278-.535-2.845-1.428l.767-.535c.514.83 1.385 1.102 2.131 1.102 1.05 0 1.722-.524 1.722-1.333 0-.85-.746-1.071-1.817-1.344-1.228-.283-2.582-.682-2.582-2.152 0-1.365 1.197-2.08 2.572-2.08 1.071 0 2.005.431 2.614 1.24l-.724.535c-.441-.567-1.124-.913-1.932-.913zm9.177 8.6h-.882V39.15c-.451.682-1.145.976-1.869.976-1.512 0-2.457-1.228-2.457-2.845 0-1.617.956-2.856 2.457-2.856.735 0 1.418.304 1.869.976v-.85h.882v7.276zm-.882-4.557c0-1.134-.609-2.037-1.733-2.037-1.102 0-1.659.903-1.659 2.037 0 1.123.546 2.037 1.66 2.037 1.133 0 1.732-.913 1.732-2.037zm6.321-2.72h.882V40h-.882v-.819c-.378.567-1.019.945-1.817.945-1.133 0-1.868-.756-1.868-2.047V34.55h.892v3.319c0 .755.231 1.428 1.176 1.428.924 0 1.617-.683 1.617-1.712V34.55zm6.772 5.45h-.86v-.672c-.389.546-.956.798-1.68.798-1.145 0-1.89-.62-1.89-1.659 0-1.291 1.123-1.523 1.826-1.638.82-.126 1.722-.189 1.722-.871 0-.567-.619-.746-1.175-.746-.547 0-1.24.178-1.723.567l-.398-.672c.556-.41 1.344-.682 2.173-.682 1.187 0 2.005.535 2.005 1.659V40zm-.882-2.142v-.808c-.377.273-.997.357-1.543.451-.63.116-1.102.273-1.102.913 0 .672.514.935 1.123.935.777 0 1.523-.43 1.523-1.491zm5.87-3.223l-.21.808c-.157-.094-.42-.147-.651-.147-.777 0-1.46.63-1.46 1.9V40h-.881v-5.45h.882v.799a1.858 1.858 0 011.585-.903c.325 0 .598.094.735.189zm.682 2.656c0-1.617.967-2.866 2.594-2.866 1.533 0 2.499 1.102 2.499 2.583 0 .167-.01.314-.021.42h-4.137c.01 1.175.756 1.879 1.785 1.879.609 0 1.165-.242 1.554-.735l.599.546c-.515.62-1.25 1.008-2.206 1.008-1.69 0-2.666-1.218-2.666-2.835zm.956-.556h3.224c-.064-1.061-.778-1.544-1.597-1.544-.934 0-1.553.64-1.627 1.543zM77.849 8.798c1.15-1.441 2.918-2.23 5.03-2.23 4.51 0 7.659 3.66 7.659 8.9 0 5.277-3.15 8.962-7.659 8.962-2.1 0-3.87-.798-5.03-2.26v1.879h-4.311V0h4.31v8.799zm4.142 11.813c2.983 0 4.046-2.624 4.046-5.08 0-2.486-1.063-5.142-4.046-5.142-2.861 0-4.142 2.583-4.142 5.143 0 3.085 1.625 5.079 4.142 5.079zm9.547 3.438V0h4.369v24.05h-4.369zm-36.877-9.064l-.002 1.64H42.577c.09 2.441 1.746 3.95 4.354 3.95 1.755 0 3.24-.698 4.293-2.018l.096-.121 2.816 2.652-.087.103c-1.823 2.168-4.294 3.266-7.342 3.266-5.341 0-8.792-3.48-8.792-8.866 0-5.38 3.43-8.995 8.534-8.995 4.912 0 8.212 3.372 8.212 8.39zm-11.945-1.59h7.746c-.393-1.869-1.813-2.98-3.83-2.98-2 0-3.486 1.137-3.916 2.98zm29.561 1.59l-.002 1.64H60.192c.09 2.441 1.747 3.95 4.355 3.95 1.755 0 3.24-.698 4.292-2.018l.097-.121 2.815 2.652-.087.103c-1.822 2.168-4.293 3.266-7.342 3.266-5.34 0-8.791-3.48-8.791-8.866 0-5.38 3.43-8.995 8.533-8.995 4.912 0 8.213 3.372 8.213 8.39zm-11.946-1.59h7.747c-.394-1.869-1.814-2.98-3.83-2.98-2 0-3.486 1.137-3.917 2.98zm-26.79-6.418h4.642l-4.676 17.1h-4.963l-3.14-10.995L22.2 24.077h-4.98l-.029-.106-4.615-16.993h4.672l2.602 10.889L23.01 6.978h4.806l3.157 10.885 2.57-10.885zM109.839 7h4.68l-9.156 23.99h-4.19l2.599-6.939L96.998 7h4.909l3.98 11.394L109.837 7z" fill="#2F3337" fill-rule="evenodd"/></svg>